{
.appVersion = "3075";
DisplayStrings = (
"mohn\012mohn",
nnrnnooroo,
rn,
r,
HH0H,
"ABCDEFGHIJKLMNOPQRSTUVWXYZ.,0123456789\012abcdefghijklmno\012pqrstuvwxyz",
"hH(H//]()"
);
classes = (
{
automatic = 1;
code = "A Adieresis B C D E F G H I J K L M N O Odieresis P Q R S T U Udieresis V W X Y Z A.mark O.mark U.mark";
name = Uppercase;
}
);
customParameters = (
{
name = "Disable Last Change";
value = 1;
},
{
name = vendorID;
value = JENS;
},
{
name = license;
value = "SIL Open Font License";
},
{
name = licenseURL;
value = "https://scripts.sil.org/OFL";
},
{
name = Axes;
value = (
{
Name = Roughness;
Tag = RUFF;
},
{
Name = Weight;
Tag = wght;
},
{
Name = "Optical size";
Tag = opsz;
},
{
Hidden = 1;
Name = Softness;
Tag = SOFT;
}
);
},
{
name = note;
value = "As the glyph widths are on a grid of 1 to 9 units per em, I figured the best upm setting for an OpenType font would be 900 upm so that 1 composer unit corresponds to 100 font units.\012\012Then for example, for the Classified News font in 6 points, the cap height is given as 4.5 pt. That would correspond to 900/6*4.5 = 675 units cap height. That provides a good basis for scale of the scanned glyphs.\012\0121080 / 10 * 7 = 756 (10 pt, 7 pt cap height)\0121080 / 9 * 6 = 720 (9 pt, 6 pt cap height) 1 composer unit -> 100 fu\0121080 / 8 * 6 = 810 (8 pt, 6 pt cap height) 1 composer unit -> 120 fu";
}
);
date = "2019-04-01 08:05:36 +0000";
designer = "IBM, Jens Kutilek";
designerURL = "https://www.kutilek.de/";
familyName = "Selectric Century";
featurePrefixes = (
{
automatic = 1;
code = "languagesystem DFLT dflt;\012";
name = Languagesystems;
}
);
features = (
{
automatic = 1;
code = "feature frac;\012feature case;\012";
name = aalt;
},
{
automatic = 1;

glyphs = (
{
glyphname = A;
layers = (
{
background = {
paths = (
{
closed = 1;
nodes = (
"5 0 LINE",
"5 1170 LINE",
"-5 1170 LINE",
"-5 0 LINE"
);
}
);
};
layerId = "87410FD4-54DA-4328-9944-625314575885";
paths = (
{
closed = 1;
nodes = (
"361 708 OFFCURVE",
"325 619 OFFCURVE",
"289 519 CURVE",
"162 168 OFFCURVE",
"152 142 OFFCURVE",
"130 104 CURVE",
"118 83 OFFCURVE",
"91 60 OFFCURVE",
"69 53 CURVE",
"48 45 OFFCURVE",
"30 29 OFFCURVE",
"30 17 CURVE",
"30 -4 LINE",
"284 -4 LINE",
"279 19 LINE",
"276 33 OFFCURVE",
"259 47 OFFCURVE",
"240 51 CURVE",
"197 61 OFFCURVE",
"189 101 OFFCURVE",
"216 167 CURVE",
"237 215 LINE",
"506 214 LINE",
"533 153 LINE",
"564 82 OFFCURVE",
"557 51 OFFCURVE",
"509 51 CURVE",
"484 51 OFFCURVE",
"476 45 OFFCURVE",
"480 27 CURVE",
"484 3 LINE",
"742 -5 LINE",
"742 16 LINE",
"742 28 OFFCURVE",
"728 44 OFFCURVE",
"710 51 CURVE",
"687 59 OFFCURVE",
"669 87 OFFCURVE",
"648 144 CURVE",
"632 189 OFFCURVE",
"602 273 OFFCURVE",
"581 331 CURVE",
"560 388 OFFCURVE",
"522 495 OFFCURVE",
"496 568 CURVE",
"444 717 OFFCURVE",
"405 763 OFFCURVE",
"369 718 CURVE"
);
},
{
closed = 1;
nodes = (
"468 347 OFFCURVE",
"487 279 OFFCURVE",
"483 273 CURVE",
"473 257 OFFCURVE",
"271 257 OFFCURVE",
"262 273 CURVE",
"245 301 OFFCURVE",
"360 593 OFFCURVE",
"380 573 CURVE",
"386 566 OFFCURVE",
"414 499 OFFCURVE",
"441 423 CURVE"
);
}
);
width = 800;
},
{
anchors = (
{
name = bottom;
position = "{395, 0}";
},
{
name = ogonek;
position = "{720, 10}";
},
{
name = top;
position = "{395, 720}";
}
);
color = 4;
hints = (
{
origin = "{0, 0}";
scale = "{-1.06, 1.08}";
type = Corner;
name = _corner.serif.lc.foot;
options = 1;
},
{
origin = "{0, 4}";
scale = "{1.44, 1.08}";
type = Corner;
name = _corner.serif.lc.foot;
},
{
origin = "{1, 0}";
scale = "{-1.12, 1}";
type = Corner;
name = _corner.serif.uc.thin;
options = 1;
},
{
origin = "{1, 3}";
scale = "{1, 0.98}";
type = Corner;
name = _corner.serif.uc.thin;
},
{
origin = "{1, 2}";
type = Corner;
name = _corner.round;
},
{
origin = "{0, 1}";
type = Corner;
name = _corner.round;
}
);
layerId = "2EA6C462-E43A-4553-9036-03D60599BBF6";
paths = (
{
closed = 1;
nodes = (
"708 0 LINE",
"438 720 LINE",
"391 720 LINE",
"361 635 LINE",
"594 0 LINE"
);
},
{
closed = 1;
nodes = (
"162 0 LINE",
"418 720 LINE",
"358 720 LINE",
"98 0 LINE"
);
},
{
closed = 1;
nodes = (
"560 213 LINE",
"560 265 LINE",
"214 265 LINE",
"214 213 LINE"
);
},
{
closed = 1;
nodes = (
"396 592 LINE",
"396 616 LINE",
"356 616 LINE",
"356 592 LINE"
);
}
);
width = 800;
},
{
layerId = "F6C816F3-9BC2-4509-B825-E49BED503D7A";
paths = (
{
closed = 1;
nodes = (
"383.916 673.653 OFFCURVE",
"247.265 344.263 OFFCURVE",
"183.995 187.476 CURVE",
"152.339 109.005 OFFCURVE",
"103.363 53 OFFCURVE",
"66.38 53 CURVE",
"41.543 53 OFFCURVE",
"28.616 11.555 OFFCURVE",
"50.803 3.034 CURVE",
"60.941 -0.856 OFFCURVE",
"118.815 -2.181 OFFCURVE",
"179.421 0.078 CURVE",
"289.59 4.192 LINE",
"294.247 28.596 LINE",
"297.692 46.586 OFFCURVE",
"289.729 53 OFFCURVE",
"263.972 53 CURVE",
"219.054 53 OFFCURVE",
"205.68 92.996 OFFCURVE",
"229.025 157.535 CURVE",
"246.694 206.4 LINE",
"516.202 206.4 LINE",
"540.048 143.98 LINE",
"566.056 75.885 OFFCURVE",
"560.799 53 OFFCURVE",
"519.172 53 CURVE",
"501.406 53 OFFCURVE",
"492.104 43.42 OFFCURVE",
"492.104 25.11 CURVE",
"492.104 -2.781 LINE",
"614.126 -2.572 LINE",
"681.231 -2.446 OFFCURVE",
"744.794 3.118 OFFCURVE",
"755.365 9.826 CURVE",
"777.747 23.994 OFFCURVE",
"764.499 53 OFFCURVE",
"735.646 53 CURVE",
"705.468 53 OFFCURVE",
"683.016 95.743 OFFCURVE",
"578.105 352.826 CURVE",
"441.692 687.124 OFFCURVE",
"438.205 694.487 OFFCURVE",
"416.046 694.487 CURVE",
"405.085 694.487 OFFCURVE",
"393.371 689.774 OFFCURVE",
"389.996 684.028 CURVE"
);
},
{
closed = 1;
nodes = (
"426.407 442.955 OFFCURVE",
"448.232 388.038 OFFCURVE",
"463.112 345.853 CURVE",
"490.152 269.154 LINE",
"410.942 261.33 LINE",
"298.138 250.202 OFFCURVE",
"279.563 256.952 OFFCURVE",
"290.161 305.258 CURVE",
"294.931 326.957 OFFCURVE",
"314.078 376.31 OFFCURVE",
"332.709 414.939 CURVE",
"351.354 453.567 OFFCURVE",
"366.596 491.471 OFFCURVE",
"366.596 499.182 CURVE",
"366.596 529.053 OFFCURVE",
"394.194 511.064 OFFCURVE",
"414.624 467.875 CURVE"
);
}
);
width = 800;
},
{
layerId = "8BBD64F6-C2DD-426A-A806-28AAAAE0677A";
paths = (
{
closed = 1;
nodes = (
"383.916 673.653 OFFCURVE",
"247.265 344.263 OFFCURVE",
"183.995 187.476 CURVE",
"152.339 109.005 OFFCURVE",
"103.363 53 OFFCURVE",
"66.38 53 CURVE",
"41.543 53 OFFCURVE",
"28.616 11.555 OFFCURVE",
"50.803 3.034 CURVE",
"60.941 -0.856 OFFCURVE",
"118.815 -2.181 OFFCURVE",
"179.421 0.078 CURVE",
"289.59 4.192 LINE",
"294.247 28.596 LINE",
"297.692 46.586 OFFCURVE",
"289.729 53 OFFCURVE",
"263.972 53 CURVE",
"219.054 53 OFFCURVE",
"205.68 92.996 OFFCURVE",
"229.025 157.535 CURVE",
"246.694 206.4 LINE",
"516.202 206.4 LINE",
"540.048 143.98 LINE",
"566.056 75.885 OFFCURVE",
"560.799 53 OFFCURVE",
"519.172 53 CURVE",
"501.406 53 OFFCURVE",
"492.104 43.42 OFFCURVE",
"492.104 25.11 CURVE",
"492.104 -2.781 LINE",
"614.126 -2.572 LINE",
"681.231 -2.446 OFFCURVE",
"744.794 3.118 OFFCURVE",
"755.365 9.826 CURVE",
"777.747 23.994 OFFCURVE",
"764.499 53 OFFCURVE",
"735.646 53 CURVE",
"705.468 53 OFFCURVE",
"683.016 95.743 OFFCURVE",
"578.105 352.826 CURVE",
"441.692 687.124 OFFCURVE",
"438.205 694.487 OFFCURVE",
"416.046 694.487 CURVE",
"405.085 694.487 OFFCURVE",
"393.371 689.774 OFFCURVE",
"389.996 684.028 CURVE"
);
},
{
closed = 1;
nodes = (
"426.407 442.955 OFFCURVE",
"448.232 388.038 OFFCURVE",
"463.112 345.853 CURVE",
"490.152 269.154 LINE",
"410.942 261.33 LINE",
"298.138 250.202 OFFCURVE",
"279.563 256.952 OFFCURVE",
"290.161 305.258 CURVE",
"294.931 326.957 OFFCURVE",
"314.078 376.31 OFFCURVE",
"332.709 414.939 CURVE",
"351.354 453.567 OFFCURVE",
"366.596 491.471 OFFCURVE",
"366.596 499.182 CURVE",
"366.596 529.053 OFFCURVE",
"394.194 511.064 OFFCURVE",
"414.624 467.875 CURVE"
);
}
);
width = 800;
},
{
background = {
paths = (
{
closed = 1;
nodes = (
"5 0 LINE",
"5 1170 LINE",
"-5 1170 LINE",
"-5 0 LINE"
);
}
);
};
layerId = "664CC791-0498-4EB7-B1D0-E1FFFC98853E";
paths = (
{
closed = 1;
nodes = (
"375 706 OFFCURVE",
"339 617 OFFCURVE",
"303 517 CURVE",
"176 166 OFFCURVE",
"166 140 OFFCURVE",
"144 102 CURVE",
"132 81 OFFCURVE",
"105 58 OFFCURVE",
"83 51 CURVE",
"62 43 OFFCURVE",
"44 27 OFFCURVE",
"44 15 CURVE",
"44 -6 LINE",
"298 -6 LINE",
"293 17 LINE",
"290 31 OFFCURVE",
"273 45 OFFCURVE",
"254 49 CURVE",
"211 59 OFFCURVE",
"203 99 OFFCURVE",
"230 165 CURVE",
"251 213 LINE",
"520 212 LINE",
"547 151 LINE",
"578 80 OFFCURVE",
"571 49 OFFCURVE",
"523 49 CURVE",
"498 49 OFFCURVE",
"490 43 OFFCURVE",
"494 25 CURVE",
"498 1 LINE",
"756 -7 LINE",
"756 14 LINE",
"756 26 OFFCURVE",
"742 42 OFFCURVE",
"724 49 CURVE",
"701 57 OFFCURVE",
"683 85 OFFCURVE",
"662 142 CURVE",
"646 187 OFFCURVE",
"616 271 OFFCURVE",
"595 329 CURVE",
"574 386 OFFCURVE",
"536 493 OFFCURVE",
"510 566 CURVE",
"458 715 OFFCURVE",
"419 761 OFFCURVE",
"383 716 CURVE"
);
},
{
closed = 1;
nodes = (
"482 345 OFFCURVE",
"501 277 OFFCURVE",
"497 271 CURVE",
"487 255 OFFCURVE",
"285 255 OFFCURVE",
"276 271 CURVE",
"259 299 OFFCURVE",
"374 591 OFFCURVE",
"394 571 CURVE",
"400 564 OFFCURVE",
"428 497 OFFCURVE",
"455 421 CURVE"
);
}
);
width = 800;
},
{
layerId = "9F6891F3-FE19-4DFC-8FDB-D5777C380353";
paths = (
{
closed = 1;
nodes = (
"383.916 673.653 OFFCURVE",
"247.265 344.263 OFFCURVE",
"183.995 187.476 CURVE",
"152.339 109.005 OFFCURVE",
"103.363 53 OFFCURVE",
"66.38 53 CURVE",
"41.543 53 OFFCURVE",
"28.616 11.555 OFFCURVE",
"50.803 3.034 CURVE",
"60.941 -0.856 OFFCURVE",
"118.815 -2.181 OFFCURVE",
"179.421 0.078 CURVE",
"289.59 4.192 LINE",
"294.247 28.596 LINE",
"297.692 46.586 OFFCURVE",
"289.729 53 OFFCURVE",
"263.972 53 CURVE",
"219.054 53 OFFCURVE",
"205.68 92.996 OFFCURVE",
"229.025 157.535 CURVE",
"246.694 206.4 LINE",
"516.202 206.4 LINE",
"540.048 143.98 LINE",
"566.056 75.885 OFFCURVE",
"560.799 53 OFFCURVE",
"519.172 53 CURVE",
"501.406 53 OFFCURVE",
"492.104 43.42 OFFCURVE",
"492.104 25.11 CURVE",
"492.104 -2.781 LINE",
"614.126 -2.572 LINE",
"681.231 -2.446 OFFCURVE",
"744.794 3.118 OFFCURVE",
"755.365 9.826 CURVE",
"777.747 23.994 OFFCURVE",
"764.499 53 OFFCURVE",
"735.646 53 CURVE",
"705.468 53 OFFCURVE",
"683.016 95.743 OFFCURVE",
"578.105 352.826 CURVE",
"441.692 687.124 OFFCURVE",
"438.205 694.487 OFFCURVE",
"416.046 694.487 CURVE",
"405.085 694.487 OFFCURVE",
"393.371 689.774 OFFCURVE",
"389.996 684.028 CURVE"
);
},
{
closed = 1;
nodes = (
"426.407 442.955 OFFCURVE",
"448.232 388.038 OFFCURVE",
"463.112 345.853 CURVE",
"490.152 269.154 LINE",
"410.942 261.33 LINE",
"298.138 250.202 OFFCURVE",
"279.563 256.952 OFFCURVE",
"290.161 305.258 CURVE",
"294.931 326.957 OFFCURVE",
"314.078 376.31 OFFCURVE",
"332.709 414.939 CURVE",
"351.354 453.567 OFFCURVE",
"366.596 491.471 OFFCURVE",
"366.596 499.182 CURVE",
"366.596 529.053 OFFCURVE",
"394.194 511.064 OFFCURVE",
"414.624 467.875 CURVE"
);
}
);
width = 800;
}
);
leftKerningGroup = A;
rightKerningGroup = A;
unicode = 0041;
},
{
glyphname = B;
layers = (
{
layerId = "87410FD4-54DA-4328-9944-625314575885";
paths = (
{
closed = 1;
nodes = (
"24 707 OFFCURVE",
"40 684 OFFCURVE",
"79 684 CURVE",
"102 684 OFFCURVE",
"124 677 OFFCURVE",
"129 669 CURVE",
"134 661 OFFCURVE",
"137 574 OFFCURVE",
"136 477 CURVE",
"134 380 OFFCURVE",
"133 250 OFFCURVE",
"133 188 CURVE",
"134 68 OFFCURVE",
"122 42 OFFCURVE",
"71 42 CURVE",
"41 42 OFFCURVE",
"21 2 OFFCURVE",
"48 -2 CURVE",
"141 -15 OFFCURVE",
"421 -9 OFFCURVE",
"478 7 CURVE",
"588 38 OFFCURVE",
"649 126 OFFCURVE",
"629 226 CURVE",
"620 270 OFFCURVE",
"535 363 OFFCURVE",
"503 363 CURVE",
"474 363 OFFCURVE",
"481 402 OFFCURVE",
"512 411 CURVE",
"558 426 OFFCURVE",
"596 487 OFFCURVE",
"596 547 CURVE",
"596 621 OFFCURVE",
"579 648 OFFCURVE",
"507 691 CURVE",
"446 726 LINE",
"252 733 LINE",
"145 737 OFFCURVE",
"53 736 OFFCURVE",
"48 731 CURVE"
);
},
{
closed = 1;
nodes = (
"499 575 OFFCURVE",
"498 499 OFFCURVE",
"444 445 CURVE",
"403 404 LINE",
"325 404 LINE",
"273 404 OFFCURVE",
"247 410 OFFCURVE",
"246 422 CURVE",
"241 518 OFFCURVE",
"252 664 OFFCURVE",
"266 674 CURVE",
"275 680 OFFCURVE",
"312 682 OFFCURVE",
"347 679 CURVE",
"398 675 OFFCURVE",
"420 665 OFFCURVE",
"448 633 CURVE"
);
},
{
closed = 1;
nodes = (
"520 281 OFFCURVE",
"542 153 OFFCURVE",
"472 82 CURVE",
"431 42 LINE",
"247 42 LINE",
"247 193 LINE",
"247 276 OFFCURVE",
"251 348 OFFCURVE",
"256 353 CURVE",
"269 366 OFFCURVE",
"388 348 OFFCURVE",
"430 326 CURVE"
);
}
);
width = 700;
},
{
background = {
hints = (
{
origin = "{0, 16}";
scale = "{1.44, -1.08}";
type = Corner;
name = _corner.serif.lc.foot;
},
{
origin = "{0, 17}";
scale = "{1.44, 1.08}";
type = Corner;
name = _corner.serif.lc.foot;
},
{
origin = "{1, 0}";
type = Corner;
name = _corner.uc.inside;
},
{
origin = "{1, 17}";
type = Corner;
name = _corner.uc.inside;
}
);
paths = (
{
closed = 1;
nodes = (
"345 0 LINE SMOOTH",
"529 0 OFFCURVE",
"634 76 OFFCURVE",
"634 192 CURVE SMOOTH",
"634 309 OFFCURVE",
"511 389 OFFCURVE",
"357 389 CURVE SMOOTH",
"305 389 LINE",
"305 371 LINE",
"330 371 LINE SMOOTH",
"491 371 OFFCURVE",
"601 432 OFFCURVE",
"601 545 CURVE SMOOTH",
"601 659 OFFCURVE",
"490 720 OFFCURVE",
"323 720 CURVE SMOOTH",
"136 720 LINE",
"136 0 LINE"
);
},
{
closed = 1;
nodes = (
"244 668 LINE",
"326 668 LINE SMOOTH",
"424 668 OFFCURVE",
"479 618 OFFCURVE",
"479 539 CURVE SMOOTH",
"479 460 OFFCURVE",
"423 405 OFFCURVE",
"328 405 CURVE SMOOTH",
"207 405 LINE",
"207 353 LINE",
"339 353 LINE SMOOTH",
"450 353 OFFCURVE",
"512 291 OFFCURVE",
"512 196 CURVE SMOOTH",
"512 101 OFFCURVE",
"450 52 OFFCURVE",
"344 52 CURVE SMOOTH",
"244 52 LINE"
);
},
{
closed = 1;
nodes = (
"449 362 LINE",
"449 397 LINE",
"417 397 LINE",
"417 362 LINE"
);
}
);
};
color = 4;
hints = (
{
origin = "{0, 16}";
scale = "{1.44, -1.08}";
type = Corner;
name = _corner.serif.lc.foot;
},
{
origin = "{0, 17}";
scale = "{1.44, 1.08}";
type = Corner;
name = _corner.serif.lc.foot;
},
{
origin = "{1, 0}";
type = Corner;
name = _corner.uc.inside;
},
{
origin = "{1, 17}";
type = Corner;
name = _corner.uc.inside;
}
);
layerId = "2EA6C462-E43A-4553-9036-03D60599BBF6";
paths = (
{
closed = 1;
nodes = (
"352 0 LINE SMOOTH",
"537 0 OFFCURVE",
"634 74 OFFCURVE",
"634 190 CURVE SMOOTH",
"634 298 OFFCURVE",
"537 384 OFFCURVE",
"357 384 CURVE SMOOTH",
"305 384 LINE",
"305 365 LINE",
"328 365 LINE SMOOTH",
"497 365 OFFCURVE",
"601 433 OFFCURVE",
"601 542 CURVE SMOOTH",
"601 652 OFFCURVE",
"497 720 OFFCURVE",
"331 720 CURVE SMOOTH",
"136 720 LINE",
"136 0 LINE"
);
},
{
closed = 1;
nodes = (
"244 668 LINE",
"338 668 LINE SMOOTH",
"436 668 OFFCURVE",
"479 620 OFFCURVE",
"479 535 CURVE SMOOTH",
"479 450 OFFCURVE",
"436 402 OFFCURVE",
"328 402 CURVE SMOOTH",
"190 402 LINE",
"190 348 LINE",
"318 348 LINE SMOOTH",
"461 348 OFFCURVE",
"512 292 OFFCURVE",
"512 199 CURVE SMOOTH",
"512 96 OFFCURVE",
"459 52 OFFCURVE",
"341 52 CURVE SMOOTH",
"244 52 LINE"
);
},
{
closed = 1;
nodes = (
"454 358 LINE",
"454 393 LINE",
"422 393 LINE",
"422 358 LINE"
);
}
);
width = 700;
},
{
layerId = "F6C816F3-9BC2-4509-B825-E49BED503D7A";
paths = (
{
closed = 1;
nodes = (
"17 652 OFFCURVE",
"27 625 OFFCURVE",
"54 625 CURVE",
"68 625 OFFCURVE",
"90 615 OFFCURVE",
"102 604 CURVE",
"123 583 LINE",
"124 330 LINE",
"125 61 OFFCURVE",
"120 39 OFFCURVE",
"59 39 CURVE",
"34 39 OFFCURVE",
"26 33 OFFCURVE",
"29 15 CURVE",
"34 -10 LINE",
"222 -12 LINE",
"355 -14 OFFCURVE",
"429 -9 OFFCURVE",
"475 6 CURVE",
"655 63 OFFCURVE",
"679 241 OFFCURVE",
"518 323 CURVE",
"473 347 LINE",
"523 391 LINE",
"587 446 OFFCURVE",
"601 483 OFFCURVE",
"583 547 CURVE",
"573 582 OFFCURVE",
"552 609 OFFCURVE",
"514 634 CURVE",
"459 671 LINE",
"252 676 LINE",
"139 679 OFFCURVE",
"42 677 OFFCURVE",
"37 672 CURVE"
);
},
{
closed = 1;
nodes = (
"453 568 OFFCURVE",
"462 549 OFFCURVE",
"462 509 CURVE",
"462 446 OFFCURVE",
"428 390 OFFCURVE",
"386 382 CURVE",
"235 352 OFFCURVE",
"230 355 OFFCURVE",
"233 494 CURVE",
"235 563 OFFCURVE",
"242 606 OFFCURVE",
"253 613 CURVE",
"290 636 OFFCURVE",
"382 625 OFFCURVE",
"422 593 CURVE"
);
},
{
closed = 1;
nodes = (
"526 199 OFFCURVE",
"510 99 OFFCURVE",
"416 61 CURVE",
"357 38 OFFCURVE",
"282 33 OFFCURVE",
"254 50 CURVE",
"239 60 OFFCURVE",
"228 197 OFFCURVE",
"234 295 CURVE",
"236 321 LINE",
"415 310 LINE",
"450 275 LINE"
);
}
);
width = 700;
},
{
layerId = "8BBD64F6-C2DD-426A-A806-28AAAAE0677A";
paths = (
{
closed = 1;
nodes = (
"17 652 OFFCURVE",
"27 625 OFFCURVE",
"54 625 CURVE",
"68 625 OFFCURVE",
"90 615 OFFCURVE",
"102 604 CURVE",
"123 583 LINE",
"124 330 LINE",
"125 61 OFFCURVE",
"120 39 OFFCURVE",
"59 39 CURVE",
"34 39 OFFCURVE",
"26 33 OFFCURVE",
"29 15 CURVE",
"34 -10 LINE",
"222 -12 LINE",
"355 -14 OFFCURVE",
"429 -9 OFFCURVE",
"475 6 CURVE",
"655 63 OFFCURVE",
"679 241 OFFCURVE",
"518 323 CURVE",
"473 347 LINE",
"523 391 LINE",
"587 446 OFFCURVE",
"601 483 OFFCURVE",
"583 547 CURVE",
"573 582 OFFCURVE",
"552 609 OFFCURVE",
"514 634 CURVE",
"459 671 LINE",
"252 676 LINE",
"139 679 OFFCURVE",
"42 677 OFFCURVE",
"37 672 CURVE"
);
},
{
closed = 1;
nodes = (
"453 568 OFFCURVE",
"462 549 OFFCURVE",
"462 509 CURVE",
"462 446 OFFCURVE",
"428 390 OFFCURVE",
"386 382 CURVE",
"235 352 OFFCURVE",
"230 355 OFFCURVE",
"233 494 CURVE",
"235 563 OFFCURVE",
"242 606 OFFCURVE",
"253 613 CURVE",
"290 636 OFFCURVE",
"382 625 OFFCURVE",
"422 593 CURVE"
);
},
{
closed = 1;
nodes = (
"526 199 OFFCURVE",
"510 99 OFFCURVE",
"416 61 CURVE",
"357 38 OFFCURVE",
"282 33 OFFCURVE",
"254 50 CURVE",
"239 60 OFFCURVE",
"228 197 OFFCURVE",
"234 295 CURVE",
"236 321 LINE",
"415 310 LINE",
"450 275 LINE"
);
}
);
width = 700;
},
{
background = {
paths = (
{
closed = 1;
nodes = (
"5 0 LINE",
"5 1170 LINE",
"-5 1170 LINE",
"-5 0 LINE"
);
}
);
};
layerId = "664CC791-0498-4EB7-B1D0-E1FFFC98853E";
paths = (
{
closed = 1;
nodes = (
"40 701 OFFCURVE",
"56 678 OFFCURVE",
"95 678 CURVE",
"118 678 OFFCURVE",
"140 671 OFFCURVE",
"145 663 CURVE",
"150 655 OFFCURVE",
"153 568 OFFCURVE",
"152 471 CURVE",
"150 374 OFFCURVE",
"149 244 OFFCURVE",
"149 182 CURVE",
"150 62 OFFCURVE",
"138 36 OFFCURVE",
"87 36 CURVE",
"57 36 OFFCURVE",
"37 -4 OFFCURVE",
"64 -8 CURVE",
"157 -21 OFFCURVE",
"437 -15 OFFCURVE",
"494 1 CURVE",
"604 32 OFFCURVE",
"665 120 OFFCURVE",
"645 220 CURVE",
"636 264 OFFCURVE",
"551 357 OFFCURVE",
"519 357 CURVE",
"490 357 OFFCURVE",
"497 396 OFFCURVE",
"528 405 CURVE",
"574 420 OFFCURVE",
"612 481 OFFCURVE",
"612 541 CURVE",
"612 615 OFFCURVE",
"595 642 OFFCURVE",
"523 685 CURVE",
"462 720 LINE",
"268 727 LINE",
"161 731 OFFCURVE",
"69 730 OFFCURVE",
"64 725 CURVE"
);
},
{
closed = 1;
nodes = (
"515 569 OFFCURVE",
"514 493 OFFCURVE",
"460 439 CURVE",
"419 398 LINE",
"341 398 LINE",
"289 398 OFFCURVE",
"263 404 OFFCURVE",
"262 416 CURVE",
"257 512 OFFCURVE",
"268 658 OFFCURVE",
"282 668 CURVE",
"291 674 OFFCURVE",
"328 676 OFFCURVE",
"363 673 CURVE",
"414 669 OFFCURVE",
"436 659 OFFCURVE",
"464 627 CURVE"
);
},
{
closed = 1;
nodes = (
"536 275 OFFCURVE",
"558 147 OFFCURVE",
"488 76 CURVE",
"447 36 LINE",
"263 36 LINE",
"263 187 LINE",
"263 270 OFFCURVE",
"267 342 OFFCURVE",
"272 347 CURVE",
"285 360 OFFCURVE",
"404 342 OFFCURVE",
"446 320 CURVE"
);
}
);
width = 700;
},
{
layerId = "9F6891F3-FE19-4DFC-8FDB-D5777C380353";
paths = (
{
closed = 1;
nodes = (
"17 652 OFFCURVE",
"27 625 OFFCURVE",
"54 625 CURVE",
"68 625 OFFCURVE",
"90 615 OFFCURVE",
"102 604 CURVE",
"123 583 LINE",
"124 330 LINE",
"125 61 OFFCURVE",
"120 39 OFFCURVE",
"59 39 CURVE",
"34 39 OFFCURVE",
"26 33 OFFCURVE",
"29 15 CURVE",
"34 -10 LINE",
"222 -12 LINE",
"355 -14 OFFCURVE",
"429 -9 OFFCURVE",
"475 6 CURVE",
"655 63 OFFCURVE",
"679 241 OFFCURVE",
"518 323 CURVE",
"473 347 LINE",
"523 391 LINE",
"587 446 OFFCURVE",
"601 483 OFFCURVE",
"583 547 CURVE",
"573 582 OFFCURVE",
"552 609 OFFCURVE",
"514 634 CURVE",
"459 671 LINE",
"252 676 LINE",
"139 679 OFFCURVE",
"42 677 OFFCURVE",
"37 672 CURVE"
);
},
{
closed = 1;
nodes = (
"453 568 OFFCURVE",
"462 549 OFFCURVE",
"462 509 CURVE",
"462 446 OFFCURVE",
"428 390 OFFCURVE",
"386 382 CURVE",
"235 352 OFFCURVE",
"230 355 OFFCURVE",
"233 494 CURVE",
"235 563 OFFCURVE",
"242 606 OFFCURVE",
"253 613 CURVE",
"290 636 OFFCURVE",
"382 625 OFFCURVE",
"422 593 CURVE"
);
},
{
closed = 1;
nodes = (
"526 199 OFFCURVE",
"510 99 OFFCURVE",
"416 61 CURVE",
"357 38 OFFCURVE",
"282 33 OFFCURVE",
"254 50 CURVE",
"239 60 OFFCURVE",
"228 197 OFFCURVE",
"234 295 CURVE",
"236 321 LINE",
"415 310 LINE",
"450 275 LINE"
);
}
);
width = 700;
},
{
associatedMasterId = "2EA6C462-E43A-4553-9036-03D60599BBF6";
background = {
paths = (
{
closed = 1;
nodes = (
"642 257 OFFCURVE",
"599 325 OFFCURVE",
"540 349 CURVE SMOOTH",
"518 358 OFFCURVE",
"489 366 OFFCURVE",
"453 372 CURVE SMOOTH",
"428 376 LINE",
"533 385 OFFCURVE",
"607 455 OFFCURVE",
"607 547 CURVE SMOOTH",
"607 606 OFFCURVE",
"568 665 OFFCURVE",
"510 691 CURVE SMOOTH",
"462 713 OFFCURVE",
"418 720 OFFCURVE",
"320 720 CURVE SMOOTH",
"33 720 LINE",
"33 679 LINE",
"59 678 LINE SMOOTH",
"115 676 OFFCURVE",
"127 674 OFFCURVE",
"132 668 CURVE SMOOTH",
"138 661 OFFCURVE",
"139 659 OFFCURVE",
"139 618 CURVE SMOOTH",
"139 574 LINE",
"139 146 LINE",
"139 102 LINE SMOOTH",
"139 62 OFFCURVE",
"138 59 OFFCURVE",
"132 53 CURVE SMOOTH",
"129 50 OFFCURVE",
"124 48 OFFCURVE",
"116 46 CURVE SMOOTH",
"104 43 OFFCURVE",
"93 45 OFFCURVE",
"59 42 CURVE SMOOTH",
"33 40 LINE",
"33 0 LINE",
"361 0 LINE SMOOTH",
"445 0 OFFCURVE",
"499 10 OFFCURVE",
"546 35 CURVE SMOOTH",
"607 67 OFFCURVE",
"642 124 OFFCURVE",
"642 190 CURVE SMOOTH"
);
},
{
closed = 1;
nodes = (
"494 473 OFFCURVE",
"475 431 OFFCURVE",
"437 413 CURVE SMOOTH",
"408 399 OFFCURVE",
"379 394 OFFCURVE",
"316 394 CURVE SMOOTH",
"241 394 LINE",
"241 610 LINE",
"241 637 LINE SMOOTH",
"241 673 OFFCURVE",
"245 676 OFFCURVE",
"293 676 CURVE SMOOTH",
"347 676 LINE SMOOTH",
"454 676 OFFCURVE",
"494 636 OFFCURVE",
"494 535 CURVE SMOOTH"
);
},
{
closed = 1;
nodes = (
"526 111 OFFCURVE",
"494 64 OFFCURVE",
"433 51 CURVE SMOOTH",
"405 45 OFFCURVE",
"374 43 OFFCURVE",
"319 43 CURVE SMOOTH",
"246 43 OFFCURVE",
"241 44 OFFCURVE",
"241 78 CURVE SMOOTH",
"241 112 LINE",
"241 148 LINE",
"241 348 LINE",
"307 348 LINE SMOOTH",
"404 348 OFFCURVE",
"433 344 OFFCURVE",
"467 322 CURVE SMOOTH",
"487 309 OFFCURVE",
"501 293 OFFCURVE",
"510 271 CURVE SMOOTH",
"519 248 OFFCURVE",
"526 223 OFFCURVE",
"526 193 CURVE SMOOTH"
);
}
);
};
color = 4;
hints = (
{
origin = "{0, 16}";
scale = "{1.44, -1.08}";
type = Corner;
name = _corner.serif.lc.foot;
},
{
origin = "{0, 17}";
scale = "{1.44, 1.08}";
type = Corner;
name = _corner.serif.lc.foot;
},
{
origin = "{1, 0}";
type = Corner;
name = _corner.uc.inside;
},
{
origin = "{1, 17}";
type = Corner;
name = _corner.uc.inside;
}
);
layerId = "388595E9-2C98-4ECB-859D-AAEC9FFCBDB9";
name = "Jun 24 19, 16:24";
paths = (
{
closed = 1;
nodes = (
"345 0 LINE SMOOTH",
"529 0 OFFCURVE",
"634 76 OFFCURVE",
"634 192 CURVE SMOOTH",
"634 309 OFFCURVE",
"511 389 OFFCURVE",
"357 389 CURVE SMOOTH",
"305 389 LINE",
"305 371 LINE",
"330 371 LINE SMOOTH",
"491 371 OFFCURVE",
"601 432 OFFCURVE",
"601 545 CURVE SMOOTH",
"601 659 OFFCURVE",
"490 720 OFFCURVE",
"323 720 CURVE SMOOTH",
"136 720 LINE",
"136 0 LINE"
);
},
{
closed = 1;
nodes = (
"244 668 LINE",
"326 668 LINE SMOOTH",
"424 668 OFFCURVE",
"479 618 OFFCURVE",
"479 539 CURVE SMOOTH",
"479 460 OFFCURVE",
"423 405 OFFCURVE",
"328 405 CURVE SMOOTH",
"207 405 LINE",
"207 353 LINE",
"339 353 LINE SMOOTH",
"450 353 OFFCURVE",
"512 291 OFFCURVE",
"512 196 CURVE SMOOTH",
"512 101 OFFCURVE",
"450 52 OFFCURVE",
"344 52 CURVE SMOOTH",
"244 52 LINE"
);
},
{
closed = 1;
nodes = (
"449 362 LINE",
"449 397 LINE",
"417 397 LINE",
"417 362 LINE"
);
}
);
width = 700;
}
);
leftKerningGroup = H;
rightKerningGroup = B;
unicode = 0042;
},
{
glyphname = C;
layers = (
{
layerId = "87410FD4-54DA-4328-9944-625314575885";
paths = (
{
closed = 1;
nodes = (
"241 718 OFFCURVE",
"162 662 OFFCURVE",
"119 599 CURVE",
"71 530 OFFCURVE",
"36 397 OFFCURVE",
"46 323 CURVE",
"69 152 OFFCURVE",
"112 73 OFFCURVE",
"214 13 CURVE",
"285 -28 OFFCURVE",
"409 -35 OFFCURVE",
"488 -2 CURVE",
"551 25 OFFCURVE",
"637 131 OFFCURVE",
"648 196 CURVE",
"656 248 LINE",
"630 243 LINE",
"615 240 OFFCURVE",
"601 224 OFFCURVE",
"599 207 CURVE",
"597 190 OFFCURVE",
"568 146 OFFCURVE",
"535 111 CURVE",
"476 45 LINE",
"318 32 LINE",
"270 80 LINE",
"211 139 OFFCURVE",
"192 205 OFFCURVE",
"192 354 CURVE",
"192 509 OFFCURVE",
"211 580 OFFCURVE",
"270 637 CURVE",
"318 684 LINE",
"470 684 LINE",
"504 651 LINE",
"523 633 OFFCURVE",
"556 579 OFFCURVE",
"577 529 CURVE",
"636 389 OFFCURVE",
"660 412 OFFCURVE",
"645 596 CURVE",
"635 726 OFFCURVE",
"614 763 OFFCURVE",
"578 714 CURVE",
"561 692 LINE",
"488 719 LINE",
"411 749 OFFCURVE",
"381 751 OFFCURVE",
"307 734 CURVE"
);
}
);
width = 700;
},
{
background = {
paths = (
{
closed = 1;
nodes = (
"236 719 OFFCURVE",
"157 663 OFFCURVE",
"114 600 CURVE",
"66 531 OFFCURVE",
"31 398 OFFCURVE",
"41 324 CURVE",
"64 153 OFFCURVE",
"107 74 OFFCURVE",
"209 14 CURVE",
"280 -27 OFFCURVE",
"404 -34 OFFCURVE",
"483 -1 CURVE",
"546 26 OFFCURVE",
"632 132 OFFCURVE",
"643 197 CURVE",
"651 249 LINE",
"625 244 LINE",
"610 241 OFFCURVE",
"596 225 OFFCURVE",
"594 208 CURVE",
"592 191 OFFCURVE",
"563 147 OFFCURVE",
"530 112 CURVE",
"471 46 LINE",
"313 33 LINE",
"265 81 LINE",
"206 140 OFFCURVE",
"187 206 OFFCURVE",
"187 355 CURVE",
"187 510 OFFCURVE",
"206 581 OFFCURVE",
"265 638 CURVE",
"313 685 LINE",
"465 685 LINE",
"499 652 LINE",
"518 634 OFFCURVE",
"551 580 OFFCURVE",
"572 530 CURVE",
"631 390 OFFCURVE",
"655 413 OFFCURVE",
"640 597 CURVE",
"630 727 OFFCURVE",
"609 764 OFFCURVE",
"573 715 CURVE",
"556 693 LINE",
"483 720 LINE",
"406 750 OFFCURVE",
"376 752 OFFCURVE",
"302 735 CURVE"
);
}
);
};
color = 4;
hints = (
{
origin = "{0, 16}";
type = Corner;
name = _corner.round;
},
{
origin = "{0, 15}";
type = Corner;
name = _corner.round;
},
{
origin = "{0, 17}";
type = Corner;
name = _corner.round;
},
{
origin = "{0, 18}";
type = Corner;
name = _corner.round;
},
{
origin = "{0, 3}";
type = Corner;
name = _corner.round;
},
{
origin = "{0, 2}";
type = Corner;
name = _corner.round;
}
);
layerId = "2EA6C462-E43A-4553-9036-03D60599BBF6";
paths = (
{
closed = 1;
nodes = (
"515 -12 OFFCURVE",
"615 82 OFFCURVE",
"657 244 CURVE",
"607 255 LINE",
"562 121 OFFCURVE",
"494 54 OFFCURVE",
"383 54 CURVE SMOOTH",
"236 54 OFFCURVE",
"178 178 OFFCURVE",
"178 360 CURVE SMOOTH",
"178 550 OFFCURVE",
"236 679 OFFCURVE",
"379 679 CURVE SMOOTH",
"500 679 OFFCURVE",
"554 590 OFFCURVE",
"596 456 CURVE",
"642 461 LINE",
"625 720 LINE",
"583 720 LINE",
"548 639 LINE",
"615 579 LINE",
"575 672 OFFCURVE",
"486 732 OFFCURVE",
"374 732 CURVE SMOOTH",
"165 732 OFFCURVE",
"50 572 OFFCURVE",
"50 360 CURVE SMOOTH",
"50 148 OFFCURVE",
"181 -12 OFFCURVE",
"370 -12 CURVE SMOOTH"
);
}
);
width = 700;
},
{
layerId = "F6C816F3-9BC2-4509-B825-E49BED503D7A";
paths = (
{
closed = 1;
nodes = (
"117 640 OFFCURVE",
"28 509 OFFCURVE",
"41 311 CURVE",
"48 207 LINE",
"88 140 LINE",
"162 20 OFFCURVE",
"364 -45 OFFCURVE",
"480 16 CURVE",
"557 57 OFFCURVE",
"657 189 OFFCURVE",
"642 231 CURVE",
"630 263 OFFCURVE",
"596 248 OFFCURVE",
"577 202 CURVE",
"535 102 OFFCURVE",
"461 53 OFFCURVE",
"352 53 CURVE",
"292 53 LINE",
"244 107 LINE",
"217 137 OFFCURVE",
"187 185 OFFCURVE",
"177 214 CURVE",
"157 276 OFFCURVE",
"166 451 OFFCURVE",
"194 533 CURVE",
"212 588 LINE",
"278 622 LINE",
"328 648 OFFCURVE",
"356 654 OFFCURVE",
"393 647 CURVE",
"461 634 OFFCURVE",
"531 569 OFFCURVE",
"560 493 CURVE",
"578 446 OFFCURVE",
"592 430 OFFCURVE",
"613 430 CURVE",
"642 430 LINE",
"633 515 LINE",
"628 562 OFFCURVE",
"624 622 OFFCURVE",
"624 648 CURVE",
"624 701 OFFCURVE",
"595 710 OFFCURVE",
"551 671 CURVE",
"525 647 LINE",
"487 669 LINE",
"440 696 OFFCURVE",
"349 709 OFFCURVE",
"303 695 CURVE"
);
}
);
width = 700;
},
{
layerId = "8BBD64F6-C2DD-426A-A806-28AAAAE0677A";
paths = (
{
closed = 1;
nodes = (
"117 640 OFFCURVE",
"28 509 OFFCURVE",
"41 311 CURVE",
"48 207 LINE",
"88 140 LINE",
"162 20 OFFCURVE",
"364 -45 OFFCURVE",
"480 16 CURVE",
"557 57 OFFCURVE",
"657 189 OFFCURVE",
"642 231 CURVE",
"630 263 OFFCURVE",
"596 248 OFFCURVE",
"577 202 CURVE",
"535 102 OFFCURVE",
"461 53 OFFCURVE",
"352 53 CURVE",
"292 53 LINE",
"244 107 LINE",
"217 137 OFFCURVE",
"187 185 OFFCURVE",
"177 214 CURVE",
"157 276 OFFCURVE",
"166 451 OFFCURVE",
"194 533 CURVE",
"212 588 LINE",
"278 622 LINE",
"328 648 OFFCURVE",
"356 654 OFFCURVE",
"393 647 CURVE",
"461 634 OFFCURVE",
"531 569 OFFCURVE",
"560 493 CURVE",
"578 446 OFFCURVE",
"592 430 OFFCURVE",
"613 430 CURVE",
"642 430 LINE",
"633 515 LINE",
"628 562 OFFCURVE",
"624 622 OFFCURVE",
"624 648 CURVE",
"624 701 OFFCURVE",
"595 710 OFFCURVE",
"551 671 CURVE",
"525 647 LINE",
"487 669 LINE",
"440 696 OFFCURVE",
"349 709 OFFCURVE",
"303 695 CURVE"
);
}
);
width = 700;
},
{
layerId = "664CC791-0498-4EB7-B1D0-E1FFFC98853E";
paths = (
{
closed = 1;
nodes = (
"241 718 OFFCURVE",
"162 662 OFFCURVE",
"119 599 CURVE",
"71 530 OFFCURVE",
"36 397 OFFCURVE",
"46 323 CURVE",
"69 152 OFFCURVE",
"112 73 OFFCURVE",
"214 13 CURVE",
"285 -28 OFFCURVE",
"409 -35 OFFCURVE",
"488 -2 CURVE",
"551 25 OFFCURVE",
"637 131 OFFCURVE",
"648 196 CURVE",
"656 248 LINE",
"630 243 LINE",
"615 240 OFFCURVE",
"601 224 OFFCURVE",
"599 207 CURVE",
"597 190 OFFCURVE",
"568 146 OFFCURVE",
"535 111 CURVE",
"476 45 LINE",
"318 32 LINE",
"270 80 LINE",
"211 139 OFFCURVE",
"192 205 OFFCURVE",
"192 354 CURVE",
"192 509 OFFCURVE",
"211 580 OFFCURVE",
"270 637 CURVE",
"318 684 LINE",
"470 684 LINE",
"504 651 LINE",
"523 633 OFFCURVE",
"556 579 OFFCURVE",
"577 529 CURVE",
"636 389 OFFCURVE",
"660 412 OFFCURVE",
"645 596 CURVE",
"635 726 OFFCURVE",
"614 763 OFFCURVE",
"578 714 CURVE",
"561 692 LINE",
"488 719 LINE",
"411 749 OFFCURVE",
"381 751 OFFCURVE",
"307 734 CURVE"
);
}
);
width = 700;
},
{
layerId = "9F6891F3-FE19-4DFC-8FDB-D5777C380353";
paths = (
{
closed = 1;
nodes = (
"117 640 OFFCURVE",
"28 509 OFFCURVE",
"41 311 CURVE",
"48 207 LINE",
"88 140 LINE",
"162 20 OFFCURVE",
"364 -45 OFFCURVE",
"480 16 CURVE",
"557 57 OFFCURVE",
"657 189 OFFCURVE",
"642 231 CURVE",
"630 263 OFFCURVE",
"596 248 OFFCURVE",
"577 202 CURVE",
"535 102 OFFCURVE",
"461 53 OFFCURVE",
"352 53 CURVE",
"292 53 LINE",
"244 107 LINE",
"217 137 OFFCURVE",
"187 185 OFFCURVE",
"177 214 CURVE",
"157 276 OFFCURVE",
"166 451 OFFCURVE",
"194 533 CURVE",
"212 588 LINE",
"278 622 LINE",
"328 648 OFFCURVE",
"356 654 OFFCURVE",
"393 647 CURVE",
"461 634 OFFCURVE",
"531 569 OFFCURVE",
"560 493 CURVE",
"578 446 OFFCURVE",
"592 430 OFFCURVE",
"613 430 CURVE",
"642 430 LINE",
"633 515 LINE",
"628 562 OFFCURVE",
"624 622 OFFCURVE",
"624 648 CURVE",
"624 701 OFFCURVE",
"595 710 OFFCURVE",
"551 671 CURVE",
"525 647 LINE",
"487 669 LINE",
"440 696 OFFCURVE",
"349 709 OFFCURVE",
"303 695 CURVE"
);
}
);
width = 700;
},
{
associatedMasterId = "2EA6C462-E43A-4553-9036-03D60599BBF6";
layerId = "FFADE052-D1A5-434B-BF1D-7F3E2823CA51";
name = "May 14 19, 16:43";
paths = (
{
closed = 1;
nodes = (
"586 256 LINE",
"573 202 OFFCURVE",
"568 186 OFFCURVE",
"554 155 CURVE SMOOTH",
"542 129 OFFCURVE",
"525 105 OFFCURVE",
"506 86 CURVE SMOOTH",
"470 50 OFFCURVE",
"428 34 OFFCURVE",
"375 34 CURVE SMOOTH",
"243 34 OFFCURVE",
"176 139 OFFCURVE",
"176 346 CURVE SMOOTH",
"176 570 OFFCURVE",
"241 690 OFFCURVE",
"362 690 CURVE SMOOTH",
"443 690 OFFCURVE",
"507 634 OFFCURVE",
"546 529 CURVE SMOOTH",
"556 502 OFFCURVE",
"560 488 OFFCURVE",
"572 436 CURVE",
"610 442 LINE",
"597 726 LINE",
"566 726 LINE",
"530 658 LINE",
"481 711 OFFCURVE",
"428 733 OFFCURVE",
"357 733 CURVE SMOOTH",
"190 733 OFFCURVE",
"53 560 OFFCURVE",
"53 348 CURVE SMOOTH",
"53 141 OFFCURVE",
"185 -15 OFFCURVE",
"364 -15 CURVE SMOOTH",
"464 -15 OFFCURVE",
"545 37 OFFCURVE",
"586 123 CURVE SMOOTH",
"605 163 OFFCURVE",
"612 182 OFFCURVE",
"626 247 CURVE"
);
}
);
visible = 1;
width = 700;
}
);
leftKerningGroup = O;
rightKerningGroup = C;
unicode = 0043;
},
{
glyphname = D;
layers = (
{
layerId = "87410FD4-54DA-4328-9944-625314575885";
paths = (
{
closed = 1;
nodes = (
"38 717 OFFCURVE",
"54 694 OFFCURVE",
"92 687 CURVE",
"134 678 LINE",
"132 402 LINE",
"132 250 OFFCURVE",
"127 111 OFFCURVE",
"121 91 CURVE",
"114 67 OFFCURVE",
"100 55 OFFCURVE",
"73 52 CURVE",
"46 49 OFFCURVE",
"36 41 OFFCURVE",
"39 24 CURVE",
"43 1 LINE",
"491 2 LINE",
"539 25 LINE",
"607 57 OFFCURVE",
"670 129 OFFCURVE",
"699 206 CURVE",
"728 284 OFFCURVE",
"722 473 OFFCURVE",
"688 552 CURVE",
"657 623 OFFCURVE",
"571 703 OFFCURVE",
"505 722 CURVE",
"447 739 OFFCURVE",
"72 751 OFFCURVE",
"58 737 CURVE"
);
},
{
closed = 1;
nodes = (
"441 670 OFFCURVE",
"449 664 OFFCURVE",
"459 664 CURVE",
"493 664 OFFCURVE",
"551 588 OFFCURVE",
"565 524 CURVE",
"584 444 OFFCURVE",
"584 297 OFFCURVE",
"565 217 CURVE",
"540 107 OFFCURVE",
"462 49 OFFCURVE",
"337 49 CURVE",
"278 49 OFFCURVE",
"257 55 OFFCURVE",
"248 74 CURVE",
"234 100 OFFCURVE",
"239 656 OFFCURVE",
"253 678 CURVE",
"264 696 OFFCURVE",
"441 696 OFFCURVE",
"441 678 CURVE"
);
}
);
width = 800;
},
{
background = {
paths = (
{
closed = 1;
nodes = (
"42 709 OFFCURVE",
"58 686 OFFCURVE",
"96 679 CURVE",
"138 670 LINE",
"136 394 LINE",
"136 242 OFFCURVE",
"131 103 OFFCURVE",
"125 83 CURVE",
"118 59 OFFCURVE",
"104 47 OFFCURVE",
"77 44 CURVE",
"50 41 OFFCURVE",
"40 33 OFFCURVE",
"43 16 CURVE",
"47 -7 LINE",
"495 -6 LINE",
"543 17 LINE",
"611 49 OFFCURVE",
"674 121 OFFCURVE",
"703 198 CURVE",
"732 276 OFFCURVE",
"726 465 OFFCURVE",
"692 544 CURVE",
"661 615 OFFCURVE",
"575 695 OFFCURVE",
"509 714 CURVE",
"451 731 OFFCURVE",
"76 743 OFFCURVE",
"62 729 CURVE"
);
},
{
closed = 1;
nodes = (
"445 662 OFFCURVE",
"453 656 OFFCURVE",
"463 656 CURVE",
"497 656 OFFCURVE",
"555 580 OFFCURVE",
"569 516 CURVE",
"588 436 OFFCURVE",
"588 289 OFFCURVE",
"569 209 CURVE",
"544 99 OFFCURVE",
"466 41 OFFCURVE",
"341 41 CURVE",
"282 41 OFFCURVE",
"261 47 OFFCURVE",
"252 66 CURVE",
"238 92 OFFCURVE",
"243 648 OFFCURVE",
"257 670 CURVE",
"268 688 OFFCURVE",
"445 688 OFFCURVE",
"445 670 CURVE"
);
}
);
};
color = 4;
hints = (
{
origin = "{0, 7}";
scale = "{1.44, -1.08}";
type = Corner;
name = _corner.serif.lc.foot;
},
{
origin = "{0, 8}";
scale = "{1.44, 1.08}";
type = Corner;
name = _corner.serif.lc.foot;
},
{
origin = "{1, 8}";
type = Corner;
name = _corner.uc.inside;
},
{
origin = "{1, 0}";
type = Corner;
name = _corner.uc.inside;
}
);
layerId = "2EA6C462-E43A-4553-9036-03D60599BBF6";
paths = (
{
closed = 1;
nodes = (
"376 0 LINE SMOOTH",
"579 0 OFFCURVE",
"718 120 OFFCURVE",
"718 360 CURVE SMOOTH",
"718 600 OFFCURVE",
"586 720 OFFCURVE",
"375 720 CURVE SMOOTH",
"136 720 LINE",
"136 0 LINE"
);
},
{
closed = 1;
nodes = (
"244 668 LINE",
"369 668 LINE SMOOTH",
"529 668 OFFCURVE",
"590 567 OFFCURVE",
"590 360 CURVE SMOOTH",
"590 153 OFFCURVE",
"527 52 OFFCURVE",
"372 52 CURVE SMOOTH",
"244 52 LINE"
);
}
);
width = 800;
},
{
layerId = "F6C816F3-9BC2-4509-B825-E49BED503D7A";
paths = (
{
closed = 1;
nodes = (
"26 653 OFFCURVE",
"36 639 OFFCURVE",
"84 619 CURVE",
"133 598 LINE",
"134 441 LINE",
"134 354 OFFCURVE",
"135 237 OFFCURVE",
"136 181 CURVE",
"137 76 OFFCURVE",
"131 59 OFFCURVE",
"84 51 CURVE",
"67 48 OFFCURVE",
"56 35 OFFCURVE",
"56 18 CURVE",
"56 -10 LINE",
"251 -13 LINE",
"479 -17 OFFCURVE",
"542 -4 OFFCURVE",
"621 63 CURVE",
"697 129 OFFCURVE",
"720 177 OFFCURVE",
"729 298 CURVE",
"741 460 OFFCURVE",
"683 577 OFFCURVE",
"560 642 CURVE",
"502 673 LINE",
"279 677 LINE",
"156 680 OFFCURVE",
"50 677 OFFCURVE",
"45 672 CURVE"
);
},
{
closed = 1;
nodes = (
"539 576 OFFCURVE",
"559 546 OFFCURVE",
"586 434 CURVE",
"610 334 LINE",
"595 246 LINE",
"578 148 OFFCURVE",
"547 97 OFFCURVE",
"489 69 CURVE",
"441 45 OFFCURVE",
"300 33 OFFCURVE",
"274 51 CURVE",
"255 64 LINE",
"253 331 LINE",
"251 598 LINE",
"272 611 LINE",
"304 631 OFFCURVE",
"416 627 OFFCURVE",
"470 605 CURVE"
);
}
);
width = 800;
},
{
layerId = "8BBD64F6-C2DD-426A-A806-28AAAAE0677A";
paths = (
{
closed = 1;
nodes = (
"26 653 OFFCURVE",
"36 639 OFFCURVE",
"84 619 CURVE",
"133 598 LINE",
"134 441 LINE",
"134 354 OFFCURVE",
"135 237 OFFCURVE",
"136 181 CURVE",
"137 76 OFFCURVE",
"131 59 OFFCURVE",
"84 51 CURVE",
"67 48 OFFCURVE",
"56 35 OFFCURVE",
"56 18 CURVE",
"56 -10 LINE",
"251 -13 LINE",
"479 -17 OFFCURVE",
"542 -4 OFFCURVE",
"621 63 CURVE",
"697 129 OFFCURVE",
"720 177 OFFCURVE",
"729 298 CURVE",
"741 460 OFFCURVE",
"683 577 OFFCURVE",
"560 642 CURVE",
"502 673 LINE",
"279 677 LINE",
"156 680 OFFCURVE",
"50 677 OFFCURVE",
"45 672 CURVE"
);
},
{
closed = 1;
nodes = (
"539 576 OFFCURVE",
"559 546 OFFCURVE",
"586 434 CURVE",
"610 334 LINE",
"595 246 LINE",
"578 148 OFFCURVE",
"547 97 OFFCURVE",
"489 69 CURVE",
"441 45 OFFCURVE",
"300 33 OFFCURVE",
"274 51 CURVE",
"255 64 LINE",
"253 331 LINE",
"251 598 LINE",
"272 611 LINE",
"304 631 OFFCURVE",
"416 627 OFFCURVE",
"470 605 CURVE"
);
}
);
width = 800;
},
{
layerId = "664CC791-0498-4EB7-B1D0-E1FFFC98853E";
paths = (
{
closed = 1;
nodes = (
"38 717 OFFCURVE",
"54 694 OFFCURVE",
"92 687 CURVE",
"134 678 LINE",
"132 402 LINE",
"132 250 OFFCURVE",
"127 111 OFFCURVE",
"121 91 CURVE",
"114 67 OFFCURVE",
"100 55 OFFCURVE",
"73 52 CURVE",
"46 49 OFFCURVE",
"36 41 OFFCURVE",
"39 24 CURVE",
"43 1 LINE",
"491 2 LINE",
"539 25 LINE",
"607 57 OFFCURVE",
"670 129 OFFCURVE",
"699 206 CURVE",
"728 284 OFFCURVE",
"722 473 OFFCURVE",
"688 552 CURVE",
"657 623 OFFCURVE",
"571 703 OFFCURVE",
"505 722 CURVE",
"447 739 OFFCURVE",
"72 751 OFFCURVE",
"58 737 CURVE"
);
},
{
closed = 1;
nodes = (
"441 670 OFFCURVE",
"449 664 OFFCURVE",
"459 664 CURVE",
"493 664 OFFCURVE",
"551 588 OFFCURVE",
"565 524 CURVE",
"584 444 OFFCURVE",
"584 297 OFFCURVE",
"565 217 CURVE",
"540 107 OFFCURVE",
"462 49 OFFCURVE",
"337 49 CURVE",
"278 49 OFFCURVE",
"257 55 OFFCURVE",
"248 74 CURVE",
"234 100 OFFCURVE",
"239 656 OFFCURVE",
"253 678 CURVE",
"264 696 OFFCURVE",
"441 696 OFFCURVE",
"441 678 CURVE"
);
}
);
width = 800;
},
{
layerId = "9F6891F3-FE19-4DFC-8FDB-D5777C380353";
paths = (
{
closed = 1;
nodes = (
"26 653 OFFCURVE",
"36 639 OFFCURVE",
"84 619 CURVE",
"133 598 LINE",
"134 441 LINE",
"134 354 OFFCURVE",
"135 237 OFFCURVE",
"136 181 CURVE",
"137 76 OFFCURVE",
"131 59 OFFCURVE",
"84 51 CURVE",
"67 48 OFFCURVE",
"56 35 OFFCURVE",
"56 18 CURVE",
"56 -10 LINE",
"251 -13 LINE",
"479 -17 OFFCURVE",
"542 -4 OFFCURVE",
"621 63 CURVE",
"697 129 OFFCURVE",
"720 177 OFFCURVE",
"729 298 CURVE",
"741 460 OFFCURVE",
"683 577 OFFCURVE",
"560 642 CURVE",
"502 673 LINE",
"279 677 LINE",
"156 680 OFFCURVE",
"50 677 OFFCURVE",
"45 672 CURVE"
);
},
{
closed = 1;
nodes = (
"539 576 OFFCURVE",
"559 546 OFFCURVE",
"586 434 CURVE",
"610 334 LINE",
"595 246 LINE",
"578 148 OFFCURVE",
"547 97 OFFCURVE",
"489 69 CURVE",
"441 45 OFFCURVE",
"300 33 OFFCURVE",
"274 51 CURVE",
"255 64 LINE",
"253 331 LINE",
"251 598 LINE",
"272 611 LINE",
"304 631 OFFCURVE",
"416 627 OFFCURVE",
"470 605 CURVE"
);
}
);
width = 800;
}
);
leftKerningGroup = H;
rightKerningGroup = O;
unicode = 0044;
},
{
glyphname = E;
layers = (
{
layerId = "87410FD4-54DA-4328-9944-625314575885";
paths = (
{
closed = 1;
nodes = (
"60 712 LINE",
"60 700 OFFCURVE",
"77 684 OFFCURVE",
"98 677 CURVE",
"137 663 LINE",
"140 373 LINE",
"141 214 OFFCURVE",
"137 77 OFFCURVE",
"132 70 CURVE",
"127 62 OFFCURVE",
"105 48 OFFCURVE",
"83 38 CURVE",
"43 21 LINE",
"77 -20 LINE",
"344 -18 LINE",
"497 -17 OFFCURVE",
"618 -11 OFFCURVE",
"629 -3 CURVE",
"640 6 OFFCURVE",
"646 53 OFFCURVE",
"646 136 CURVE",
"646 261 LINE",
"622 256 LINE",
"604 253 OFFCURVE",
"595 234 OFFCURVE",
"589 192 CURVE",
"580 122 OFFCURVE",
"538 61 OFFCURVE",
"491 48 CURVE",
"440 33 OFFCURVE",
"307 34 OFFCURVE",
"283 49 CURVE",
"267 59 OFFCURVE",
"262 93 OFFCURVE",
"262 199 CURVE",
"262 336 LINE",
"374 336 LINE",
"401 276 LINE",
"444 185 OFFCURVE",
"477 200 OFFCURVE",
"471 308 CURVE",
"469 338 OFFCURVE",
"467 400 OFFCURVE",
"466 445 CURVE",
"464 526 LINE",
"442 522 LINE",
"429 519 OFFCURVE",
"412 495 OFFCURVE",
"403 469 CURVE",
"388 420 LINE",
"339 410 LINE",
"260 393 OFFCURVE",
"255 399 OFFCURVE",
"255 530 CURVE",
"255 649 LINE",
"286 669 LINE",
"324 694 OFFCURVE",
"461 689 OFFCURVE",
"504 662 CURVE",
"520 652 OFFCURVE",
"549 607 OFFCURVE",
"569 561 CURVE",
"597 498 OFFCURVE",
"609 483 OFFCURVE",
"623 494 CURVE",
"643 511 OFFCURVE",
"638 667 OFFCURVE",
"616 709 CURVE",
"603 734 LINE",
"60 734 LINE"
);
}
);
width = 700;
},
{
background = {
paths = (
{
closed = 1;
nodes = (
"50 714 LINE",
"50 702 OFFCURVE",
"67 686 OFFCURVE",
"88 679 CURVE",
"127 665 LINE",
"130 375 LINE",
"131 216 OFFCURVE",
"127 79 OFFCURVE",
"122 72 CURVE",
"117 64 OFFCURVE",
"95 50 OFFCURVE",
"73 40 CURVE",
"33 23 LINE",
"67 -18 LINE",
"334 -16 LINE",
"487 -15 OFFCURVE",
"608 -9 OFFCURVE",
"619 -1 CURVE",
"630 8 OFFCURVE",
"636 55 OFFCURVE",
"636 138 CURVE",
"636 263 LINE",
"612 258 LINE",
"594 255 OFFCURVE",
"585 236 OFFCURVE",
"579 194 CURVE",
"570 124 OFFCURVE",
"528 63 OFFCURVE",
"481 50 CURVE",
"430 35 OFFCURVE",
"297 36 OFFCURVE",
"273 51 CURVE",
"257 61 OFFCURVE",
"252 95 OFFCURVE",
"252 201 CURVE",
"252 338 LINE",
"364 338 LINE",
"391 278 LINE",
"434 187 OFFCURVE",
"467 202 OFFCURVE",
"461 310 CURVE",
"459 340 OFFCURVE",
"457 402 OFFCURVE",
"456 447 CURVE",
"454 528 LINE",
"432 524 LINE",
"419 521 OFFCURVE",
"402 497 OFFCURVE",
"393 471 CURVE",
"378 422 LINE",
"329 412 LINE",
"250 395 OFFCURVE",
"245 401 OFFCURVE",
"245 532 CURVE",
"245 651 LINE",
"276 671 LINE",
"314 696 OFFCURVE",
"451 691 OFFCURVE",
"494 664 CURVE",
"510 654 OFFCURVE",
"539 609 OFFCURVE",
"559 563 CURVE",
"587 500 OFFCURVE",
"599 485 OFFCURVE",
"613 496 CURVE",
"633 513 OFFCURVE",
"628 669 OFFCURVE",
"606 711 CURVE",
"593 736 LINE",
"50 736 LINE"
);
}
);
};
color = 4;
hints = (
{
origin = "{0, 14}";
scale = "{1.44, -1.08}";
type = Corner;
name = _corner.serif.lc.foot;
},
{
origin = "{0, 15}";
scale = "{1.44, 1.08}";
type = Corner;
name = _corner.serif.lc.foot;
},
{
origin = "{0, 7}";
type = Corner;
name = _corner.uc.inside;
},
{
origin = "{0, 6}";
type = Corner;
name = _corner.uc.inside;
},
{
origin = "{0, 2}";
type = Corner;
name = _corner.round;
},
{
origin = "{0, 1}";
type = Corner;
name = _corner.round;
},
{
origin = "{0, 0}";
type = Corner;
name = _corner.round;
},
{
origin = "{0, 11}";
type = Corner;
name = _corner.round;
},
{
origin = "{0, 12}";
type = Corner;
name = _corner.round;
},
{
origin = "{0, 13}";
type = Corner;
name = _corner.round;
},
{
origin = "{1, 1}";
type = Corner;
name = _corner.round;
},
{
origin = "{1, 2}";
type = Corner;
name = _corner.round;
},
{
origin = "{1, 0}";
type = Corner;
name = _corner.round;
},
{
origin = "{1, 11}";
type = Corner;
name = _corner.round;
}
);
layerId = "2EA6C462-E43A-4553-9036-03D60599BBF6";
paths = (
{
closed = 1;
nodes = (
"632 0 LINE",
"640 269 LINE",
"590 271 LINE",
"574 107 OFFCURVE",
"518 52 OFFCURVE",
"385 52 CURVE SMOOTH",
"244 52 LINE",
"244 668 LINE",
"362 668 LINE SMOOTH",
"519 668 OFFCURVE",
"560 599 OFFCURVE",
"583 484 CURVE",
"632 488 LINE",
"614 720 LINE",
"136 720 LINE",
"136 0 LINE"
);
},
{
closed = 1;
nodes = (
"460 219 LINE",
"460 527 LINE",
"410 527 LINE",
"403 433 OFFCURVE",
"389 398 OFFCURVE",
"311 398 CURVE SMOOTH",
"190 398 LINE",
"190 346 LINE",
"311 346 LINE SMOOTH",
"389 346 OFFCURVE",
"403 315 OFFCURVE",
"410 219 CURVE"
);
}
);
width = 700;
},
{
layerId = "F6C816F3-9BC2-4509-B825-E49BED503D7A";
paths = (
{
closed = 1;
nodes = (
"44 680 LINE",
"44 653 LINE",
"44 635 OFFCURVE",
"56 625 OFFCURVE",
"82 622 CURVE",
"133 616 OFFCURVE",
"138 590 OFFCURVE",
"140 307 CURVE",
"142 68 LINE",
"96 56 LINE",
"40 41 OFFCURVE",
"37 7 OFFCURVE",
"91 -3 CURVE",
"152 -13 OFFCURVE",
"612 3 OFFCURVE",
"625 16 CURVE",
"642 33 OFFCURVE",
"649 262 OFFCURVE",
"633 262 CURVE",
"611 262 OFFCURVE",
"589 228 OFFCURVE",
"580 183 CURVE",
"575 160 OFFCURVE",
"556 123 OFFCURVE",
"537 101 CURVE",
"504 62 LINE",
"268 50 LINE",
"258 74 LINE",
"253 87 OFFCURVE",
"250 136 OFFCURVE",
"250 183 CURVE",
"251 326 OFFCURVE",
"248 318 OFFCURVE",
"307 318 CURVE",
"364 318 OFFCURVE",
"396 294 OFFCURVE",
"413 238 CURVE",
"418 221 OFFCURVE",
"431 206 OFFCURVE",
"441 206 CURVE",
"477 206 OFFCURVE",
"474 484 OFFCURVE",
"437 496 CURVE",
"427 500 OFFCURVE",
"411 479 OFFCURVE",
"397 446 CURVE",
"376 390 OFFCURVE",
"351 374 OFFCURVE",
"285 374 CURVE",
"250 374 OFFCURVE",
"250 375 OFFCURVE",
"252 519 CURVE",
"252 564 OFFCURVE",
"258 607 OFFCURVE",
"265 614 CURVE",
"272 622 OFFCURVE",
"314 630 OFFCURVE",
"358 633 CURVE",
"470 641 OFFCURVE",
"524 613 OFFCURVE",
"564 526 CURVE",
"581 488 OFFCURVE",
"603 457 OFFCURVE",
"614 457 CURVE",
"633 457 LINE",
"627 562 LINE",
"623 620 OFFCURVE",
"618 670 OFFCURVE",
"614 672 CURVE",
"603 684 OFFCURVE",
"502 687 OFFCURVE",
"278 684 CURVE"
);
}
);
width = 700;
},
{
layerId = "8BBD64F6-C2DD-426A-A806-28AAAAE0677A";
paths = (
{
closed = 1;
nodes = (
"44 680 LINE",
"44 653 LINE",
"44 635 OFFCURVE",
"56 625 OFFCURVE",
"82 622 CURVE",
"133 616 OFFCURVE",
"138 590 OFFCURVE",
"140 307 CURVE",
"142 68 LINE",
"96 56 LINE",
"40 41 OFFCURVE",
"37 7 OFFCURVE",
"91 -3 CURVE",
"152 -13 OFFCURVE",
"612 3 OFFCURVE",
"625 16 CURVE",
"642 33 OFFCURVE",
"649 262 OFFCURVE",
"633 262 CURVE",
"611 262 OFFCURVE",
"589 228 OFFCURVE",
"580 183 CURVE",
"575 160 OFFCURVE",
"556 123 OFFCURVE",
"537 101 CURVE",
"504 62 LINE",
"268 50 LINE",
"258 74 LINE",
"253 87 OFFCURVE",
"250 136 OFFCURVE",
"250 183 CURVE",
"251 326 OFFCURVE",
"248 318 OFFCURVE",
"307 318 CURVE",
"364 318 OFFCURVE",
"396 294 OFFCURVE",
"413 238 CURVE",
"418 221 OFFCURVE",
"431 206 OFFCURVE",
"441 206 CURVE",
"477 206 OFFCURVE",
"474 484 OFFCURVE",
"437 496 CURVE",
"427 500 OFFCURVE",
"411 479 OFFCURVE",
"397 446 CURVE",
"376 390 OFFCURVE",
"351 374 OFFCURVE",
"285 374 CURVE",
"250 374 OFFCURVE",
"250 375 OFFCURVE",
"252 519 CURVE",
"252 564 OFFCURVE",
"258 607 OFFCURVE",
"265 614 CURVE",
"272 622 OFFCURVE",
"314 630 OFFCURVE",
"358 633 CURVE",
"470 641 OFFCURVE",
"524 613 OFFCURVE",
"564 526 CURVE",
"581 488 OFFCURVE",
"603 457 OFFCURVE",
"614 457 CURVE",
"633 457 LINE",
"627 562 LINE",
"623 620 OFFCURVE",
"618 670 OFFCURVE",
"614 672 CURVE",
"603 684 OFFCURVE",
"502 687 OFFCURVE",
"278 684 CURVE"
);
}
);
width = 700;
},
{
layerId = "664CC791-0498-4EB7-B1D0-E1FFFC98853E";
paths = (
{
closed = 1;
nodes = (
"60 712 LINE",
"60 700 OFFCURVE",
"77 684 OFFCURVE",
"98 677 CURVE",
"137 663 LINE",
"140 373 LINE",
"141 214 OFFCURVE",
"137 77 OFFCURVE",
"132 70 CURVE",
"127 62 OFFCURVE",
"105 48 OFFCURVE",
"83 38 CURVE",
"43 21 LINE",
"77 -20 LINE",
"344 -18 LINE",
"497 -17 OFFCURVE",
"618 -11 OFFCURVE",
"629 -3 CURVE",
"640 6 OFFCURVE",
"646 53 OFFCURVE",
"646 136 CURVE",
"646 261 LINE",
"622 256 LINE",
"604 253 OFFCURVE",
"595 234 OFFCURVE",
"589 192 CURVE",
"580 122 OFFCURVE",
"538 61 OFFCURVE",
"491 48 CURVE",
"440 33 OFFCURVE",
"307 34 OFFCURVE",
"283 49 CURVE",
"267 59 OFFCURVE",
"262 93 OFFCURVE",
"262 199 CURVE",
"262 336 LINE",
"374 336 LINE",
"401 276 LINE",
"444 185 OFFCURVE",
"477 200 OFFCURVE",
"471 308 CURVE",
"469 338 OFFCURVE",
"467 400 OFFCURVE",
"466 445 CURVE",
"464 526 LINE",
"442 522 LINE",
"429 519 OFFCURVE",
"412 495 OFFCURVE",
"403 469 CURVE",
"388 420 LINE",
"339 410 LINE",
"260 393 OFFCURVE",
"255 399 OFFCURVE",
"255 530 CURVE",
"255 649 LINE",
"286 669 LINE",
"324 694 OFFCURVE",
"461 689 OFFCURVE",
"504 662 CURVE",
"520 652 OFFCURVE",
"549 607 OFFCURVE",
"569 561 CURVE",
"597 498 OFFCURVE",
"609 483 OFFCURVE",
"623 494 CURVE",
"643 511 OFFCURVE",
"638 667 OFFCURVE",
"616 709 CURVE",
"603 734 LINE",
"60 734 LINE"
);
}
);
width = 700;
},
{
layerId = "9F6891F3-FE19-4DFC-8FDB-D5777C380353";
paths = (
{
closed = 1;
nodes = (
"44 680 LINE",
"44 653 LINE",
"44 635 OFFCURVE",
"56 625 OFFCURVE",
"82 622 CURVE",
"133 616 OFFCURVE",
"138 590 OFFCURVE",
"140 307 CURVE",
"142 68 LINE",
"96 56 LINE",
"40 41 OFFCURVE",
"37 7 OFFCURVE",
"91 -3 CURVE",
"152 -13 OFFCURVE",
"612 3 OFFCURVE",
"625 16 CURVE",
"642 33 OFFCURVE",
"649 262 OFFCURVE",
"633 262 CURVE",
"611 262 OFFCURVE",
"589 228 OFFCURVE",
"580 183 CURVE",
"575 160 OFFCURVE",
"556 123 OFFCURVE",
"537 101 CURVE",
"504 62 LINE",
"268 50 LINE",
"258 74 LINE",
"253 87 OFFCURVE",
"250 136 OFFCURVE",
"250 183 CURVE",
"251 326 OFFCURVE",
"248 318 OFFCURVE",
"307 318 CURVE",
"364 318 OFFCURVE",
"396 294 OFFCURVE",
"413 238 CURVE",
"418 221 OFFCURVE",
"431 206 OFFCURVE",
"441 206 CURVE",
"477 206 OFFCURVE",
"474 484 OFFCURVE",
"437 496 CURVE",
"427 500 OFFCURVE",
"411 479 OFFCURVE",
"397 446 CURVE",
"376 390 OFFCURVE",
"351 374 OFFCURVE",
"285 374 CURVE",
"250 374 OFFCURVE",
"250 375 OFFCURVE",
"252 519 CURVE",
"252 564 OFFCURVE",
"258 607 OFFCURVE",
"265 614 CURVE",
"272 622 OFFCURVE",
"314 630 OFFCURVE",
"358 633 CURVE",
"470 641 OFFCURVE",
"524 613 OFFCURVE",
"564 526 CURVE",
"581 488 OFFCURVE",
"603 457 OFFCURVE",
"614 457 CURVE",
"633 457 LINE",
"627 562 LINE",
"623 620 OFFCURVE",
"618 670 OFFCURVE",
"614 672 CURVE",
"603 684 OFFCURVE",
"502 687 OFFCURVE",
"278 684 CURVE"
);
}
);
width = 700;
}
);
leftKerningGroup = H;
rightKerningGroup = E;
unicode = 0045;
},
{
glyphname = F;
layers = (
{
layerId = "87410FD4-54DA-4328-9944-625314575885";
paths = (
{
closed = 1;
nodes = (
"77 696 OFFCURVE",
"91 683 OFFCURVE",
"107 680 CURVE",
"122 677 OFFCURVE",
"139 670 OFFCURVE",
"145 665 CURVE",
"154 656 OFFCURVE",
"163 222 OFFCURVE",
"157 88 CURVE",
"155 49 LINE",
"113 40 LINE",
"69 31 OFFCURVE",
"55 -5 OFFCURVE",
"96 -8 CURVE",
"126 -9 OFFCURVE",
"318 -9 OFFCURVE",
"361 -8 CURVE",
"404 -6 OFFCURVE",
"403 36 OFFCURVE",
"360 36 CURVE",
"295 36 OFFCURVE",
"282 61 OFFCURVE",
"280 198 CURVE",
"278 268 OFFCURVE",
"281 332 OFFCURVE",
"286 339 CURVE",
"290 346 OFFCURVE",
"317 352 OFFCURVE",
"345 351 CURVE",
"396 350 LINE",
"421 287 LINE",
"434 252 OFFCURVE",
"454 224 OFFCURVE",
"464 224 CURVE",
"479 224 OFFCURVE",
"483 256 OFFCURVE",
"483 371 CURVE",
"483 485 OFFCURVE",
"479 517 OFFCURVE",
"464 517 CURVE",
"454 517 OFFCURVE",
"435 495 OFFCURVE",
"423 468 CURVE",
"400 419 LINE",
"281 411 LINE",
"281 544 LINE",
"281 641 OFFCURVE",
"286 678 OFFCURVE",
"298 680 CURVE",
"478 702 OFFCURVE",
"572 662 OFFCURVE",
"602 551 CURVE",
"612 517 OFFCURVE",
"625 496 OFFCURVE",
"639 496 CURVE",
"661 496 LINE",
"656 602 LINE",
"652 675 OFFCURVE",
"644 711 OFFCURVE",
"630 720 CURVE",
"618 727 OFFCURVE",
"488 733 OFFCURVE",
"339 733 CURVE",
"70 734 LINE",
"74 709 LINE"
);
}
);
width = 700;
},
{
background = {
paths = (
{
closed = 1;
nodes = (
"47 692 OFFCURVE",
"61 679 OFFCURVE",
"77 676 CURVE",
"92 673 OFFCURVE",
"109 666 OFFCURVE",
"115 661 CURVE",
"124 652 OFFCURVE",
"133 218 OFFCURVE",
"127 84 CURVE",
"125 45 LINE",
"83 36 LINE",
"39 27 OFFCURVE",
"25 -9 OFFCURVE",
"66 -12 CURVE",
"96 -13 OFFCURVE",
"288 -13 OFFCURVE",
"331 -12 CURVE",
"374 -10 OFFCURVE",
"373 32 OFFCURVE",
"330 32 CURVE",
"265 32 OFFCURVE",
"252 57 OFFCURVE",
"250 194 CURVE",
"248 264 OFFCURVE",
"251 328 OFFCURVE",
"256 335 CURVE",
"260 342 OFFCURVE",
"287 348 OFFCURVE",
"315 347 CURVE",
"366 346 LINE",
"391 283 LINE",
"404 248 OFFCURVE",
"424 220 OFFCURVE",
"434 220 CURVE",
"449 220 OFFCURVE",
"453 252 OFFCURVE",
"453 367 CURVE",
"453 481 OFFCURVE",
"449 513 OFFCURVE",
"434 513 CURVE",
"424 513 OFFCURVE",
"405 491 OFFCURVE",
"393 464 CURVE",
"370 415 LINE",
"251 407 LINE",
"251 540 LINE",
"251 637 OFFCURVE",
"256 674 OFFCURVE",
"268 676 CURVE",
"448 698 OFFCURVE",
"542 658 OFFCURVE",
"572 547 CURVE",
"582 513 OFFCURVE",
"595 492 OFFCURVE",
"609 492 CURVE",
"631 492 LINE",
"626 598 LINE",
"622 671 OFFCURVE",
"614 707 OFFCURVE",
"600 716 CURVE",
"588 723 OFFCURVE",
"458 729 OFFCURVE",
"309 729 CURVE",
"40 730 LINE",
"44 705 LINE"
);
}
);
};
color = 4;
hints = (
{
origin = "{0, 1}";
type = Corner;
name = _corner.uc.inside;
},
{
origin = "{0, 5}";
type = Corner;
name = _corner.round;
},
{
origin = "{0, 6}";
type = Corner;
name = _corner.round;
},
{
origin = "{0, 7}";
type = Corner;
name = _corner.round;
},
{
origin = "{0, 8}";
scale = "{1.44, -1.08}";
type = Corner;
name = _corner.serif.lc.foot;
},
{
origin = "{0, 9}";
scale = "{1.44, 1.08}";
type = Corner;
name = _corner.serif.lc.foot;
},
{
origin = "{1, 0}";
type = Corner;
name = _corner.round;
},
{
origin = "{1, 1}";
type = Corner;
name = _corner.round;
},
{
origin = "{1, 2}";
type = Corner;
name = _corner.round;
},
{
origin = "{1, 11}";
type = Corner;
name = _corner.round;
},
{
origin = "{0, 0}";
scale = "{-1.6, 1.08}";
type = Corner;
name = _corner.serif.lc.foot;
}
);
layerId = "2EA6C462-E43A-4553-9036-03D60599BBF6";
paths = (
{
closed = 1;
nodes = (
"244 0 LINE",
"244 668 LINE",
"362 668 LINE SMOOTH",
"519 668 OFFCURVE",
"560 599 OFFCURVE",
"583 484 CURVE",
"632 488 LINE",
"614 720 LINE",
"136 720 LINE",
"136 0 LINE"
);
},
{
closed = 1;
nodes = (
"450 225 LINE",
"450 525 LINE",
"400 525 LINE",
"393 437 OFFCURVE",
"378 404 OFFCURVE",
"301 404 CURVE SMOOTH",
"180 404 LINE",
"180 352 LINE",
"301 352 LINE SMOOTH",
"379 352 OFFCURVE",
"393 321 OFFCURVE",
"400 225 CURVE"
);
}
);
width = 700;
},
{
layerId = "F6C816F3-9BC2-4509-B825-E49BED503D7A";
paths = (
{
closed = 1;
nodes = (
"57 644 OFFCURVE",
"65 635 OFFCURVE",
"103 619 CURVE",
"153 598 LINE",
"155 402 LINE",
"156 295 OFFCURVE",
"158 186 OFFCURVE",
"159 161 CURVE",
"163 94 OFFCURVE",
"144 55 OFFCURVE",
"104 45 CURVE",
"81 39 OFFCURVE",
"69 28 OFFCURVE",
"72 13 CURVE",
"77 -10 LINE",
"369 -10 LINE",
"373 15 LINE",
"377 33 OFFCURVE",
"369 39 OFFCURVE",
"337 39 CURVE",
"274 39 OFFCURVE",
"263 64 OFFCURVE",
"267 194 CURVE",
"271 310 LINE",
"311 314 LINE",
"365 318 OFFCURVE",
"414 283 OFFCURVE",
"425 233 CURVE",
"430 211 OFFCURVE",
"443 192 OFFCURVE",
"454 192 CURVE",
"474 192 OFFCURVE",
"475 198 OFFCURVE",
"476 386 CURVE",
"476 499 OFFCURVE",
"454 526 OFFCURVE",
"423 448 CURVE",
"401 390 LINE",
"348 377 LINE",
"319 369 OFFCURVE",
"288 368 OFFCURVE",
"279 373 CURVE",
"269 380 OFFCURVE",
"265 424 OFFCURVE",
"267 500 CURVE",
"271 618 LINE",
"484 626 LINE",
"527 589 LINE",
"551 569 OFFCURVE",
"578 528 OFFCURVE",
"587 498 CURVE",
"599 460 OFFCURVE",
"611 444 OFFCURVE",
"626 447 CURVE",
"648 451 LINE",
"643 548 LINE",
"640 602 OFFCURVE",
"632 653 OFFCURVE",
"624 663 CURVE",
"604 687 OFFCURVE",
"88 683 OFFCURVE",
"68 658 CURVE"
);
}
);
width = 700;
},
{
layerId = "8BBD64F6-C2DD-426A-A806-28AAAAE0677A";
paths = (
{
closed = 1;
nodes = (
"57 644 OFFCURVE",
"65 635 OFFCURVE",
"103 619 CURVE",
"153 598 LINE",
"155 402 LINE",
"156 295 OFFCURVE",
"158 186 OFFCURVE",
"159 161 CURVE",
"163 94 OFFCURVE",
"144 55 OFFCURVE",
"104 45 CURVE",
"81 39 OFFCURVE",
"69 28 OFFCURVE",
"72 13 CURVE",
"77 -10 LINE",
"369 -10 LINE",
"373 15 LINE",
"377 33 OFFCURVE",
"369 39 OFFCURVE",
"337 39 CURVE",
"274 39 OFFCURVE",
"263 64 OFFCURVE",
"267 194 CURVE",
"271 310 LINE",
"311 314 LINE",
"365 318 OFFCURVE",
"414 283 OFFCURVE",
"425 233 CURVE",
"430 211 OFFCURVE",
"443 192 OFFCURVE",
"454 192 CURVE",
"474 192 OFFCURVE",
"475 198 OFFCURVE",
"476 386 CURVE",
"476 499 OFFCURVE",
"454 526 OFFCURVE",
"423 448 CURVE",
"401 390 LINE",
"348 377 LINE",
"319 369 OFFCURVE",
"288 368 OFFCURVE",
"279 373 CURVE",
"269 380 OFFCURVE",
"265 424 OFFCURVE",
"267 500 CURVE",
"271 618 LINE",
"484 626 LINE",
"527 589 LINE",
"551 569 OFFCURVE",
"578 528 OFFCURVE",
"587 498 CURVE",
"599 460 OFFCURVE",
"611 444 OFFCURVE",
"626 447 CURVE",
"648 451 LINE",
"643 548 LINE",
"640 602 OFFCURVE",
"632 653 OFFCURVE",
"624 663 CURVE",
"604 687 OFFCURVE",
"88 683 OFFCURVE",
"68 658 CURVE"
);
}
);
width = 700;
},
{
layerId = "664CC791-0498-4EB7-B1D0-E1FFFC98853E";
paths = (
{
closed = 1;
nodes = (
"77 696 OFFCURVE",
"91 683 OFFCURVE",
"107 680 CURVE",
"122 677 OFFCURVE",
"139 670 OFFCURVE",
"145 665 CURVE",
"154 656 OFFCURVE",
"163 222 OFFCURVE",
"157 88 CURVE",
"155 49 LINE",
"113 40 LINE",
"69 31 OFFCURVE",
"55 -5 OFFCURVE",
"96 -8 CURVE",
"126 -9 OFFCURVE",
"318 -9 OFFCURVE",
"361 -8 CURVE",
"404 -6 OFFCURVE",
"403 36 OFFCURVE",
"360 36 CURVE",
"295 36 OFFCURVE",
"282 61 OFFCURVE",
"280 198 CURVE",
"278 268 OFFCURVE",
"281 332 OFFCURVE",
"286 339 CURVE",
"290 346 OFFCURVE",
"317 352 OFFCURVE",
"345 351 CURVE",
"396 350 LINE",
"421 287 LINE",
"434 252 OFFCURVE",
"454 224 OFFCURVE",
"464 224 CURVE",
"479 224 OFFCURVE",
"483 256 OFFCURVE",
"483 371 CURVE",
"483 485 OFFCURVE",
"479 517 OFFCURVE",
"464 517 CURVE",
"454 517 OFFCURVE",
"435 495 OFFCURVE",
"423 468 CURVE",
"400 419 LINE",
"281 411 LINE",
"281 544 LINE",
"281 641 OFFCURVE",
"286 678 OFFCURVE",
"298 680 CURVE",
"478 702 OFFCURVE",
"572 662 OFFCURVE",
"602 551 CURVE",
"612 517 OFFCURVE",
"625 496 OFFCURVE",
"639 496 CURVE",
"661 496 LINE",
"656 602 LINE",
"652 675 OFFCURVE",
"644 711 OFFCURVE",
"630 720 CURVE",
"618 727 OFFCURVE",
"488 733 OFFCURVE",
"339 733 CURVE",
"70 734 LINE",
"74 709 LINE"
);
}
);
width = 700;
},
{
layerId = "9F6891F3-FE19-4DFC-8FDB-D5777C380353";
paths = (
{
closed = 1;
nodes = (
"57 644 OFFCURVE",
"65 635 OFFCURVE",
"103 619 CURVE",
"153 598 LINE",
"155 402 LINE",
"156 295 OFFCURVE",
"158 186 OFFCURVE",
"159 161 CURVE",
"163 94 OFFCURVE",
"144 55 OFFCURVE",
"104 45 CURVE",
"81 39 OFFCURVE",
"69 28 OFFCURVE",
"72 13 CURVE",
"77 -10 LINE",
"369 -10 LINE",
"373 15 LINE",
"377 33 OFFCURVE",
"369 39 OFFCURVE",
"337 39 CURVE",
"274 39 OFFCURVE",
"263 64 OFFCURVE",
"267 194 CURVE",
"271 310 LINE",
"311 314 LINE",
"365 318 OFFCURVE",
"414 283 OFFCURVE",
"425 233 CURVE",
"430 211 OFFCURVE",
"443 192 OFFCURVE",
"454 192 CURVE",
"474 192 OFFCURVE",
"475 198 OFFCURVE",
"476 386 CURVE",
"476 499 OFFCURVE",
"454 526 OFFCURVE",
"423 448 CURVE",
"401 390 LINE",
"348 377 LINE",
"319 369 OFFCURVE",
"288 368 OFFCURVE",
"279 373 CURVE",
"269 380 OFFCURVE",
"265 424 OFFCURVE",
"267 500 CURVE",
"271 618 LINE",
"484 626 LINE",
"527 589 LINE",
"551 569 OFFCURVE",
"578 528 OFFCURVE",
"587 498 CURVE",
"599 460 OFFCURVE",
"611 444 OFFCURVE",
"626 447 CURVE",
"648 451 LINE",
"643 548 LINE",
"640 602 OFFCURVE",
"632 653 OFFCURVE",
"624 663 CURVE",
"604 687 OFFCURVE",
"88 683 OFFCURVE",
"68 658 CURVE"
);
}
);
width = 700;
}
);
leftKerningGroup = H;
rightKerningGroup = F;
unicode = 0046;
},
{
glyphname = G;
layers = (
{
layerId = "87410FD4-54DA-4328-9944-625314575885";
paths = (
{
closed = 1;
nodes = (
"116 686 OFFCURVE",
"8 440 OFFCURVE",
"77 206 CURVE",
"118 69 OFFCURVE",
"241 -26 OFFCURVE",
"377 -27 CURVE",
"455 -27 LINE",
"525 18 LINE",
"564 43 OFFCURVE",
"599 63 OFFCURVE",
"603 63 CURVE",
"608 63 OFFCURVE",
"615 48 OFFCURVE",
"620 29 CURVE",
"625 6 OFFCURVE",
"638 -6 OFFCURVE",
"656 -6 CURVE",
"684 -6 LINE",
"684 260 LINE",
"719 273 LINE",
"738 280 OFFCURVE",
"754 295 OFFCURVE",
"754 306 CURVE",
"754 322 OFFCURVE",
"728 328 OFFCURVE",
"638 331 CURVE",
"575 334 OFFCURVE",
"512 334 OFFCURVE",
"499 331 CURVE",
"458 322 OFFCURVE",
"471 288 OFFCURVE",
"520 276 CURVE",
"565 264 LINE",
"569 201 LINE",
"574 137 LINE",
"537 93 LINE",
"491 39 OFFCURVE",
"407 13 OFFCURVE",
"345 35 CURVE",
"233 74 OFFCURVE",
"189 177 OFFCURVE",
"198 382 CURVE",
"204 539 OFFCURVE",
"232 611 OFFCURVE",
"306 660 CURVE",
"358 695 OFFCURVE",
"443 702 OFFCURVE",
"493 675 CURVE",
"541 650 OFFCURVE",
"579 599 OFFCURVE",
"606 523 CURVE",
"620 484 OFFCURVE",
"638 455 OFFCURVE",
"647 458 CURVE",
"673 467 OFFCURVE",
"675 679 OFFCURVE",
"649 713 CURVE",
"628 740 LINE",
"609 716 LINE",
"586 687 OFFCURVE",
"569 686 OFFCURVE",
"519 711 CURVE",
"469 737 OFFCURVE",
"367 748 OFFCURVE",
"311 734 CURVE"
);
}
);
width = 800;
},
{
background = {
paths = (
{
closed = 1;
nodes = (
"116 686 OFFCURVE",
"8 440 OFFCURVE",
"77 206 CURVE",
"118 69 OFFCURVE",
"241 -26 OFFCURVE",
"377 -27 CURVE",
"455 -27 LINE",
"525 18 LINE",
"564 43 OFFCURVE",
"599 63 OFFCURVE",
"603 63 CURVE",
"608 63 OFFCURVE",
"615 48 OFFCURVE",
"620 29 CURVE",
"625 6 OFFCURVE",
"638 -6 OFFCURVE",
"656 -6 CURVE",
"684 -6 LINE",
"684 260 LINE",
"719 273 LINE",
"738 280 OFFCURVE",
"754 295 OFFCURVE",
"754 306 CURVE",
"754 322 OFFCURVE",
"728 328 OFFCURVE",
"638 331 CURVE",
"575 334 OFFCURVE",
"512 334 OFFCURVE",
"499 331 CURVE",
"458 322 OFFCURVE",
"471 288 OFFCURVE",
"520 276 CURVE",
"565 264 LINE",
"569 201 LINE",
"574 137 LINE",
"537 93 LINE",
"491 39 OFFCURVE",
"407 13 OFFCURVE",
"345 35 CURVE",
"233 74 OFFCURVE",
"189 177 OFFCURVE",
"198 382 CURVE",
"204 539 OFFCURVE",
"232 611 OFFCURVE",
"306 660 CURVE",
"358 695 OFFCURVE",
"443 702 OFFCURVE",
"493 675 CURVE",
"541 650 OFFCURVE",
"579 599 OFFCURVE",
"606 523 CURVE",
"620 484 OFFCURVE",
"638 455 OFFCURVE",
"647 458 CURVE",
"673 467 OFFCURVE",
"675 679 OFFCURVE",
"649 713 CURVE",
"628 740 LINE",
"609 716 LINE",
"586 687 OFFCURVE",
"569 686 OFFCURVE",
"519 711 CURVE",
"469 737 OFFCURVE",
"367 748 OFFCURVE",
"311 734 CURVE"
);
}
);
};
color = 4;
hints = (
{
origin = "{0, 20}";
type = Corner;
name = _corner.round;
},
{
origin = "{0, 21}";
type = Corner;
name = _corner.round;
},
{
origin = "{0, 22}";
type = Corner;
name = _corner.round;
},
{
origin = "{0, 23}";
type = Corner;
name = _corner.round;
},
{
origin = "{0, 7}";
scale = "{1.6, -1.08}";
type = Corner;
name = _corner.serif.lc.foot;
},
{
origin = "{0, 6}";
scale = "{-1.18, -1.08}";
type = Corner;
name = _corner.serif.lc.foot;
},
{
origin = "{0, 4}";
type = Corner;
name = _corner.round;
},
{
origin = "{0, 5}";
type = Corner;
name = _corner.round;
}
);
layerId = "2EA6C462-E43A-4553-9036-03D60599BBF6";
paths = (
{
closed = 1;
nodes = (
"514 -12 OFFCURVE",
"592 43 OFFCURVE",
"643 157 CURVE",
"583 101 LINE",
"627 -4 LINE",
"682 -4 LINE",
"682 326 LINE",
"574 326 LINE",
"574 197 LINE SMOOTH",
"574 130 OFFCURVE",
"527 44 OFFCURVE",
"399 44 CURVE SMOOTH",
"250 44 OFFCURVE",
"192 172 OFFCURVE",
"192 360 CURVE SMOOTH",
"192 550 OFFCURVE",
"253 679 OFFCURVE",
"403 679 CURVE SMOOTH",
"530 679 OFFCURVE",
"589 590 OFFCURVE",
"630 456 CURVE",
"676 461 LINE",
"659 720 LINE",
"617 720 LINE",
"582 639 LINE",
"649 579 LINE",
"610 672 OFFCURVE",
"515 732 OFFCURVE",
"398 732 CURVE SMOOTH",
"183 732 OFFCURVE",
"64 572 OFFCURVE",
"64 360 CURVE SMOOTH",
"64 148 OFFCURVE",
"195 -12 OFFCURVE",
"387 -12 CURVE SMOOTH"
);
}
);
width = 800;
},
{
layerId = "F6C816F3-9BC2-4509-B825-E49BED503D7A";
paths = (
{
closed = 1;
nodes = (
"224 644 OFFCURVE",
"102 523 OFFCURVE",
"82 449 CURVE",
"45 315 OFFCURVE",
"78 158 OFFCURVE",
"161 72 CURVE",
"260 -31 OFFCURVE",
"441 -57 OFFCURVE",
"566 13 CURVE",
"615 41 LINE",
"666 -24 LINE",
"679 -4 LINE",
"686 7 OFFCURVE",
"692 54 OFFCURVE",
"692 101 CURVE",
"691 244 OFFCURVE",
"692 246 OFFCURVE",
"725 251 CURVE",
"742 253 OFFCURVE",
"759 266 OFFCURVE",
"761 280 CURVE",
"766 305 LINE",
"492 297 LINE",
"492 276 LINE",
"492 264 OFFCURVE",
"509 252 OFFCURVE",
"532 248 CURVE",
"588 239 OFFCURVE",
"605 207 OFFCURVE",
"589 143 CURVE",
"571 73 OFFCURVE",
"518 36 OFFCURVE",
"426 29 CURVE",
"352 23 LINE",
"304 55 LINE",
"228 106 OFFCURVE",
"192 191 OFFCURVE",
"193 317 CURVE",
"194 450 OFFCURVE",
"224 532 OFFCURVE",
"293 588 CURVE",
"346 630 LINE",
"414 630 LINE",
"505 630 OFFCURVE",
"544 601 OFFCURVE",
"598 492 CURVE",
"622 442 OFFCURVE",
"649 403 OFFCURVE",
"658 406 CURVE",
"677 413 OFFCURVE",
"674 636 OFFCURVE",
"655 656 CURVE",
"646 664 OFFCURVE",
"632 663 OFFCURVE",
"614 652 CURVE",
"587 635 LINE",
"519 658 LINE",
"444 683 OFFCURVE",
"379 685 OFFCURVE",
"297 663 CURVE"
);
}
);
width = 800;
},
{
layerId = "8BBD64F6-C2DD-426A-A806-28AAAAE0677A";
paths = (
{
closed = 1;
nodes = (
"224 644 OFFCURVE",
"102 523 OFFCURVE",
"82 449 CURVE",
"45 315 OFFCURVE",
"78 158 OFFCURVE",
"161 72 CURVE",
"260 -31 OFFCURVE",
"441 -57 OFFCURVE",
"566 13 CURVE",
"615 41 LINE",
"666 -24 LINE",
"679 -4 LINE",
"686 7 OFFCURVE",
"692 54 OFFCURVE",
"692 101 CURVE",
"691 244 OFFCURVE",
"692 246 OFFCURVE",
"725 251 CURVE",
"742 253 OFFCURVE",
"759 266 OFFCURVE",
"761 280 CURVE",
"766 305 LINE",
"492 297 LINE",
"492 276 LINE",
"492 264 OFFCURVE",
"509 252 OFFCURVE",
"532 248 CURVE",
"588 239 OFFCURVE",
"605 207 OFFCURVE",
"589 143 CURVE",
"571 73 OFFCURVE",
"518 36 OFFCURVE",
"426 29 CURVE",
"352 23 LINE",
"304 55 LINE",
"228 106 OFFCURVE",
"192 191 OFFCURVE",
"193 317 CURVE",
"194 450 OFFCURVE",
"224 532 OFFCURVE",
"293 588 CURVE",
"346 630 LINE",
"414 630 LINE",
"505 630 OFFCURVE",
"544 601 OFFCURVE",
"598 492 CURVE",
"622 442 OFFCURVE",
"649 403 OFFCURVE",
"658 406 CURVE",
"677 413 OFFCURVE",
"674 636 OFFCURVE",
"655 656 CURVE",
"646 664 OFFCURVE",
"632 663 OFFCURVE",
"614 652 CURVE",
"587 635 LINE",
"519 658 LINE",
"444 683 OFFCURVE",
"379 685 OFFCURVE",
"297 663 CURVE"
);
}
);
width = 800;
},
{
layerId = "664CC791-0498-4EB7-B1D0-E1FFFC98853E";
paths = (
{
closed = 1;
nodes = (
"116 686 OFFCURVE",
"8 440 OFFCURVE",
"77 206 CURVE",
"118 69 OFFCURVE",
"241 -26 OFFCURVE",
"377 -27 CURVE",
"455 -27 LINE",
"525 18 LINE",
"564 43 OFFCURVE",
"599 63 OFFCURVE",
"603 63 CURVE",
"608 63 OFFCURVE",
"615 48 OFFCURVE",
"620 29 CURVE",
"625 6 OFFCURVE",
"638 -6 OFFCURVE",
"656 -6 CURVE",
"684 -6 LINE",
"684 260 LINE",
"719 273 LINE",
"738 280 OFFCURVE",
"754 295 OFFCURVE",
"754 306 CURVE",
"754 322 OFFCURVE",
"728 328 OFFCURVE",
"638 331 CURVE",
"575 334 OFFCURVE",
"512 334 OFFCURVE",
"499 331 CURVE",
"458 322 OFFCURVE",
"471 288 OFFCURVE",
"520 276 CURVE",
"565 264 LINE",
"569 201 LINE",
"574 137 LINE",
"537 93 LINE",
"491 39 OFFCURVE",
"407 13 OFFCURVE",
"345 35 CURVE",
"233 74 OFFCURVE",
"189 177 OFFCURVE",
"198 382 CURVE",
"204 539 OFFCURVE",
"232 611 OFFCURVE",
"306 660 CURVE",
"358 695 OFFCURVE",
"443 702 OFFCURVE",
"493 675 CURVE",
"541 650 OFFCURVE",
"579 599 OFFCURVE",
"606 523 CURVE",
"620 484 OFFCURVE",
"638 455 OFFCURVE",
"647 458 CURVE",
"673 467 OFFCURVE",
"675 679 OFFCURVE",
"649 713 CURVE",
"628 740 LINE",
"609 716 LINE",
"586 687 OFFCURVE",
"569 686 OFFCURVE",
"519 711 CURVE",
"469 737 OFFCURVE",
"367 748 OFFCURVE",
"311 734 CURVE"
);
}
);
width = 800;
},
{
layerId = "9F6891F3-FE19-4DFC-8FDB-D5777C380353";
paths = (
{
closed = 1;
nodes = (
"224 644 OFFCURVE",
"102 523 OFFCURVE",
"82 449 CURVE",
"45 315 OFFCURVE",
"78 158 OFFCURVE",
"161 72 CURVE",
"260 -31 OFFCURVE",
"441 -57 OFFCURVE",
"566 13 CURVE",
"615 41 LINE",
"666 -24 LINE",
"679 -4 LINE",
"686 7 OFFCURVE",
"692 54 OFFCURVE",
"692 101 CURVE",
"691 244 OFFCURVE",
"692 246 OFFCURVE",
"725 251 CURVE",
"742 253 OFFCURVE",
"759 266 OFFCURVE",
"761 280 CURVE",
"766 305 LINE",
"492 297 LINE",
"492 276 LINE",
"492 264 OFFCURVE",
"509 252 OFFCURVE",
"532 248 CURVE",
"588 239 OFFCURVE",
"605 207 OFFCURVE",
"589 143 CURVE",
"571 73 OFFCURVE",
"518 36 OFFCURVE",
"426 29 CURVE",
"352 23 LINE",
"304 55 LINE",
"228 106 OFFCURVE",
"192 191 OFFCURVE",
"193 317 CURVE",
"194 450 OFFCURVE",
"224 532 OFFCURVE",
"293 588 CURVE",
"346 630 LINE",
"414 630 LINE",
"505 630 OFFCURVE",
"544 601 OFFCURVE",
"598 492 CURVE",
"622 442 OFFCURVE",
"649 403 OFFCURVE",
"658 406 CURVE",
"677 413 OFFCURVE",
"674 636 OFFCURVE",
"655 656 CURVE",
"646 664 OFFCURVE",
"632 663 OFFCURVE",
"614 652 CURVE",
"587 635 LINE",
"519 658 LINE",
"444 683 OFFCURVE",
"379 685 OFFCURVE",
"297 663 CURVE"
);
}
);
width = 800;
},
{
associatedMasterId = "2EA6C462-E43A-4553-9036-03D60599BBF6";
background = {
paths = (
{
closed = 1;
nodes = (
"116 686 OFFCURVE",
"8 440 OFFCURVE",
"77 206 CURVE",
"118 69 OFFCURVE",
"241 -26 OFFCURVE",
"377 -27 CURVE",
"455 -27 LINE",
"525 18 LINE",
"564 43 OFFCURVE",
"599 63 OFFCURVE",
"603 63 CURVE",
"608 63 OFFCURVE",
"615 48 OFFCURVE",
"620 29 CURVE",
"625 6 OFFCURVE",
"638 -6 OFFCURVE",
"656 -6 CURVE",
"684 -6 LINE",
"684 260 LINE",
"719 273 LINE",
"738 280 OFFCURVE",
"754 295 OFFCURVE",
"754 306 CURVE",
"754 322 OFFCURVE",
"728 328 OFFCURVE",
"638 331 CURVE",
"575 334 OFFCURVE",
"512 334 OFFCURVE",
"499 331 CURVE",
"458 322 OFFCURVE",
"471 288 OFFCURVE",
"520 276 CURVE",
"565 264 LINE",
"569 201 LINE",
"574 137 LINE",
"537 93 LINE",
"491 39 OFFCURVE",
"407 13 OFFCURVE",
"345 35 CURVE",
"233 74 OFFCURVE",
"189 177 OFFCURVE",
"198 382 CURVE",
"204 539 OFFCURVE",
"232 611 OFFCURVE",
"306 660 CURVE",
"358 695 OFFCURVE",
"443 702 OFFCURVE",
"493 675 CURVE",
"541 650 OFFCURVE",
"579 599 OFFCURVE",
"606 523 CURVE",
"620 484 OFFCURVE",
"638 455 OFFCURVE",
"647 458 CURVE",
"673 467 OFFCURVE",
"675 679 OFFCURVE",
"649 713 CURVE",
"628 740 LINE",
"609 716 LINE",
"586 687 OFFCURVE",
"569 686 OFFCURVE",
"519 711 CURVE",
"469 737 OFFCURVE",
"367 748 OFFCURVE",
"311 734 CURVE"
);
}
);
};
hints = (
{
origin = "{0, 11}";
type = Corner;
name = _corner.round;
},
{
origin = "{0, 12}";
type = Corner;
name = _corner.round;
},
{
origin = "{0, 13}";
type = Corner;
name = _corner.round;
},
{
origin = "{0, 14}";
type = Corner;
name = _corner.round;
},
{
origin = "{0, 33}";
scale = "{1.6, -1.08}";
type = Corner;
name = _corner.serif.lc.foot;
},
{
origin = "{0, 32}";
scale = "{-1.18, -1.08}";
type = Corner;
name = _corner.serif.lc.foot;
},
{
origin = "{0, 30}";
type = Corner;
name = _corner.round;
},
{
origin = "{0, 31}";
type = Corner;
name = _corner.round;
}
);
layerId = "3D52687F-19C8-4934-A326-88D08C1E0FC7";
name = "May 17 19, 11:09";
paths = (
{
closed = 1;
nodes = (
"574 114 OFFCURVE",
"506 44 OFFCURVE",
"395 44 CURVE SMOOTH",
"248 44 OFFCURVE",
"190 172 OFFCURVE",
"190 360 CURVE SMOOTH",
"190 550 OFFCURVE",
"251 679 OFFCURVE",
"401 679 CURVE SMOOTH",
"528 679 OFFCURVE",
"587 590 OFFCURVE",
"628 456 CURVE",
"674 461 LINE",
"657 720 LINE",
"615 720 LINE",
"580 639 LINE",
"647 579 LINE",
"608 672 OFFCURVE",
"513 732 OFFCURVE",
"396 732 CURVE SMOOTH",
"181 732 OFFCURVE",
"62 572 OFFCURVE",
"62 360 CURVE SMOOTH",
"62 148 OFFCURVE",
"193 -12 OFFCURVE",
"382 -12 CURVE SMOOTH",
"527 -12 OFFCURVE",
"627 82 OFFCURVE",
"669 244 CURVE",
"581 101 LINE",
"625 -4 LINE",
"680 -4 LINE",
"680 326 LINE",
"572 326 LINE",
"572 121 LINE",
"619 255 LINE"
);
}
);
width = 800;
}
);
leftKerningGroup = O;
rightKerningGroup = G;
unicode = 0047;
},
{
glyphname = H;
layers = (
{
layerId = "87410FD4-54DA-4328-9944-625314575885";
paths = (
{
closed = 1;
nodes = (
"28 706 OFFCURVE",
"38 694 OFFCURVE",
"78 685 CURVE",
"119 676 LINE",
"124 478 LINE",
"126 369 OFFCURVE",
"126 229 OFFCURVE",
"124 167 CURVE",
"119 55 LINE",
"77 39 LINE",
"4 11 OFFCURVE",
"46 -6 OFFCURVE",
"185 -6 CURVE",
"320 -6 OFFCURVE",
"346 6 OFFCURVE",
"278 38 CURVE",
"240 57 LINE",
"232 357 LINE",
"313 359 LINE",
"433 362 OFFCURVE",
"517 357 OFFCURVE",
"529 346 CURVE",
"534 340 OFFCURVE",
"540 277 OFFCURVE",
"541 204 CURVE",
"544 73 LINE",
"518 54 LINE",
"504 44 OFFCURVE",
"485 36 OFFCURVE",
"474 36 CURVE",
"453 36 OFFCURVE",
"450 13 OFFCURVE",
"470 1 CURVE",
"482 -7 OFFCURVE",
"645 -13 OFFCURVE",
"718 -8 CURVE",
"765 -5 OFFCURVE",
"757 35 OFFCURVE",
"708 44 CURVE",
"685 49 OFFCURVE",
"663 63 OFFCURVE",
"660 76 CURVE",
"651 104 OFFCURVE",
"652 620 OFFCURVE",
"661 652 CURVE",
"664 665 OFFCURVE",
"681 678 OFFCURVE",
"698 680 CURVE",
"714 683 OFFCURVE",
"730 696 OFFCURVE",
"733 710 CURVE",
"738 735 LINE",
"602 731 LINE",
"508 728 OFFCURVE",
"464 721 OFFCURVE",
"460 709 CURVE",
"456 699 OFFCURVE",
"465 692 OFFCURVE",
"480 692 CURVE",
"529 692 OFFCURVE",
"540 663 OFFCURVE",
"540 535 CURVE",
"540 412 LINE",
"233 412 LINE",
"233 664 LINE",
"268 680 LINE",
"287 689 OFFCURVE",
"303 705 OFFCURVE",
"303 715 CURVE",
"303 729 OFFCURVE",
"273 734 OFFCURVE",
"179 734 CURVE",
"112 734 OFFCURVE",
"52 729 OFFCURVE",
"47 724 CURVE"
);
}
);
width = 800;
},
{
background = {
paths = (
{
closed = 1;
nodes = (
"38 701 OFFCURVE",
"48 689 OFFCURVE",
"88 680 CURVE",
"129 671 LINE",
"134 473 LINE",
"136 364 OFFCURVE",
"136 224 OFFCURVE",
"134 162 CURVE",
"129 50 LINE",
"87 34 LINE",
"14 6 OFFCURVE",
"56 -11 OFFCURVE",
"195 -11 CURVE",
"330 -11 OFFCURVE",
"356 1 OFFCURVE",
"288 33 CURVE",
"250 52 LINE",
"242 352 LINE",
"323 354 LINE",
"443 357 OFFCURVE",
"527 352 OFFCURVE",
"539 341 CURVE",
"544 335 OFFCURVE",
"550 272 OFFCURVE",
"551 199 CURVE",
"554 68 LINE",
"528 49 LINE",
"514 39 OFFCURVE",
"495 31 OFFCURVE",
"484 31 CURVE",
"463 31 OFFCURVE",
"460 8 OFFCURVE",
"480 -4 CURVE",
"492 -12 OFFCURVE",
"655 -18 OFFCURVE",
"728 -13 CURVE",
"775 -10 OFFCURVE",
"767 30 OFFCURVE",
"718 39 CURVE",
"695 44 OFFCURVE",
"673 58 OFFCURVE",
"670 71 CURVE",
"661 99 OFFCURVE",
"662 615 OFFCURVE",
"671 647 CURVE",
"674 660 OFFCURVE",
"691 673 OFFCURVE",
"708 675 CURVE",
"724 678 OFFCURVE",
"740 691 OFFCURVE",
"743 705 CURVE",
"748 730 LINE",
"612 726 LINE",
"518 723 OFFCURVE",
"474 716 OFFCURVE",
"470 704 CURVE",
"466 694 OFFCURVE",
"475 687 OFFCURVE",
"490 687 CURVE",
"539 687 OFFCURVE",
"550 658 OFFCURVE",
"550 530 CURVE",
"550 407 LINE",
"243 407 LINE",
"243 659 LINE",
"278 675 LINE",
"297 684 OFFCURVE",
"313 700 OFFCURVE",
"313 710 CURVE",
"313 724 OFFCURVE",
"283 729 OFFCURVE",
"189 729 CURVE",
"122 729 OFFCURVE",
"62 724 OFFCURVE",
"57 719 CURVE"
);
}
);
};
color = 4;
hints = (
{
origin = "{1, 3}";
scale = "{1.44, 1.08}";
type = Corner;
name = _corner.serif.lc.foot;
},
{
origin = "{1, 0}";
scale = "{-1.44, 1.08}";
type = Corner;
name = _corner.serif.lc.foot;
},
{
origin = "{0, 0}";
scale = "{-1.44, 1.08}";
type = Corner;
name = _corner.serif.lc.foot;
},
{
origin = "{0, 3}";
scale = "{1.44, 1.08}";
type = Corner;
name = _corner.serif.lc.foot;
},
{
origin = "{1, 2}";
scale = "{1.44, -1.08}";
type = Corner;
name = _corner.serif.lc.foot;
},
{
origin = "{0, 2}";
scale = "{1.44, -1.08}";
type = Corner;
name = _corner.serif.lc.foot;
},
{
origin = "{1, 1}";
scale = "{-1.44, -1.08}";
type = Corner;
name = _corner.serif.lc.foot;
},
{
origin = "{0, 1}";
scale = "{-1.44, -1.08}";
type = Corner;
name = _corner.serif.lc.foot;
}
);
layerId = "2EA6C462-E43A-4553-9036-03D60599BBF6";
paths = (
{
closed = 1;
nodes = (
"664 0 LINE",
"664 720 LINE",
"556 720 LINE",
"556 0 LINE"
);
},
{
closed = 1;
nodes = (
"244 0 LINE",
"244 720 LINE",
"136 720 LINE",
"136 0 LINE"
);
},
{
closed = 1;
nodes = (
"610 353 LINE",
"610 405 LINE",
"190 405 LINE",
"190 353 LINE"
);
}
);
width = 800;
},
{
layerId = "F6C816F3-9BC2-4509-B825-E49BED503D7A";
paths = (
{
closed = 1;
nodes = (
"47 659 LINE",
"47 648 OFFCURVE",
"63 632 OFFCURVE",
"81 625 CURVE",
"99 618 OFFCURVE",
"118 607 OFFCURVE",
"122 601 CURVE",
"126 595 OFFCURVE",
"131 471 OFFCURVE",
"133 326 CURVE",
"138 62 LINE",
"93 50 LINE",
"68 43 OFFCURVE",
"47 29 OFFCURVE",
"47 18 CURVE",
"47 -3 LINE",
"178 -3 LINE",
"278 -3 OFFCURVE",
"311 2 OFFCURVE",
"317 17 CURVE",
"327 42 OFFCURVE",
"315 53 OFFCURVE",
"277 53 CURVE",
"236 53 OFFCURVE",
"229 76 OFFCURVE",
"229 206 CURVE",
"229 315 LINE",
"260 322 LINE",
"310 334 OFFCURVE",
"513 332 OFFCURVE",
"533 320 CURVE",
"546 312 OFFCURVE",
"550 274 OFFCURVE",
"547 184 CURVE",
"543 60 LINE",
"512 56 LINE",
"477 51 OFFCURVE",
"458 13 OFFCURVE",
"485 3 CURVE",
"495 -1 OFFCURVE",
"556 -2 OFFCURVE",
"620 0 CURVE",
"738 4 LINE",
"738 25 LINE",
"738 36 OFFCURVE",
"725 48 OFFCURVE",
"710 51 CURVE",
"695 53 OFFCURVE",
"677 61 OFFCURVE",
"670 67 CURVE",
"657 79 OFFCURVE",
"645 576 OFFCURVE",
"657 606 CURVE",
"661 617 OFFCURVE",
"675 625 OFFCURVE",
"688 625 CURVE",
"713 625 OFFCURVE",
"745 650 OFFCURVE",
"745 670 CURVE",
"745 690 OFFCURVE",
"476 676 OFFCURVE",
"469 656 CURVE",
"466 646 OFFCURVE",
"475 639 OFFCURVE",
"491 639 CURVE",
"539 639 OFFCURVE",
"551 606 OFFCURVE",
"547 490 CURVE",
"543 381 LINE",
"236 381 LINE",
"236 617 LINE",
"271 625 LINE",
"290 629 OFFCURVE",
"307 644 OFFCURVE",
"310 657 CURVE",
"314 681 LINE",
"47 681 LINE"
);
}
);
width = 800;
},
{
layerId = "8BBD64F6-C2DD-426A-A806-28AAAAE0677A";
paths = (
{
closed = 1;
nodes = (
"47 659 LINE",
"47 648 OFFCURVE",
"63 632 OFFCURVE",
"81 625 CURVE",
"99 618 OFFCURVE",
"118 607 OFFCURVE",
"122 601 CURVE",
"126 595 OFFCURVE",
"131 471 OFFCURVE",
"133 326 CURVE",
"138 62 LINE",
"93 50 LINE",
"68 43 OFFCURVE",
"47 29 OFFCURVE",
"47 18 CURVE",
"47 -3 LINE",
"178 -3 LINE",
"278 -3 OFFCURVE",
"311 2 OFFCURVE",
"317 17 CURVE",
"327 42 OFFCURVE",
"315 53 OFFCURVE",
"277 53 CURVE",
"236 53 OFFCURVE",
"229 76 OFFCURVE",
"229 206 CURVE",
"229 315 LINE",
"260 322 LINE",
"310 334 OFFCURVE",
"513 332 OFFCURVE",
"533 320 CURVE",
"546 312 OFFCURVE",
"550 274 OFFCURVE",
"547 184 CURVE",
"543 60 LINE",
"512 56 LINE",
"477 51 OFFCURVE",
"458 13 OFFCURVE",
"485 3 CURVE",
"495 -1 OFFCURVE",
"556 -2 OFFCURVE",
"620 0 CURVE",
"738 4 LINE",
"738 25 LINE",
"738 36 OFFCURVE",
"725 48 OFFCURVE",
"710 51 CURVE",
"695 53 OFFCURVE",
"677 61 OFFCURVE",
"670 67 CURVE",
"657 79 OFFCURVE",
"645 576 OFFCURVE",
"657 606 CURVE",
"661 617 OFFCURVE",
"675 625 OFFCURVE",
"688 625 CURVE",
"713 625 OFFCURVE",
"745 650 OFFCURVE",
"745 670 CURVE",
"745 690 OFFCURVE",
"476 676 OFFCURVE",
"469 656 CURVE",
"466 646 OFFCURVE",
"475 639 OFFCURVE",
"491 639 CURVE",
"539 639 OFFCURVE",
"551 606 OFFCURVE",
"547 490 CURVE",
"543 381 LINE",
"236 381 LINE",
"236 617 LINE",
"271 625 LINE",
"290 629 OFFCURVE",
"307 644 OFFCURVE",
"310 657 CURVE",
"314 681 LINE",
"47 681 LINE"
);
}
);
width = 800;
},
{
layerId = "664CC791-0498-4EB7-B1D0-E1FFFC98853E";
paths = (
{
closed = 1;
nodes = (
"28 706 OFFCURVE",
"38 694 OFFCURVE",
"78 685 CURVE",
"119 676 LINE",
"124 478 LINE",
"126 369 OFFCURVE",
"126 229 OFFCURVE",
"124 167 CURVE",
"119 55 LINE",
"77 39 LINE",
"4 11 OFFCURVE",
"46 -6 OFFCURVE",
"185 -6 CURVE",
"320 -6 OFFCURVE",
"346 6 OFFCURVE",
"278 38 CURVE",
"240 57 LINE",
"232 357 LINE",
"313 359 LINE",
"433 362 OFFCURVE",
"517 357 OFFCURVE",
"529 346 CURVE",
"534 340 OFFCURVE",
"540 277 OFFCURVE",
"541 204 CURVE",
"544 73 LINE",
"518 54 LINE",
"504 44 OFFCURVE",
"485 36 OFFCURVE",
"474 36 CURVE",
"453 36 OFFCURVE",
"450 13 OFFCURVE",
"470 1 CURVE",
"482 -7 OFFCURVE",
"645 -13 OFFCURVE",
"718 -8 CURVE",
"765 -5 OFFCURVE",
"757 35 OFFCURVE",
"708 44 CURVE",
"685 49 OFFCURVE",
"663 63 OFFCURVE",
"660 76 CURVE",
"651 104 OFFCURVE",
"652 620 OFFCURVE",
"661 652 CURVE",
"664 665 OFFCURVE",
"681 678 OFFCURVE",
"698 680 CURVE",
"714 683 OFFCURVE",
"730 696 OFFCURVE",
"733 710 CURVE",
"738 735 LINE",
"602 731 LINE",
"508 728 OFFCURVE",
"464 721 OFFCURVE",
"460 709 CURVE",
"456 699 OFFCURVE",
"465 692 OFFCURVE",
"480 692 CURVE",
"529 692 OFFCURVE",
"540 663 OFFCURVE",
"540 535 CURVE",
"540 412 LINE",
"233 412 LINE",
"233 664 LINE",
"268 680 LINE",
"287 689 OFFCURVE",
"303 705 OFFCURVE",
"303 715 CURVE",
"303 729 OFFCURVE",
"273 734 OFFCURVE",
"179 734 CURVE",
"112 734 OFFCURVE",
"52 729 OFFCURVE",
"47 724 CURVE"
);
}
);
width = 800;
},
{
layerId = "9F6891F3-FE19-4DFC-8FDB-D5777C380353";
paths = (
{
closed = 1;
nodes = (
"47 659 LINE",
"47 648 OFFCURVE",
"63 632 OFFCURVE",
"81 625 CURVE",
"99 618 OFFCURVE",
"118 607 OFFCURVE",
"122 601 CURVE",
"126 595 OFFCURVE",
"131 471 OFFCURVE",
"133 326 CURVE",
"138 62 LINE",
"93 50 LINE",
"68 43 OFFCURVE",
"47 29 OFFCURVE",
"47 18 CURVE",
"47 -3 LINE",
"178 -3 LINE",
"278 -3 OFFCURVE",
"311 2 OFFCURVE",
"317 17 CURVE",
"327 42 OFFCURVE",
"315 53 OFFCURVE",
"277 53 CURVE",
"236 53 OFFCURVE",
"229 76 OFFCURVE",
"229 206 CURVE",
"229 315 LINE",
"260 322 LINE",
"310 334 OFFCURVE",
"513 332 OFFCURVE",
"533 320 CURVE",
"546 312 OFFCURVE",
"550 274 OFFCURVE",
"547 184 CURVE",
"543 60 LINE",
"512 56 LINE",
"477 51 OFFCURVE",
"458 13 OFFCURVE",
"485 3 CURVE",
"495 -1 OFFCURVE",
"556 -2 OFFCURVE",
"620 0 CURVE",
"738 4 LINE",
"738 25 LINE",
"738 36 OFFCURVE",
"725 48 OFFCURVE",
"710 51 CURVE",
"695 53 OFFCURVE",
"677 61 OFFCURVE",
"670 67 CURVE",
"657 79 OFFCURVE",
"645 576 OFFCURVE",
"657 606 CURVE",
"661 617 OFFCURVE",
"675 625 OFFCURVE",
"688 625 CURVE",
"713 625 OFFCURVE",
"745 650 OFFCURVE",
"745 670 CURVE",
"745 690 OFFCURVE",
"476 676 OFFCURVE",
"469 656 CURVE",
"466 646 OFFCURVE",
"475 639 OFFCURVE",
"491 639 CURVE",
"539 639 OFFCURVE",
"551 606 OFFCURVE",
"547 490 CURVE",
"543 381 LINE",
"236 381 LINE",
"236 617 LINE",
"271 625 LINE",
"290 629 OFFCURVE",
"307 644 OFFCURVE",
"310 657 CURVE",
"314 681 LINE",
"47 681 LINE"
);
}
);
width = 800;
}
);
leftKerningGroup = H;
rightKerningGroup = H;
unicode = 0048;
},
{
glyphname = I;
layers = (
{
layerId = "87410FD4-54DA-4328-9944-625314575885";
paths = (
{
closed = 1;
nodes = (
"48 726 OFFCURVE",
"20 705 OFFCURVE",
"92 684 CURVE",
"138 671 LINE",
"144 68 LINE",
"99 48 LINE",
"22 15 OFFCURVE",
"53 1 OFFCURVE",
"204 1 CURVE",
"347 1 LINE",
"347 22 LINE",
"347 33 OFFCURVE",
"332 45 OFFCURVE",
"312 47 CURVE",
"293 50 OFFCURVE",
"273 59 OFFCURVE",
"268 67 CURVE",
"263 76 OFFCURVE",
"259 213 OFFCURVE",
"258 374 CURVE",
"258 665 LINE",
"277 672 LINE",
"288 676 OFFCURVE",
"308 681 OFFCURVE",
"322 684 CURVE",
"336 686 OFFCURVE",
"349 697 OFFCURVE",
"351 709 CURVE",
"357 736 OFFCURVE",
"301 743 OFFCURVE",
"160 734 CURVE"
);
}
);
width = 400;
},
{
background = {
paths = (
{
closed = 1;
nodes = (
"49 716 OFFCURVE",
"21 695 OFFCURVE",
"93 674 CURVE",
"139 661 LINE",
"145 58 LINE",
"100 38 LINE",
"23 5 OFFCURVE",
"54 -9 OFFCURVE",
"205 -9 CURVE",
"348 -9 LINE",
"348 12 LINE",
"348 23 OFFCURVE",
"333 35 OFFCURVE",
"313 37 CURVE",
"294 40 OFFCURVE",
"274 49 OFFCURVE",
"269 57 CURVE",
"264 66 OFFCURVE",
"260 203 OFFCURVE",
"259 364 CURVE",
"259 655 LINE",
"278 662 LINE",
"289 666 OFFCURVE",
"309 671 OFFCURVE",
"323 674 CURVE",
"337 676 OFFCURVE",
"350 687 OFFCURVE",
"352 699 CURVE",
"358 726 OFFCURVE",
"302 733 OFFCURVE",
"161 724 CURVE"
);
}
);
};
color = 4;
hints = (
{
origin = "{0, 0}";
scale = "{-1.44, 1.08}";
type = Corner;
name = _corner.serif.lc.foot;
},
{
origin = "{0, 1}";
scale = "{-1.44, -1.08}";
type = Corner;
name = _corner.serif.lc.foot;
},
{
origin = "{0, 2}";
scale = "{1.44, -1.08}";
type = Corner;
name = _corner.serif.lc.foot;
},
{
origin = "{0, 3}";
scale = "{1.44, 1.08}";
type = Corner;
name = _corner.serif.lc.foot;
}
);
layerId = "2EA6C462-E43A-4553-9036-03D60599BBF6";
paths = (
{
closed = 1;
nodes = (
"254 0 LINE",
"254 720 LINE",
"146 720 LINE",
"146 0 LINE"
);
}
);
width = 400;
},
{
layerId = "F6C816F3-9BC2-4509-B825-E49BED503D7A";
paths = (
{
closed = 1;
nodes = (
"42 679 LINE",
"42 659 LINE",
"42 647 OFFCURVE",
"60 634 OFFCURVE",
"84 630 CURVE",
"107 625 OFFCURVE",
"127 617 OFFCURVE",
"128 613 CURVE",
"129 608 OFFCURVE",
"131 486 OFFCURVE",
"133 343 CURVE",
"137 66 OFFCURVE",
"135 60 OFFCURVE",
"70 51 CURVE",
"51 48 OFFCURVE",
"35 37 OFFCURVE",
"35 25 CURVE",
"35 4 LINE",
"147 0 LINE",
"208 -2 OFFCURVE",
"279 -1 OFFCURVE",
"304 4 CURVE",
"362 15 OFFCURVE",
"366 53 OFFCURVE",
"309 53 CURVE",
"287 53 OFFCURVE",
"261 62 OFFCURVE",
"252 73 CURVE",
"231 98 OFFCURVE",
"237 607 OFFCURVE",
"258 625 CURVE",
"266 631 OFFCURVE",
"288 638 OFFCURVE",
"307 641 CURVE",
"349 647 OFFCURVE",
"355 687 OFFCURVE",
"314 688 CURVE",
"299 689 OFFCURVE",
"231 687 OFFCURVE",
"164 684 CURVE"
);
}
);
width = 400;
},
{
layerId = "8BBD64F6-C2DD-426A-A806-28AAAAE0677A";
paths = (
{
closed = 1;
nodes = (
"42 679 LINE",
"42 659 LINE",
"42 647 OFFCURVE",
"60 634 OFFCURVE",
"84 630 CURVE",
"107 625 OFFCURVE",
"127 617 OFFCURVE",
"128 613 CURVE",
"129 608 OFFCURVE",
"131 486 OFFCURVE",
"133 343 CURVE",
"137 66 OFFCURVE",
"135 60 OFFCURVE",
"70 51 CURVE",
"51 48 OFFCURVE",
"35 37 OFFCURVE",
"35 25 CURVE",
"35 4 LINE",
"147 0 LINE",
"208 -2 OFFCURVE",
"279 -1 OFFCURVE",
"304 4 CURVE",
"362 15 OFFCURVE",
"366 53 OFFCURVE",
"309 53 CURVE",
"287 53 OFFCURVE",
"261 62 OFFCURVE",
"252 73 CURVE",
"231 98 OFFCURVE",
"237 607 OFFCURVE",
"258 625 CURVE",
"266 631 OFFCURVE",
"288 638 OFFCURVE",
"307 641 CURVE",
"349 647 OFFCURVE",
"355 687 OFFCURVE",
"314 688 CURVE",
"299 689 OFFCURVE",
"231 687 OFFCURVE",
"164 684 CURVE"
);
}
);
width = 400;
},
{
layerId = "664CC791-0498-4EB7-B1D0-E1FFFC98853E";
paths = (
{
closed = 1;
nodes = (
"48 726 OFFCURVE",
"20 705 OFFCURVE",
"92 684 CURVE",
"138 671 LINE",
"144 68 LINE",
"99 48 LINE",
"22 15 OFFCURVE",
"53 1 OFFCURVE",
"204 1 CURVE",
"347 1 LINE",
"347 22 LINE",
"347 33 OFFCURVE",
"332 45 OFFCURVE",
"312 47 CURVE",
"293 50 OFFCURVE",
"273 59 OFFCURVE",
"268 67 CURVE",
"263 76 OFFCURVE",
"259 213 OFFCURVE",
"258 374 CURVE",
"258 665 LINE",
"277 672 LINE",
"288 676 OFFCURVE",
"308 681 OFFCURVE",
"322 684 CURVE",
"336 686 OFFCURVE",
"349 697 OFFCURVE",
"351 709 CURVE",
"357 736 OFFCURVE",
"301 743 OFFCURVE",
"160 734 CURVE"
);
}
);
width = 400;
},
{
layerId = "9F6891F3-FE19-4DFC-8FDB-D5777C380353";
paths = (
{
closed = 1;
nodes = (
"42 679 LINE",
"42 659 LINE",
"42 647 OFFCURVE",
"60 634 OFFCURVE",
"84 630 CURVE",
"107 625 OFFCURVE",
"127 617 OFFCURVE",
"128 613 CURVE",
"129 608 OFFCURVE",
"131 486 OFFCURVE",
"133 343 CURVE",
"137 66 OFFCURVE",
"135 60 OFFCURVE",
"70 51 CURVE",
"51 48 OFFCURVE",
"35 37 OFFCURVE",
"35 25 CURVE",
"35 4 LINE",
"147 0 LINE",
"208 -2 OFFCURVE",
"279 -1 OFFCURVE",
"304 4 CURVE",
"362 15 OFFCURVE",
"366 53 OFFCURVE",
"309 53 CURVE",
"287 53 OFFCURVE",
"261 62 OFFCURVE",
"252 73 CURVE",
"231 98 OFFCURVE",
"237 607 OFFCURVE",
"258 625 CURVE",
"266 631 OFFCURVE",
"288 638 OFFCURVE",
"307 641 CURVE",
"349 647 OFFCURVE",
"355 687 OFFCURVE",
"314 688 CURVE",
"299 689 OFFCURVE",
"231 687 OFFCURVE",
"164 684 CURVE"
);
}
);
width = 400;
}
);
leftKerningGroup = H;
rightKerningGroup = H;
unicode = 0049;
},
{
glyphname = J;
layers = (
{
layerId = "87410FD4-54DA-4328-9944-625314575885";
paths = (
{
closed = 1;
nodes = (
"193 718 LINE",
"193 706 OFFCURVE",
"210 689 OFFCURVE",
"231 680 CURVE",
"252 671 OFFCURVE",
"274 657 OFFCURVE",
"280 649 CURVE",
"285 641 OFFCURVE",
"290 515 OFFCURVE",
"290 368 CURVE",
"290 101 LINE",
"261 64 LINE",
"227 21 OFFCURVE",
"166 15 OFFCURVE",
"132 53 CURVE",
"100 89 OFFCURVE",
"103 109 OFFCURVE",
"144 128 CURVE",
"180 144 LINE",
"176 187 LINE",
"173 219 OFFCURVE",
"162 233 OFFCURVE",
"133 243 CURVE",
"94 257 LINE",
"59 222 LINE",
"-10 152 OFFCURVE",
"19 46 OFFCURVE",
"123 -7 CURVE",
"172 -32 OFFCURVE",
"286 -19 OFFCURVE",
"334 17 CURVE",
"396 63 OFFCURVE",
"407 120 OFFCURVE",
"408 404 CURVE",
"409 663 LINE",
"440 676 LINE",
"474 691 OFFCURVE",
"483 725 OFFCURVE",
"454 726 CURVE",
"445 727 OFFCURVE",
"382 730 OFFCURVE",
"315 733 CURVE",
"193 739 LINE"
);
}
);
width = 500;
},
{
background = {
hints = (
{
origin = "{0, 3}";
scale = "{-1.44, -1.08}";
type = Corner;
name = _corner.serif.lc.foot;
},
{
origin = "{0, 4}";
scale = "{1.44, -1.08}";
type = Corner;
name = _corner.serif.lc.foot;
}
);
paths = (
{
closed = 1;
nodes = (
"328 -20 OFFCURVE",
"400 53 OFFCURVE",
"400 181 CURVE SMOOTH",
"400 720 LINE",
"292 720 LINE",
"292 161 LINE SMOOTH",
"292 76 OFFCURVE",
"256 28 OFFCURVE",
"192 28 CURVE SMOOTH",
"146 28 OFFCURVE",
"110 56 OFFCURVE",
"110 91 CURVE SMOOTH",
"110 108 OFFCURVE",
"119 119 OFFCURVE",
"139 129 CURVE SMOOTH",
"164 141 OFFCURVE",
"177 156 OFFCURVE",
"177 181 CURVE SMOOTH",
"177 220 OFFCURVE",
"149 244 OFFCURVE",
"110 244 CURVE SMOOTH",
"88 244 OFFCURVE",
"68 235 OFFCURVE",
"51 218 CURVE SMOOTH",
"32 199 OFFCURVE",
"20 170 OFFCURVE",
"20 135 CURVE SMOOTH",
"20 60 OFFCURVE",
"86 -20 OFFCURVE",
"208 -20 CURVE SMOOTH"
);
}
);
};
color = 4;
hints = (
{
origin = "{0, 3}";
scale = "{-1.44, -1.08}";
type = Corner;
name = _corner.serif.lc.foot;
},
{
origin = "{0, 4}";
scale = "{1.56, -1.08}";
type = Corner;
name = _corner.serif.lc.foot;
}
);
layerId = "2EA6C462-E43A-4553-9036-03D60599BBF6";
paths = (
{
closed = 1;
nodes = (
"326 -20 OFFCURVE",
"400 54 OFFCURVE",
"400 175 CURVE SMOOTH",
"400 720 LINE",
"292 720 LINE",
"292 156 LINE SMOOTH",
"292 81 OFFCURVE",
"260 36 OFFCURVE",
"192 36 CURVE SMOOTH",
"146 36 OFFCURVE",
"115 60 OFFCURVE",
"115 91 CURVE SMOOTH",
"115 135 OFFCURVE",
"177 126 OFFCURVE",
"177 182 CURVE SMOOTH",
"177 219 OFFCURVE",
"150 243 OFFCURVE",
"109 243 CURVE SMOOTH",
"59 243 OFFCURVE",
"20 196 OFFCURVE",
"20 135 CURVE SMOOTH",
"20 60 OFFCURVE",
"82 -20 OFFCURVE",
"211 -20 CURVE SMOOTH"
);
}
);
width = 500;
},
{
layerId = "F6C816F3-9BC2-4509-B825-E49BED503D7A";
paths = (
{
closed = 1;
nodes = (
"195 633 OFFCURVE",
"224 611 OFFCURVE",
"259 611 CURVE",
"300 611 OFFCURVE",
"308 569 OFFCURVE",
"310 339 CURVE",
"311 94 OFFCURVE",
"302 55 OFFCURVE",
"239 38 CURVE",
"140 11 OFFCURVE",
"78 80 OFFCURVE",
"158 127 CURVE",
"200 152 LINE",
"191 190 LINE",
"175 257 OFFCURVE",
"121 268 OFFCURVE",
"67 214 CURVE",
"27 174 OFFCURVE",
"21 91 OFFCURVE",
"55 42 CURVE",
"125 -59 OFFCURVE",
"320 -55 OFFCURVE",
"381 48 CURVE",
"410 97 LINE",
"411 572 LINE",
"445 604 LINE",
"464 621 OFFCURVE",
"479 642 OFFCURVE",
"479 651 CURVE",
"479 672 OFFCURVE",
"219 673 OFFCURVE",
"206 651 CURVE"
);
}
);
width = 500;
},
{
layerId = "8BBD64F6-C2DD-426A-A806-28AAAAE0677A";
paths = (
{
closed = 1;
nodes = (
"195 633 OFFCURVE",
"224 611 OFFCURVE",
"259 611 CURVE",
"300 611 OFFCURVE",
"308 569 OFFCURVE",
"310 339 CURVE",
"311 94 OFFCURVE",
"302 55 OFFCURVE",
"239 38 CURVE",
"140 11 OFFCURVE",
"78 80 OFFCURVE",
"158 127 CURVE",
"200 152 LINE",
"191 190 LINE",
"175 257 OFFCURVE",
"121 268 OFFCURVE",
"67 214 CURVE",
"27 174 OFFCURVE",
"21 91 OFFCURVE",
"55 42 CURVE",
"125 -59 OFFCURVE",
"320 -55 OFFCURVE",
"381 48 CURVE",
"410 97 LINE",
"411 572 LINE",
"445 604 LINE",
"464 621 OFFCURVE",
"479 642 OFFCURVE",
"479 651 CURVE",
"479 672 OFFCURVE",
"219 673 OFFCURVE",
"206 651 CURVE"
);
}
);
width = 500;
},
{
layerId = "664CC791-0498-4EB7-B1D0-E1FFFC98853E";
paths = (
{
closed = 1;
nodes = (
"206 726 LINE",
"206 714 OFFCURVE",
"223 697 OFFCURVE",
"244 688 CURVE",
"265 679 OFFCURVE",
"287 665 OFFCURVE",
"293 657 CURVE",
"298 649 OFFCURVE",
"303 523 OFFCURVE",
"303 376 CURVE",
"303 109 LINE",
"274 72 LINE",
"240 29 OFFCURVE",
"179 23 OFFCURVE",
"145 61 CURVE",
"113 97 OFFCURVE",
"116 117 OFFCURVE",
"157 136 CURVE",
"193 152 LINE",
"189 195 LINE",
"186 227 OFFCURVE",
"175 241 OFFCURVE",
"146 251 CURVE",
"107 265 LINE",
"72 230 LINE",
"3 160 OFFCURVE",
"32 54 OFFCURVE",
"136 1 CURVE",
"185 -24 OFFCURVE",
"299 -11 OFFCURVE",
"347 25 CURVE",
"409 71 OFFCURVE",
"420 128 OFFCURVE",
"421 412 CURVE",
"422 671 LINE",
"453 684 LINE",
"487 699 OFFCURVE",
"496 733 OFFCURVE",
"467 734 CURVE",
"458 735 OFFCURVE",
"395 738 OFFCURVE",
"328 741 CURVE",
"206 747 LINE"
);
}
);
width = 500;
},
{
layerId = "9F6891F3-FE19-4DFC-8FDB-D5777C380353";
paths = (
{
closed = 1;
nodes = (
"195 633 OFFCURVE",
"224 611 OFFCURVE",
"259 611 CURVE",
"300 611 OFFCURVE",
"308 569 OFFCURVE",
"310 339 CURVE",
"311 94 OFFCURVE",
"302 55 OFFCURVE",
"239 38 CURVE",
"140 11 OFFCURVE",
"78 80 OFFCURVE",
"158 127 CURVE",
"200 152 LINE",
"191 190 LINE",
"175 257 OFFCURVE",
"121 268 OFFCURVE",
"67 214 CURVE",
"27 174 OFFCURVE",
"21 91 OFFCURVE",
"55 42 CURVE",
"125 -59 OFFCURVE",
"320 -55 OFFCURVE",
"381 48 CURVE",
"410 97 LINE",
"411 572 LINE",
"445 604 LINE",
"464 621 OFFCURVE",
"479 642 OFFCURVE",
"479 651 CURVE",
"479 672 OFFCURVE",
"219 673 OFFCURVE",
"206 651 CURVE"
);
}
);
width = 500;
}
);
leftKerningGroup = J;
rightKerningGroup = J;
unicode = 004A;
},
{
glyphname = K;
layers = (
{
backgroundImage = {
imagePath = ../references/CenturyMedium9.png;
transform = "{13.96008, 0, 0, 13.96008, -7120.972, -2588.99}";
};
layerId = "87410FD4-54DA-4328-9944-625314575885";
paths = (
{
closed = 1;
nodes = (
"63.571 700.33 OFFCURVE",
"92.147 678.203 OFFCURVE",
"126.308 677.882 CURVE",
"138.928 677.77 OFFCURVE",
"153.055 667.733 OFFCURVE",
"157.718 655.587 CURVE",
"162.381 643.442 OFFCURVE",
"166.192 505.725 OFFCURVE",
"166.192 349.553 CURVE",
"166.192 65.59 LINE",
"116.606 49.229 LINE",
"89.341 40.224 OFFCURVE",
"69.42 25.608 OFFCURVE",
"72.338 16.73 CURVE",
"77.796 0.201 OFFCURVE",
"291.191 -20.712 OFFCURVE",
"337.204 -9.222 CURVE",
"374.366 0.061 OFFCURVE",
"366.45 21.322 OFFCURVE",
"319.753 37.6 CURVE",
"277.873 52.202 LINE",
"274.927 124.125 LINE",
"269.204 263.796 OFFCURVE",
"272.847 285.183 OFFCURVE",
"307.357 314.15 CURVE",
"325.687 329.52 OFFCURVE",
"347.827 340.661 OFFCURVE",
"356.566 338.874 CURVE",
"377.395 334.644 OFFCURVE",
"557.076 95.562 OFFCURVE",
"557.076 72.081 CURVE",
"557.076 62.114 OFFCURVE",
"541.022 46.632 OFFCURVE",
"521.394 37.684 CURVE",
"456.954 8.326 OFFCURVE",
"499.756 -6.374 OFFCURVE",
"649.659 -6.374 CURVE",
"796.45 -6.374 LINE",
"791.788 18.056 LINE",
"789.233 31.499 OFFCURVE",
"773.276 44.468 OFFCURVE",
"756.329 46.883 CURVE",
"708.557 53.71 OFFCURVE",
"445.395 380.419 OFFCURVE",
"445.395 432.895 CURVE",
"445.395 463.049 OFFCURVE",
"664.08 668.78 OFFCURVE",
"711.447 683.187 CURVE",
"734.035 690.055 OFFCURVE",
"752.518 704.42 OFFCURVE",
"752.518 715.099 CURVE",
"752.518 734.518 LINE",
"617.537 730.525 LINE",
"475.884 726.337 OFFCURVE",
"436.725 707.114 OFFCURVE",
"514.567 679.99 CURVE",
"537.95 671.837 OFFCURVE",
"557.076 656.578 OFFCURVE",
"557.076 646.067 CURVE",
"557.076 635.568 OFFCURVE",
"496.573 567.708 OFFCURVE",
"422.64 495.269 CURVE",
"288.204 363.569 LINE",
"275.765 396.976 LINE",
"262.531 432.56 OFFCURVE",
"261.4 557.126 OFFCURVE",
"273.629 632.427 CURVE",
"279.018 665.555 OFFCURVE",
"290.088 680.213 OFFCURVE",
"314.351 686.3 CURVE",
"352.699 695.918 OFFCURVE",
"357.585 712.768 OFFCURVE",
"325.589 725.039 CURVE",
"286.417 740.074 OFFCURVE",
"84.637 734.406 OFFCURVE",
"74.488 717.989 CURVE"
);
}
);
width = 800;
},
{
background = {
paths = (
{
closed = 1;
nodes = (
"33 700 OFFCURVE",
"61 678 OFFCURVE",
"95 678 CURVE",
"108 678 OFFCURVE",
"122 668 OFFCURVE",
"127 656 CURVE",
"131 643 OFFCURVE",
"135 506 OFFCURVE",
"135 350 CURVE",
"135 66 LINE",
"86 49 LINE",
"58 40 OFFCURVE",
"38 26 OFFCURVE",
"41 17 CURVE",
"47 0 OFFCURVE",
"260 -21 OFFCURVE",
"306 -9 CURVE",
"343 0 OFFCURVE",
"335 21 OFFCURVE",
"289 38 CURVE",
"247 52 LINE",
"244 124 LINE",
"238 264 OFFCURVE",
"242 285 OFFCURVE",
"276 314 CURVE",
"295 330 OFFCURVE",
"317 341 OFFCURVE",
"326 339 CURVE",
"346 335 OFFCURVE",
"526 96 OFFCURVE",
"526 72 CURVE",
"526 62 OFFCURVE",
"510 47 OFFCURVE",
"490 38 CURVE",
"426 8 OFFCURVE",
"469 -6 OFFCURVE",
"619 -6 CURVE",
"765 -6 LINE",
"761 18 LINE",
"758 31 OFFCURVE",
"742 44 OFFCURVE",
"725 47 CURVE",
"678 54 OFFCURVE",
"414 380 OFFCURVE",
"414 433 CURVE",
"414 463 OFFCURVE",
"633 669 OFFCURVE",
"680 683 CURVE",
"703 690 OFFCURVE",
"722 704 OFFCURVE",
"722 715 CURVE",
"722 735 LINE",
"587 731 LINE",
"445 726 OFFCURVE",
"406 707 OFFCURVE",
"484 680 CURVE",
"507 672 OFFCURVE",
"526 657 OFFCURVE",
"526 646 CURVE",
"526 636 OFFCURVE",
"466 568 OFFCURVE",
"392 495 CURVE",
"257 364 LINE",
"245 397 LINE",
"232 433 OFFCURVE",
"230 557 OFFCURVE",
"243 632 CURVE",
"248 666 OFFCURVE",
"259 680 OFFCURVE",
"283 686 CURVE",
"322 696 OFFCURVE",
"327 713 OFFCURVE",
"295 725 CURVE",
"255 740 OFFCURVE",
"54 734 OFFCURVE",
"43 718 CURVE"
);
}
);
};
color = 4;
hints = (
{
origin = "{0, 0}";
scale = "{-1.4, 1.08}";
type = Corner;
name = _corner.serif.lc.foot;
options = 1;
},
{
origin = "{0, 3}";
scale = "{1.4, 1.08}";
type = Corner;
name = _corner.serif.lc.foot;
},
{
origin = "{1, 1}";
scale = "{1.6, 1.1}";
type = Corner;
name = _corner.serif.lc.foot;
},
{
origin = "{1, 2}";
scale = "{-1.6, 1.1}";
type = Corner;
name = _corner.serif.lc.foot;
options = 1;
},
{
origin = "{3, 0}";
scale = "{-1.44, 1.08}";
type = Corner;
name = _corner.serif.lc.foot;
},
{
origin = "{3, 1}";
scale = "{-1.44, -1.08}";
type = Corner;
name = _corner.serif.lc.foot;
},
{
origin = "{3, 2}";
scale = "{1.44, -1.08}";
type = Corner;
name = _corner.serif.lc.foot;
},
{
origin = "{3, 3}";
scale = "{1.44, 1.08}";
type = Corner;
name = _corner.serif.lc.foot;
}
);
layerId = "2EA6C462-E43A-4553-9036-03D60599BBF6";
paths = (
{
closed = 1;
nodes = (
"729 0 LINE",
"385 445 LINE",
"302 375 LINE",
"594 0 LINE"
);
},
{
closed = 1;
nodes = (
"224 260 LINE",
"695 720 LINE",
"612 720 LINE",
"148 260 LINE"
);
},
{
closed = 1;
nodes = (
"228 331 LINE",
"259 331 LINE",
"259 359 LINE",
"228 359 LINE"
);
},
{
closed = 1;
nodes = (
"244 0 LINE",
"244 720 LINE",
"136 720 LINE",
"136 0 LINE"
);
}
);
width = 800;
},
{
layerId = "F6C816F3-9BC2-4509-B825-E49BED503D7A";
paths = (
{
closed = 1;
nodes = (
"39 638 OFFCURVE",
"50 625 OFFCURVE",
"94 614 CURVE",
"139 602 LINE",
"147 547 LINE",
"151 517 OFFCURVE",
"154 392 OFFCURVE",
"154 269 CURVE",
"153 46 LINE",
"112 39 LINE",
"87 35 OFFCURVE",
"68 22 OFFCURVE",
"65 7 CURVE",
"61 -18 LINE",
"196 -14 LINE",
"338 -10 OFFCURVE",
"373 7 OFFCURVE",
"300 35 CURVE",
"258 51 LINE",
"258 113 LINE",
"258 148 OFFCURVE",
"255 185 OFFCURVE",
"250 196 CURVE",
"239 227 OFFCURVE",
"310 304 OFFCURVE",
"350 304 CURVE",
"368 304 OFFCURVE",
"383 299 OFFCURVE",
"383 293 CURVE",
"383 286 OFFCURVE",
"418 238 OFFCURVE",
"460 185 CURVE",
"542 82 OFFCURVE",
"554 47 OFFCURVE",
"509 35 CURVE",
"494 31 OFFCURVE",
"481 18 OFFCURVE",
"481 6 CURVE",
"481 -17 LINE",
"605 -17 LINE",
"778 -17 OFFCURVE",
"821 4 OFFCURVE",
"729 44 CURVE",
"680 65 OFFCURVE",
"664 80 OFFCURVE",
"582 180 CURVE",
"463 328 OFFCURVE",
"425 378 OFFCURVE",
"425 392 CURVE",
"425 419 OFFCURVE",
"614 590 OFFCURVE",
"673 616 CURVE",
"705 631 OFFCURVE",
"728 648 OFFCURVE",
"724 655 CURVE",
"720 661 OFFCURVE",
"657 667 OFFCURVE",
"585 667 CURVE",
"453 667 LINE",
"453 647 LINE",
"453 636 OFFCURVE",
"466 623 OFFCURVE",
"481 618 CURVE",
"496 613 OFFCURVE",
"509 598 OFFCURVE",
"509 584 CURVE",
"509 547 OFFCURVE",
"285 314 OFFCURVE",
"266 332 CURVE",
"258 340 OFFCURVE",
"250 399 OFFCURVE",
"248 464 CURVE",
"244 590 OFFCURVE",
"259 625 OFFCURVE",
"316 625 CURVE",
"332 625 OFFCURVE",
"342 632 OFFCURVE",
"338 642 CURVE",
"332 661 OFFCURVE",
"76 675 OFFCURVE",
"59 658 CURVE"
);
}
);
width = 800;
},
{
layerId = "8BBD64F6-C2DD-426A-A806-28AAAAE0677A";
paths = (
{
closed = 1;
nodes = (
"39 638 OFFCURVE",
"50 625 OFFCURVE",
"94 614 CURVE",
"139 602 LINE",
"147 547 LINE",
"151 517 OFFCURVE",
"154 392 OFFCURVE",
"154 269 CURVE",
"153 46 LINE",
"112 39 LINE",
"87 35 OFFCURVE",
"68 22 OFFCURVE",
"65 7 CURVE",
"61 -18 LINE",
"196 -14 LINE",
"338 -10 OFFCURVE",
"373 7 OFFCURVE",
"300 35 CURVE",
"258 51 LINE",
"258 113 LINE",
"258 148 OFFCURVE",
"255 185 OFFCURVE",
"250 196 CURVE",
"239 227 OFFCURVE",
"310 304 OFFCURVE",
"350 304 CURVE",
"368 304 OFFCURVE",
"383 299 OFFCURVE",
"383 293 CURVE",
"383 286 OFFCURVE",
"418 238 OFFCURVE",
"460 185 CURVE",
"542 82 OFFCURVE",
"554 47 OFFCURVE",
"509 35 CURVE",
"494 31 OFFCURVE",
"481 18 OFFCURVE",
"481 6 CURVE",
"481 -17 LINE",
"605 -17 LINE",
"778 -17 OFFCURVE",
"821 4 OFFCURVE",
"729 44 CURVE",
"680 65 OFFCURVE",
"664 80 OFFCURVE",
"582 180 CURVE",
"463 328 OFFCURVE",
"425 378 OFFCURVE",
"425 392 CURVE",
"425 419 OFFCURVE",
"614 590 OFFCURVE",
"673 616 CURVE",
"705 631 OFFCURVE",
"728 648 OFFCURVE",
"724 655 CURVE",
"720 661 OFFCURVE",
"657 667 OFFCURVE",
"585 667 CURVE",
"453 667 LINE",
"453 647 LINE",
"453 636 OFFCURVE",
"466 623 OFFCURVE",
"481 618 CURVE",
"496 613 OFFCURVE",
"509 598 OFFCURVE",
"509 584 CURVE",
"509 547 OFFCURVE",
"285 314 OFFCURVE",
"266 332 CURVE",
"258 340 OFFCURVE",
"250 399 OFFCURVE",
"248 464 CURVE",
"244 590 OFFCURVE",
"259 625 OFFCURVE",
"316 625 CURVE",
"332 625 OFFCURVE",
"342 632 OFFCURVE",
"338 642 CURVE",
"332 661 OFFCURVE",
"76 675 OFFCURVE",
"59 658 CURVE"
);
}
);
width = 800;
},
{
backgroundImage = {
imagePath = ../references/CenturyMedium9.png;
transform = "{13.96014, 0, 0, 13.96014, -7121, -2589}";
};
layerId = "664CC791-0498-4EB7-B1D0-E1FFFC98853E";
paths = (
{
closed = 1;
nodes = (
"63.571 700.33 OFFCURVE",
"92.147 678.203 OFFCURVE",
"126.308 677.882 CURVE",
"138.928 677.77 OFFCURVE",
"153.055 667.733 OFFCURVE",
"157.718 655.587 CURVE",
"162.381 643.442 OFFCURVE",
"166.192 505.725 OFFCURVE",
"166.192 349.553 CURVE",
"166.192 65.59 LINE",
"116.606 49.229 LINE",
"89.341 40.224 OFFCURVE",
"69.42 25.608 OFFCURVE",
"72.338 16.73 CURVE",
"77.796 0.201 OFFCURVE",
"291.191 -20.712 OFFCURVE",
"337.204 -9.222 CURVE",
"374.366 0.061 OFFCURVE",
"366.45 21.322 OFFCURVE",
"319.753 37.6 CURVE",
"277.873 52.202 LINE",
"274.927 124.125 LINE",
"269.204 263.796 OFFCURVE",
"272.847 285.183 OFFCURVE",
"307.357 314.15 CURVE",
"325.687 329.52 OFFCURVE",
"347.827 340.661 OFFCURVE",
"356.566 338.874 CURVE",
"377.395 334.644 OFFCURVE",
"557.076 95.562 OFFCURVE",
"557.076 72.081 CURVE",
"557.076 62.114 OFFCURVE",
"541.022 46.632 OFFCURVE",
"521.394 37.684 CURVE",
"456.954 8.326 OFFCURVE",
"499.756 -6.374 OFFCURVE",
"649.659 -6.374 CURVE",
"796.45 -6.374 LINE",
"791.788 18.056 LINE",
"789.233 31.499 OFFCURVE",
"773.276 44.468 OFFCURVE",
"756.329 46.883 CURVE",
"708.557 53.71 OFFCURVE",
"445.395 380.419 OFFCURVE",
"445.395 432.895 CURVE",
"445.395 463.049 OFFCURVE",
"664.08 668.78 OFFCURVE",
"711.447 683.187 CURVE",
"734.035 690.055 OFFCURVE",
"752.518 704.42 OFFCURVE",
"752.518 715.099 CURVE",
"752.518 734.518 LINE",
"617.537 730.525 LINE",
"475.884 726.337 OFFCURVE",
"436.725 707.114 OFFCURVE",
"514.567 679.99 CURVE",
"537.95 671.837 OFFCURVE",
"557.076 656.578 OFFCURVE",
"557.076 646.067 CURVE",
"557.076 635.568 OFFCURVE",
"496.573 567.708 OFFCURVE",
"422.64 495.269 CURVE",
"288.204 363.569 LINE",
"275.765 396.976 LINE",
"262.531 432.56 OFFCURVE",
"261.4 557.126 OFFCURVE",
"273.629 632.427 CURVE",
"279.018 665.555 OFFCURVE",
"290.088 680.213 OFFCURVE",
"314.351 686.3 CURVE",
"352.699 695.918 OFFCURVE",
"357.585 712.768 OFFCURVE",
"325.589 725.039 CURVE",
"286.417 740.074 OFFCURVE",
"84.637 734.406 OFFCURVE",
"74.488 717.989 CURVE"
);
}
);
width = 800;
},
{
layerId = "9F6891F3-FE19-4DFC-8FDB-D5777C380353";
paths = (
{
closed = 1;
nodes = (
"39 638 OFFCURVE",
"50 625 OFFCURVE",
"94 614 CURVE",
"139 602 LINE",
"147 547 LINE",
"151 517 OFFCURVE",
"154 392 OFFCURVE",
"154 269 CURVE",
"153 46 LINE",
"112 39 LINE",
"87 35 OFFCURVE",
"68 22 OFFCURVE",
"65 7 CURVE",
"61 -18 LINE",
"196 -14 LINE",
"338 -10 OFFCURVE",
"373 7 OFFCURVE",
"300 35 CURVE",
"258 51 LINE",
"258 113 LINE",
"258 148 OFFCURVE",
"255 185 OFFCURVE",
"250 196 CURVE",
"239 227 OFFCURVE",
"310 304 OFFCURVE",
"350 304 CURVE",
"368 304 OFFCURVE",
"383 299 OFFCURVE",
"383 293 CURVE",
"383 286 OFFCURVE",
"418 238 OFFCURVE",
"460 185 CURVE",
"542 82 OFFCURVE",
"554 47 OFFCURVE",
"509 35 CURVE",
"494 31 OFFCURVE",
"481 18 OFFCURVE",
"481 6 CURVE",
"481 -17 LINE",
"605 -17 LINE",
"778 -17 OFFCURVE",
"821 4 OFFCURVE",
"729 44 CURVE",
"680 65 OFFCURVE",
"664 80 OFFCURVE",
"582 180 CURVE",
"463 328 OFFCURVE",
"425 378 OFFCURVE",
"425 392 CURVE",
"425 419 OFFCURVE",
"614 590 OFFCURVE",
"673 616 CURVE",
"705 631 OFFCURVE",
"728 648 OFFCURVE",
"724 655 CURVE",
"720 661 OFFCURVE",
"657 667 OFFCURVE",
"585 667 CURVE",
"453 667 LINE",
"453 647 LINE",
"453 636 OFFCURVE",
"466 623 OFFCURVE",
"481 618 CURVE",
"496 613 OFFCURVE",
"509 598 OFFCURVE",
"509 584 CURVE",
"509 547 OFFCURVE",
"285 314 OFFCURVE",
"266 332 CURVE",
"258 340 OFFCURVE",
"250 399 OFFCURVE",
"248 464 CURVE",
"244 590 OFFCURVE",
"259 625 OFFCURVE",
"316 625 CURVE",
"332 625 OFFCURVE",
"342 632 OFFCURVE",
"338 642 CURVE",
"332 661 OFFCURVE",
"76 675 OFFCURVE",
"59 658 CURVE"
);
}
);
width = 800;
}
);
leftKerningGroup = H;
rightKerningGroup = K;
unicode = 004B;
},
{
glyphname = L;
layers = (
{
layerId = "87410FD4-54DA-4328-9944-625314575885";
paths = (
{
closed = 1;
nodes = (
"44 699 OFFCURVE",
"62 678 OFFCURVE",
"92 678 CURVE",
"107 678 OFFCURVE",
"125 667 OFFCURVE",
"132 653 CURVE",
"145 628 OFFCURVE",
"151 117 OFFCURVE",
"139 74 CURVE",
"135 58 OFFCURVE",
"118 49 OFFCURVE",
"91 49 CURVE",
"60 49 OFFCURVE",
"50 43 OFFCURVE",
"50 22 CURVE",
"50 -6 LINE",
"103 -7 LINE",
"261 -9 OFFCURVE",
"615 -5 OFFCURVE",
"619 -1 CURVE",
"622 2 OFFCURVE",
"627 44 OFFCURVE",
"631 93 CURVE",
"635 142 OFFCURVE",
"641 196 OFFCURVE",
"644 212 CURVE",
"647 228 OFFCURVE",
"641 249 OFFCURVE",
"630 259 CURVE",
"609 276 LINE",
"603 257 LINE",
"599 246 OFFCURVE",
"589 212 OFFCURVE",
"581 179 CURVE",
"564 111 OFFCURVE",
"518 70 OFFCURVE",
"436 48 CURVE",
"380 33 OFFCURVE",
"281 38 OFFCURVE",
"262 56 CURVE",
"257 62 OFFCURVE",
"253 198 OFFCURVE",
"252 359 CURVE",
"252 653 LINE",
"280 672 LINE",
"295 683 OFFCURVE",
"323 692 OFFCURVE",
"341 692 CURVE",
"361 692 OFFCURVE",
"371 698 OFFCURVE",
"368 709 CURVE",
"360 731 OFFCURVE",
"71 742 OFFCURVE",
"57 720 CURVE"
);
}
);
width = 700;
},
{
background = {
paths = (
{
closed = 1;
nodes = (
"35 699 OFFCURVE",
"53 678 OFFCURVE",
"83 678 CURVE",
"98 678 OFFCURVE",
"116 667 OFFCURVE",
"123 653 CURVE",
"136 628 OFFCURVE",
"142 117 OFFCURVE",
"130 74 CURVE",
"126 58 OFFCURVE",
"109 49 OFFCURVE",
"82 49 CURVE",
"51 49 OFFCURVE",
"41 43 OFFCURVE",
"41 22 CURVE",
"41 -6 LINE",
"94 -7 LINE",
"252 -9 OFFCURVE",
"606 -5 OFFCURVE",
"610 -1 CURVE",
"613 2 OFFCURVE",
"618 44 OFFCURVE",
"622 93 CURVE",
"626 142 OFFCURVE",
"632 196 OFFCURVE",
"635 212 CURVE",
"638 228 OFFCURVE",
"632 249 OFFCURVE",
"621 259 CURVE",
"600 276 LINE",
"594 257 LINE",
"590 246 OFFCURVE",
"580 212 OFFCURVE",
"572 179 CURVE",
"555 111 OFFCURVE",
"509 70 OFFCURVE",
"427 48 CURVE",
"371 33 OFFCURVE",
"272 38 OFFCURVE",
"253 56 CURVE",
"248 62 OFFCURVE",
"244 198 OFFCURVE",
"243 359 CURVE",
"243 653 LINE",
"271 672 LINE",
"286 683 OFFCURVE",
"314 692 OFFCURVE",
"332 692 CURVE",
"352 692 OFFCURVE",
"362 698 OFFCURVE",
"359 709 CURVE",
"351 731 OFFCURVE",
"62 742 OFFCURVE",
"48 720 CURVE"
);
}
);
};
color = 4;
hints = (
{
origin = "{0, 0}";
type = Corner;
name = _corner.round;
},
{
origin = "{0, 1}";
type = Corner;
name = _corner.round;
},
{
origin = "{0, 2}";
type = Corner;
name = _corner.round;
},
{
origin = "{0, 6}";
type = Corner;
name = _corner.uc.inside;
},
{
origin = "{0, 8}";
scale = "{1.44, -1.08}";
type = Corner;
name = _corner.serif.lc.foot;
},
{
origin = "{0, 9}";
scale = "{1.44, 1.08}";
type = Corner;
name = _corner.serif.lc.foot;
},
{
origin = "{0, 7}";
scale = "{-1.6, -1.08}";
type = Corner;
name = _corner.serif.lc.foot;
}
);
layerId = "2EA6C462-E43A-4553-9036-03D60599BBF6";
paths = (
{
closed = 1;
nodes = (
"611 0 LINE",
"639 269 LINE",
"589 275 LINE",
"560 111 OFFCURVE",
"516 52 OFFCURVE",
"372 52 CURVE SMOOTH",
"244 52 LINE",
"244 720 LINE",
"136 720 LINE",
"136 0 LINE"
);
}
);
width = 700;
},
{
layerId = "F6C816F3-9BC2-4509-B825-E49BED503D7A";
paths = (
{
closed = 1;
nodes = (
"70 679 LINE",
"74 656 LINE",
"77 642 OFFCURVE",
"93 630 OFFCURVE",
"110 627 CURVE",
"127 625 OFFCURVE",
"147 612 OFFCURVE",
"153 599 CURVE",
"168 570 OFFCURVE",
"165 94 OFFCURVE",
"151 70 CURVE",
"145 61 OFFCURVE",
"124 53 OFFCURVE",
"105 53 CURVE",
"79 53 OFFCURVE",
"71 47 OFFCURVE",
"74 29 CURVE",
"79 4 LINE",
"345 1 LINE",
"555 -2 OFFCURVE",
"615 1 OFFCURVE",
"628 16 CURVE",
"651 44 OFFCURVE",
"664 267 OFFCURVE",
"642 259 CURVE",
"632 256 OFFCURVE",
"620 245 OFFCURVE",
"615 233 CURVE",
"567 131 OFFCURVE",
"549 102 OFFCURVE",
"521 84 CURVE",
"483 59 OFFCURVE",
"310 46 OFFCURVE",
"282 65 CURVE",
"262 79 LINE",
"263 340 LINE",
"264 602 LINE",
"289 620 LINE",
"303 630 OFFCURVE",
"328 639 OFFCURVE",
"346 639 CURVE",
"384 639 OFFCURVE",
"390 675 OFFCURVE",
"354 682 CURVE",
"341 685 OFFCURVE",
"271 686 OFFCURVE",
"200 683 CURVE"
);
}
);
width = 700;
},
{
layerId = "8BBD64F6-C2DD-426A-A806-28AAAAE0677A";
paths = (
{
closed = 1;
nodes = (
"70 679 LINE",
"74 656 LINE",
"77 642 OFFCURVE",
"93 630 OFFCURVE",
"110 627 CURVE",
"127 625 OFFCURVE",
"147 612 OFFCURVE",
"153 599 CURVE",
"168 570 OFFCURVE",
"165 94 OFFCURVE",
"151 70 CURVE",
"145 61 OFFCURVE",
"124 53 OFFCURVE",
"105 53 CURVE",
"79 53 OFFCURVE",
"71 47 OFFCURVE",
"74 29 CURVE",
"79 4 LINE",
"345 1 LINE",
"555 -2 OFFCURVE",
"615 1 OFFCURVE",
"628 16 CURVE",
"651 44 OFFCURVE",
"664 267 OFFCURVE",
"642 259 CURVE",
"632 256 OFFCURVE",
"620 245 OFFCURVE",
"615 233 CURVE",
"567 131 OFFCURVE",
"549 102 OFFCURVE",
"521 84 CURVE",
"483 59 OFFCURVE",
"310 46 OFFCURVE",
"282 65 CURVE",
"262 79 LINE",
"263 340 LINE",
"264 602 LINE",
"289 620 LINE",
"303 630 OFFCURVE",
"328 639 OFFCURVE",
"346 639 CURVE",
"384 639 OFFCURVE",
"390 675 OFFCURVE",
"354 682 CURVE",
"341 685 OFFCURVE",
"271 686 OFFCURVE",
"200 683 CURVE"
);
}
);
width = 700;
},
{
layerId = "664CC791-0498-4EB7-B1D0-E1FFFC98853E";
paths = (
{
closed = 1;
nodes = (
"44 699 OFFCURVE",
"62 678 OFFCURVE",
"92 678 CURVE",
"107 678 OFFCURVE",
"125 667 OFFCURVE",
"132 653 CURVE",
"145 628 OFFCURVE",
"151 117 OFFCURVE",
"139 74 CURVE",
"135 58 OFFCURVE",
"118 49 OFFCURVE",
"91 49 CURVE",
"60 49 OFFCURVE",
"50 43 OFFCURVE",
"50 22 CURVE",
"50 -6 LINE",
"103 -7 LINE",
"261 -9 OFFCURVE",
"615 -5 OFFCURVE",
"619 -1 CURVE",
"622 2 OFFCURVE",
"627 44 OFFCURVE",
"631 93 CURVE",
"635 142 OFFCURVE",
"641 196 OFFCURVE",
"644 212 CURVE",
"647 228 OFFCURVE",
"641 249 OFFCURVE",
"630 259 CURVE",
"609 276 LINE",
"603 257 LINE",
"599 246 OFFCURVE",
"589 212 OFFCURVE",
"581 179 CURVE",
"564 111 OFFCURVE",
"518 70 OFFCURVE",
"436 48 CURVE",
"380 33 OFFCURVE",
"281 38 OFFCURVE",
"262 56 CURVE",
"257 62 OFFCURVE",
"253 198 OFFCURVE",
"252 359 CURVE",
"252 653 LINE",
"280 672 LINE",
"295 683 OFFCURVE",
"323 692 OFFCURVE",
"341 692 CURVE",
"361 692 OFFCURVE",
"371 698 OFFCURVE",
"368 709 CURVE",
"360 731 OFFCURVE",
"71 742 OFFCURVE",
"57 720 CURVE"
);
}
);
width = 700;
},
{
layerId = "9F6891F3-FE19-4DFC-8FDB-D5777C380353";
paths = (
{
closed = 1;
nodes = (
"70 679 LINE",
"74 656 LINE",
"77 642 OFFCURVE",
"93 630 OFFCURVE",
"110 627 CURVE",
"127 625 OFFCURVE",
"147 612 OFFCURVE",
"153 599 CURVE",
"168 570 OFFCURVE",
"165 94 OFFCURVE",
"151 70 CURVE",
"145 61 OFFCURVE",
"124 53 OFFCURVE",
"105 53 CURVE",
"79 53 OFFCURVE",
"71 47 OFFCURVE",
"74 29 CURVE",
"79 4 LINE",
"345 1 LINE",
"555 -2 OFFCURVE",
"615 1 OFFCURVE",
"628 16 CURVE",
"651 44 OFFCURVE",
"664 267 OFFCURVE",
"642 259 CURVE",
"632 256 OFFCURVE",
"620 245 OFFCURVE",
"615 233 CURVE",
"567 131 OFFCURVE",
"549 102 OFFCURVE",
"521 84 CURVE",
"483 59 OFFCURVE",
"310 46 OFFCURVE",
"282 65 CURVE",
"262 79 LINE",
"263 340 LINE",
"264 602 LINE",
"289 620 LINE",
"303 630 OFFCURVE",
"328 639 OFFCURVE",
"346 639 CURVE",
"384 639 OFFCURVE",
"390 675 OFFCURVE",
"354 682 CURVE",
"341 685 OFFCURVE",
"271 686 OFFCURVE",
"200 683 CURVE"
);
}
);
width = 700;
}
);
leftKerningGroup = H;
rightKerningGroup = L;
unicode = 004C;
},
{
color = 4;
glyphname = M;
layers = (
{
layerId = "87410FD4-54DA-4328-9944-625314575885";
paths = (
{
closed = 1;
nodes = (
"1 699 OFFCURVE",
"18 678 OFFCURVE",
"48 678 CURVE",
"108 678 OFFCURVE",
"112 655 OFFCURVE",
"109 356 CURVE",
"106 72 LINE",
"82 54 LINE",
"68 44 OFFCURVE",
"46 36 OFFCURVE",
"32 36 CURVE",
"-5 36 OFFCURVE",
"1 -4 OFFCURVE",
"38 -14 CURVE",
"56 -18 OFFCURVE",
"108 -20 OFFCURVE",
"153 -17 CURVE",
"218 -13 OFFCURVE",
"238 -7 OFFCURVE",
"241 12 CURVE",
"244 28 OFFCURVE",
"237 36 OFFCURVE",
"217 36 CURVE",
"159 36 OFFCURVE",
"155 67 OFFCURVE",
"159 495 CURVE",
"160 570 OFFCURVE",
"165 609 OFFCURVE",
"173 600 CURVE",
"180 593 OFFCURVE",
"230 455 OFFCURVE",
"283 294 CURVE",
"343 109 OFFCURVE",
"386 1 OFFCURVE",
"397 1 CURVE",
"408 1 OFFCURVE",
"435 60 OFFCURVE",
"464 147 CURVE",
"571 473 OFFCURVE",
"625 622 OFFCURVE",
"636 622 CURVE",
"643 622 OFFCURVE",
"649 493 OFFCURVE",
"649 335 CURVE",
"649 49 LINE",
"607 40 LINE",
"584 36 OFFCURVE",
"565 24 OFFCURVE",
"565 14 CURVE",
"565 -7 OFFCURVE",
"635 -15 OFFCURVE",
"757 -9 CURVE",
"853 -3 OFFCURVE",
"872 19 OFFCURVE",
"802 45 CURVE",
"760 61 LINE",
"759 156 LINE",
"759 209 OFFCURVE",
"757 342 OFFCURVE",
"756 452 CURVE",
"753 656 OFFCURVE",
"756 670 OFFCURVE",
"809 680 CURVE",
"824 683 OFFCURVE",
"837 694 OFFCURVE",
"837 706 CURVE",
"837 734 OFFCURVE",
"632 744 OFFCURVE",
"611 717 CURVE",
"604 707 OFFCURVE",
"568 601 OFFCURVE",
"531 482 CURVE",
"450 218 OFFCURVE",
"439 188 OFFCURVE",
"426 196 CURVE",
"413 204 OFFCURVE",
"388 273 OFFCURVE",
"314 503 CURVE",
"282 603 OFFCURVE",
"247 693 OFFCURVE",
"237 704 CURVE",
"214 728 OFFCURVE",
"27 742 OFFCURVE",
"14 721 CURVE"
);
}
);
width = 900;
},
{
hints = (
{
origin = "{4, 0}";
scale = "{-1.44, 1.08}";
type = Corner;
name = _corner.serif.lc.foot;
},
{
origin = "{4, 1}";
scale = "{-1.44, -1.08}";
type = Corner;
name = _corner.serif.lc.foot;
},
{
origin = "{4, 3}";
scale = "{1.44, 1.08}";
type = Corner;
name = _corner.serif.lc.foot;
},
{
origin = "{1, 2}";
scale = "{1.44, -1.08}";
type = Corner;
name = _corner.serif.lc.foot;
},
{
origin = "{0, 2}";
type = Corner;
name = _corner.round;
},
{
origin = "{3, 2}";
type = Corner;
name = _corner.round;
},
{
origin = "{0, 4}";
type = Corner;
name = _corner.round;
},
{
origin = "{3, 0}";
type = Corner;
name = _corner.round;
},
{
origin = "{1, 3}";
type = Corner;
name = _corner.serif.uc.thin;
},
{
origin = "{1, 0}";
scale = "{-1.02, 1}";
type = Corner;
name = _corner.serif.uc.thin;
}
);
layerId = "2EA6C462-E43A-4553-9036-03D60599BBF6";
paths = (
{
closed = 1;
nodes = (
"417 0 LINE",
"451 137 LINE",
"252 720 LINE",
"144 720 LINE",
"389 0 LINE"
);
},
{
closed = 1;
nodes = (
"170 0 LINE",
"170 720 LINE",
"110 720 LINE",
"110 0 LINE"
);
},
{
closed = 1;
nodes = (
"217 626 LINE",
"217 686 LINE",
"139 686 LINE",
"139 626 LINE"
);
},
{
closed = 1;
nodes = (
"431 0 LINE",
"683 720 LINE",
"625 720 LINE",
"421 137 LINE",
"405 0 LINE"
);
},
{
closed = 1;
nodes = (
"764 0 LINE",
"764 720 LINE",
"656 720 LINE",
"656 0 LINE"
);
},
{
closed = 1;
nodes = (
"697 626 LINE",
"697 686 LINE",
"619 686 LINE",
"619 626 LINE"
);
},
{
closed = 1;
nodes = (
"461 157 LINE",
"461 187 LINE",
"419 187 LINE",
"419 157 LINE"
);
}
);
width = 900;
},
{
layerId = "F6C816F3-9BC2-4509-B825-E49BED503D7A";
paths = (
{
closed = 1;
nodes = (
"3 675 OFFCURVE",
"10 639 OFFCURVE",
"40 639 CURVE",
"55 639 OFFCURVE",
"77 629 OFFCURVE",
"89 617 CURVE",
"111 595 LINE",
"111 109 LINE",
"83 81 LINE",
"67 66 OFFCURVE",
"45 53 OFFCURVE",
"34 53 CURVE",
"1 53 OFFCURVE",
"10 13 OFFCURVE",
"44 4 CURVE",
"69 -2 OFFCURVE",
"162 1 OFFCURVE",
"240 10 CURVE",
"258 12 OFFCURVE",
"251 53 OFFCURVE",
"232 53 CURVE",
"221 53 OFFCURVE",
"200 67 OFFCURVE",
"184 85 CURVE",
"154 116 LINE",
"153 304 LINE",
"151 562 OFFCURVE",
"151 569 OFFCURVE",
"165 569 CURVE",
"172 569 OFFCURVE",
"204 495 OFFCURVE",
"237 405 CURVE",
"335 135 OFFCURVE",
"382 21 OFFCURVE",
"398 15 CURVE",
"407 12 OFFCURVE",
"421 31 OFFCURVE",
"431 56 CURVE",
"440 81 OFFCURVE",
"456 121 OFFCURVE",
"467 144 CURVE",
"477 167 OFFCURVE",
"499 223 OFFCURVE",
"514 269 CURVE",
"565 422 OFFCURVE",
"624 561 OFFCURVE",
"640 566 CURVE",
"651 570 OFFCURVE",
"654 500 OFFCURVE",
"651 323 CURVE",
"648 75 LINE",
"602 62 LINE",
"547 46 OFFCURVE",
"542 11 OFFCURVE",
"595 10 CURVE",
"732 7 OFFCURVE",
"808 10 OFFCURVE",
"821 18 CURVE",
"846 33 OFFCURVE",
"838 51 OFFCURVE",
"797 70 CURVE",
"759 88 LINE",
"755 356 LINE",
"752 624 LINE",
"787 633 LINE",
"809 638 OFFCURVE",
"822 652 OFFCURVE",
"822 668 CURVE",
"822 694 LINE",
"631 694 LINE",
"609 642 LINE",
"597 613 OFFCURVE",
"574 554 OFFCURVE",
"558 510 CURVE",
"455 226 OFFCURVE",
"442 192 OFFCURVE",
"428 192 CURVE",
"422 192 OFFCURVE",
"413 203 OFFCURVE",
"409 217 CURVE",
"405 230 OFFCURVE",
"374 313 OFFCURVE",
"340 402 CURVE",
"307 490 OFFCURVE",
"272 589 OFFCURVE",
"263 621 CURVE",
"246 680 LINE",
"203 686 LINE",
"149 693 OFFCURVE",
"54 692 OFFCURVE",
"31 684 CURVE"
);
}
);
width = 900;
},
{
layerId = "8BBD64F6-C2DD-426A-A806-28AAAAE0677A";
paths = (
{
closed = 1;
nodes = (
"3 675 OFFCURVE",
"10 639 OFFCURVE",
"40 639 CURVE",
"55 639 OFFCURVE",
"77 629 OFFCURVE",
"89 617 CURVE",
"111 595 LINE",
"111 109 LINE",
"83 81 LINE",
"67 66 OFFCURVE",
"45 53 OFFCURVE",
"34 53 CURVE",
"1 53 OFFCURVE",
"10 13 OFFCURVE",
"44 4 CURVE",
"69 -2 OFFCURVE",
"162 1 OFFCURVE",
"240 10 CURVE",
"258 12 OFFCURVE",
"251 53 OFFCURVE",
"232 53 CURVE",
"221 53 OFFCURVE",
"200 67 OFFCURVE",
"184 85 CURVE",
"154 116 LINE",
"153 304 LINE",
"151 562 OFFCURVE",
"151 569 OFFCURVE",
"165 569 CURVE",
"172 569 OFFCURVE",
"204 495 OFFCURVE",
"237 405 CURVE",
"335 135 OFFCURVE",
"382 21 OFFCURVE",
"398 15 CURVE",
"407 12 OFFCURVE",
"421 31 OFFCURVE",
"431 56 CURVE",
"440 81 OFFCURVE",
"456 121 OFFCURVE",
"467 144 CURVE",
"477 167 OFFCURVE",
"499 223 OFFCURVE",
"514 269 CURVE",
"565 422 OFFCURVE",
"624 561 OFFCURVE",
"640 566 CURVE",
"651 570 OFFCURVE",
"654 500 OFFCURVE",
"651 323 CURVE",
"648 75 LINE",
"602 62 LINE",
"547 46 OFFCURVE",
"542 11 OFFCURVE",
"595 10 CURVE",
"732 7 OFFCURVE",
"808 10 OFFCURVE",
"821 18 CURVE",
"846 33 OFFCURVE",
"838 51 OFFCURVE",
"797 70 CURVE",
"759 88 LINE",
"755 356 LINE",
"752 624 LINE",
"787 633 LINE",
"809 638 OFFCURVE",
"822 652 OFFCURVE",
"822 668 CURVE",
"822 694 LINE",
"631 694 LINE",
"609 642 LINE",
"597 613 OFFCURVE",
"574 554 OFFCURVE",
"558 510 CURVE",
"455 226 OFFCURVE",
"442 192 OFFCURVE",
"428 192 CURVE",
"422 192 OFFCURVE",
"413 203 OFFCURVE",
"409 217 CURVE",
"405 230 OFFCURVE",
"374 313 OFFCURVE",
"340 402 CURVE",
"307 490 OFFCURVE",
"272 589 OFFCURVE",
"263 621 CURVE",
"246 680 LINE",
"203 686 LINE",
"149 693 OFFCURVE",
"54 692 OFFCURVE",
"31 684 CURVE"
);
}
);
width = 900;
},
{
layerId = "664CC791-0498-4EB7-B1D0-E1FFFC98853E";
paths = (
{
closed = 1;
nodes = (
"1 699 OFFCURVE",
"18 678 OFFCURVE",
"48 678 CURVE",
"108 678 OFFCURVE",
"112 655 OFFCURVE",
"109 356 CURVE",
"106 72 LINE",
"82 54 LINE",
"68 44 OFFCURVE",
"46 36 OFFCURVE",
"32 36 CURVE",
"-5 36 OFFCURVE",
"1 -4 OFFCURVE",
"38 -14 CURVE",
"56 -18 OFFCURVE",
"108 -20 OFFCURVE",
"153 -17 CURVE",
"218 -13 OFFCURVE",
"238 -7 OFFCURVE",
"241 12 CURVE",
"244 28 OFFCURVE",
"237 36 OFFCURVE",
"217 36 CURVE",
"159 36 OFFCURVE",
"155 67 OFFCURVE",
"159 495 CURVE",
"160 570 OFFCURVE",
"165 609 OFFCURVE",
"173 600 CURVE",
"180 593 OFFCURVE",
"230 455 OFFCURVE",
"283 294 CURVE",
"343 109 OFFCURVE",
"386 1 OFFCURVE",
"397 1 CURVE",
"408 1 OFFCURVE",
"435 60 OFFCURVE",
"464 147 CURVE",
"571 473 OFFCURVE",
"625 622 OFFCURVE",
"636 622 CURVE",
"643 622 OFFCURVE",
"649 493 OFFCURVE",
"649 335 CURVE",
"649 49 LINE",
"607 40 LINE",
"584 36 OFFCURVE",
"565 24 OFFCURVE",
"565 14 CURVE",
"565 -7 OFFCURVE",
"635 -15 OFFCURVE",
"757 -9 CURVE",
"853 -3 OFFCURVE",
"872 19 OFFCURVE",
"802 45 CURVE",
"760 61 LINE",
"759 156 LINE",
"759 209 OFFCURVE",
"757 342 OFFCURVE",
"756 452 CURVE",
"753 656 OFFCURVE",
"756 670 OFFCURVE",
"809 680 CURVE",
"824 683 OFFCURVE",
"837 694 OFFCURVE",
"837 706 CURVE",
"837 734 OFFCURVE",
"632 744 OFFCURVE",
"611 717 CURVE",
"604 707 OFFCURVE",
"568 601 OFFCURVE",
"531 482 CURVE",
"450 218 OFFCURVE",
"439 188 OFFCURVE",
"426 196 CURVE",
"413 204 OFFCURVE",
"388 273 OFFCURVE",
"314 503 CURVE",
"282 603 OFFCURVE",
"247 693 OFFCURVE",
"237 704 CURVE",
"214 728 OFFCURVE",
"27 742 OFFCURVE",
"14 721 CURVE"
);
}
);
width = 900;
},
{
layerId = "9F6891F3-FE19-4DFC-8FDB-D5777C380353";
paths = (
{
closed = 1;
nodes = (
"3 675 OFFCURVE",
"10 639 OFFCURVE",
"40 639 CURVE",
"55 639 OFFCURVE",
"77 629 OFFCURVE",
"89 617 CURVE",
"111 595 LINE",
"111 109 LINE",
"83 81 LINE",
"67 66 OFFCURVE",
"45 53 OFFCURVE",
"34 53 CURVE",
"1 53 OFFCURVE",
"10 13 OFFCURVE",
"44 4 CURVE",
"69 -2 OFFCURVE",
"162 1 OFFCURVE",
"240 10 CURVE",
"258 12 OFFCURVE",
"251 53 OFFCURVE",
"232 53 CURVE",
"221 53 OFFCURVE",
"200 67 OFFCURVE",
"184 85 CURVE",
"154 116 LINE",
"153 304 LINE",
"151 562 OFFCURVE",
"151 569 OFFCURVE",
"165 569 CURVE",
"172 569 OFFCURVE",
"204 495 OFFCURVE",
"237 405 CURVE",
"335 135 OFFCURVE",
"382 21 OFFCURVE",
"398 15 CURVE",
"407 12 OFFCURVE",
"421 31 OFFCURVE",
"431 56 CURVE",
"440 81 OFFCURVE",
"456 121 OFFCURVE",
"467 144 CURVE",
"477 167 OFFCURVE",
"499 223 OFFCURVE",
"514 269 CURVE",
"565 422 OFFCURVE",
"624 561 OFFCURVE",
"640 566 CURVE",
"651 570 OFFCURVE",
"654 500 OFFCURVE",
"651 323 CURVE",
"648 75 LINE",
"602 62 LINE",
"547 46 OFFCURVE",
"542 11 OFFCURVE",
"595 10 CURVE",
"732 7 OFFCURVE",
"808 10 OFFCURVE",
"821 18 CURVE",
"846 33 OFFCURVE",
"838 51 OFFCURVE",
"797 70 CURVE",
"759 88 LINE",
"755 356 LINE",
"752 624 LINE",
"787 633 LINE",
"809 638 OFFCURVE",
"822 652 OFFCURVE",
"822 668 CURVE",
"822 694 LINE",
"631 694 LINE",
"609 642 LINE",
"597 613 OFFCURVE",
"574 554 OFFCURVE",
"558 510 CURVE",
"455 226 OFFCURVE",
"442 192 OFFCURVE",
"428 192 CURVE",
"422 192 OFFCURVE",
"413 203 OFFCURVE",
"409 217 CURVE",
"405 230 OFFCURVE",
"374 313 OFFCURVE",
"340 402 CURVE",
"307 490 OFFCURVE",
"272 589 OFFCURVE",
"263 621 CURVE",
"246 680 LINE",
"203 686 LINE",
"149 693 OFFCURVE",
"54 692 OFFCURVE",
"31 684 CURVE"
);
}
);
width = 900;
}
);
leftKerningGroup = N;
rightKerningGroup = H;
unicode = 004D;
},
{
glyphname = N;
layers = (
{
layerId = "87410FD4-54DA-4328-9944-625314575885";
paths = (
{
closed = 1;
nodes = (
"41 708 OFFCURVE",
"43 698 OFFCURVE",
"50 696 CURVE",
"57 693 OFFCURVE",
"78 683 OFFCURVE",
"98 674 CURVE",
"132 656 LINE",
"139 398 LINE",
"143 250 OFFCURVE",
"141 124 OFFCURVE",
"133 102 CURVE",
"126 81 OFFCURVE",
"102 57 OFFCURVE",
"81 48 CURVE",
"59 39 OFFCURVE",
"42 23 OFFCURVE",
"42 12 CURVE",
"42 -8 LINE",
"156 -3 LINE",
"277 1 OFFCURVE",
"311 22 OFFCURVE",
"238 47 CURVE",
"213 56 OFFCURVE",
"193 74 OFFCURVE",
"188 94 CURVE",
"176 144 OFFCURVE",
"187 573 OFFCURVE",
"200 573 CURVE",
"212 573 OFFCURVE",
"449 237 OFFCURVE",
"476 182 CURVE",
"488 157 OFFCURVE",
"508 126 OFFCURVE",
"579 25 CURVE",
"591 8 OFFCURVE",
"614 -6 OFFCURVE",
"629 -6 CURVE",
"656 -6 LINE",
"656 636 LINE",
"682 662 LINE",
"697 676 OFFCURVE",
"716 691 OFFCURVE",
"726 694 CURVE",
"737 698 OFFCURVE",
"740 708 OFFCURVE",
"734 717 CURVE",
"728 727 OFFCURVE",
"686 734 OFFCURVE",
"620 734 CURVE",
"513 734 OFFCURVE",
"488 718 OFFCURVE",
"551 689 CURVE",
"570 681 OFFCURVE",
"591 654 OFFCURVE",
"599 630 CURVE",
"616 574 OFFCURVE",
"612 212 OFFCURVE",
"593 204 CURVE",
"585 200 OFFCURVE",
"499 318 OFFCURVE",
"401 465 CURVE",
"223 734 LINE",
"140 734 LINE",
"91 734 OFFCURVE",
"53 727 OFFCURVE",
"47 717 CURVE"
);
}
);
width = 800;
},
{
color = 4;
hints = (
{
origin = "{0, 2}";
type = Corner;
name = _corner.round;
},
{
origin = "{0, 4}";
type = Corner;
name = _corner.round;
},
{
origin = "{1, 2}";
scale = "{1.44, -1.08}";
type = Corner;
name = _corner.serif.lc.foot;
},
{
origin = "{4, 2}";
scale = "{1.04, -1}";
type = Corner;
name = _corner.serif.uc.thin;
},
{
origin = "{4, 1}";
scale = "{-1, -1}";
type = Corner;
name = _corner.serif.uc.thin;
},
{
origin = "{1, 3}";
type = Corner;
name = _corner.serif.uc.thin;
},
{
origin = "{1, 0}";
scale = "{-1.04, 1}";
type = Corner;
name = _corner.serif.uc.thin;
},
{
origin = "{4, 0}";
type = Corner;
name = _corner.round;
}
);
layerId = "2EA6C462-E43A-4553-9036-03D60599BBF6";
paths = (
{
closed = 1;
nodes = (
"643 0 LINE",
"643 126 LINE",
"234 720 LINE",
"104 720 LINE",
"600 0 LINE"
);
},
{
closed = 1;
nodes = (
"190 0 LINE",
"190 720 LINE",
"130 720 LINE",
"130 0 LINE"
);
},
{
closed = 1;
nodes = (
"624 161 LINE",
"624 191 LINE",
"582 191 LINE",
"582 161 LINE"
);
},
{
closed = 1;
nodes = (
"217 589 LINE",
"217 629 LINE",
"159 629 LINE",
"159 589 LINE"
);
},
{
closed = 1;
nodes = (
"662 0 LINE",
"662 720 LINE",
"602 720 LINE",
"602 29 LINE",
"639 0 LINE"
);
}
);
width = 800;
},
{
layerId = "F6C816F3-9BC2-4509-B825-E49BED503D7A";
paths = (
{
closed = 1;
nodes = (
"482 677 OFFCURVE",
"483 650 OFFCURVE",
"533 628 CURVE",
"573 610 LINE",
"581 509 LINE",
"593 358 OFFCURVE",
"587 213 OFFCURVE",
"569 213 CURVE",
"551 213 OFFCURVE",
"448 336 OFFCURVE",
"334 492 CURVE",
"290 554 OFFCURVE",
"237 621 OFFCURVE",
"217 642 CURVE",
"182 681 LINE",
"108 681 LINE",
"68 681 OFFCURVE",
"32 675 OFFCURVE",
"27 668 CURVE",
"23 661 OFFCURVE",
"42 642 OFFCURVE",
"69 626 CURVE",
"118 597 LINE",
"110 76 LINE",
"70 54 LINE",
"3 17 OFFCURVE",
"20 4 OFFCURVE",
"142 0 CURVE",
"257 -4 LINE",
"257 23 LINE",
"257 40 OFFCURVE",
"244 53 OFFCURVE",
"221 59 CURVE",
"202 64 OFFCURVE",
"181 82 OFFCURVE",
"175 99 CURVE",
"162 133 OFFCURVE",
"165 482 OFFCURVE",
"178 495 CURVE",
"191 508 OFFCURVE",
"222 476 OFFCURVE",
"324 341 CURVE",
"378 271 OFFCURVE",
"433 201 OFFCURVE",
"447 185 CURVE",
"461 170 OFFCURVE",
"497 121 OFFCURVE",
"528 77 CURVE",
"562 27 OFFCURVE",
"591 -2 OFFCURVE",
"604 0 CURVE",
"626 5 LINE",
"633 590 LINE",
"677 626 LINE",
"703 647 OFFCURVE",
"717 669 OFFCURVE",
"711 678 CURVE",
"702 694 OFFCURVE",
"613 697 OFFCURVE",
"532 685 CURVE"
);
}
);
width = 800;
},
{
layerId = "8BBD64F6-C2DD-426A-A806-28AAAAE0677A";
paths = (
{
closed = 1;
nodes = (
"482 677 OFFCURVE",
"483 650 OFFCURVE",
"533 628 CURVE",
"573 610 LINE",
"581 509 LINE",
"593 358 OFFCURVE",
"587 213 OFFCURVE",
"569 213 CURVE",
"551 213 OFFCURVE",
"448 336 OFFCURVE",
"334 492 CURVE",
"290 554 OFFCURVE",
"237 621 OFFCURVE",
"217 642 CURVE",
"182 681 LINE",
"108 681 LINE",
"68 681 OFFCURVE",
"32 675 OFFCURVE",
"27 668 CURVE",
"23 661 OFFCURVE",
"42 642 OFFCURVE",
"69 626 CURVE",
"118 597 LINE",
"110 76 LINE",
"70 54 LINE",
"3 17 OFFCURVE",
"20 4 OFFCURVE",
"142 0 CURVE",
"257 -4 LINE",
"257 23 LINE",
"257 40 OFFCURVE",
"244 53 OFFCURVE",
"221 59 CURVE",
"202 64 OFFCURVE",
"181 82 OFFCURVE",
"175 99 CURVE",
"162 133 OFFCURVE",
"165 482 OFFCURVE",
"178 495 CURVE",
"191 508 OFFCURVE",
"222 476 OFFCURVE",
"324 341 CURVE",
"378 271 OFFCURVE",
"433 201 OFFCURVE",
"447 185 CURVE",
"461 170 OFFCURVE",
"497 121 OFFCURVE",
"528 77 CURVE",
"562 27 OFFCURVE",
"591 -2 OFFCURVE",
"604 0 CURVE",
"626 5 LINE",
"633 590 LINE",
"677 626 LINE",
"703 647 OFFCURVE",
"717 669 OFFCURVE",
"711 678 CURVE",
"702 694 OFFCURVE",
"613 697 OFFCURVE",
"532 685 CURVE"
);
}
);
width = 800;
},
{
layerId = "664CC791-0498-4EB7-B1D0-E1FFFC98853E";
paths = (
{
closed = 1;
nodes = (
"41 708 OFFCURVE",
"43 698 OFFCURVE",
"50 696 CURVE",
"57 693 OFFCURVE",
"78 683 OFFCURVE",
"98 674 CURVE",
"132 656 LINE",
"139 398 LINE",
"143 250 OFFCURVE",
"141 124 OFFCURVE",
"133 102 CURVE",
"126 81 OFFCURVE",
"102 57 OFFCURVE",
"81 48 CURVE",
"59 39 OFFCURVE",
"42 23 OFFCURVE",
"42 12 CURVE",
"42 -8 LINE",
"156 -3 LINE",
"277 1 OFFCURVE",
"311 22 OFFCURVE",
"238 47 CURVE",
"213 56 OFFCURVE",
"193 74 OFFCURVE",
"188 94 CURVE",
"176 144 OFFCURVE",
"187 573 OFFCURVE",
"200 573 CURVE",
"212 573 OFFCURVE",
"449 237 OFFCURVE",
"476 182 CURVE",
"488 157 OFFCURVE",
"508 126 OFFCURVE",
"579 25 CURVE",
"591 8 OFFCURVE",
"614 -6 OFFCURVE",
"629 -6 CURVE",
"656 -6 LINE",
"656 636 LINE",
"682 662 LINE",
"697 676 OFFCURVE",
"716 691 OFFCURVE",
"726 694 CURVE",
"737 698 OFFCURVE",
"740 708 OFFCURVE",
"734 717 CURVE",
"728 727 OFFCURVE",
"686 734 OFFCURVE",
"620 734 CURVE",
"513 734 OFFCURVE",
"488 718 OFFCURVE",
"551 689 CURVE",
"570 681 OFFCURVE",
"591 654 OFFCURVE",
"599 630 CURVE",
"616 574 OFFCURVE",
"612 212 OFFCURVE",
"593 204 CURVE",
"585 200 OFFCURVE",
"499 318 OFFCURVE",
"401 465 CURVE",
"223 734 LINE",
"140 734 LINE",
"91 734 OFFCURVE",
"53 727 OFFCURVE",
"47 717 CURVE"
);
}
);
width = 800;
},
{
layerId = "9F6891F3-FE19-4DFC-8FDB-D5777C380353";
paths = (
{
closed = 1;
nodes = (
"482 677 OFFCURVE",
"483 650 OFFCURVE",
"533 628 CURVE",
"573 610 LINE",
"581 509 LINE",
"593 358 OFFCURVE",
"587 213 OFFCURVE",
"569 213 CURVE",
"551 213 OFFCURVE",
"448 336 OFFCURVE",
"334 492 CURVE",
"290 554 OFFCURVE",
"237 621 OFFCURVE",
"217 642 CURVE",
"182 681 LINE",
"108 681 LINE",
"68 681 OFFCURVE",
"32 675 OFFCURVE",
"27 668 CURVE",
"23 661 OFFCURVE",
"42 642 OFFCURVE",
"69 626 CURVE",
"118 597 LINE",
"110 76 LINE",
"70 54 LINE",
"3 17 OFFCURVE",
"20 4 OFFCURVE",
"142 0 CURVE",
"257 -4 LINE",
"257 23 LINE",
"257 40 OFFCURVE",
"244 53 OFFCURVE",
"221 59 CURVE",
"202 64 OFFCURVE",
"181 82 OFFCURVE",
"175 99 CURVE",
"162 133 OFFCURVE",
"165 482 OFFCURVE",
"178 495 CURVE",
"191 508 OFFCURVE",
"222 476 OFFCURVE",
"324 341 CURVE",
"378 271 OFFCURVE",
"433 201 OFFCURVE",
"447 185 CURVE",
"461 170 OFFCURVE",
"497 121 OFFCURVE",
"528 77 CURVE",
"562 27 OFFCURVE",
"591 -2 OFFCURVE",
"604 0 CURVE",
"626 5 LINE",
"633 590 LINE",
"677 626 LINE",
"703 647 OFFCURVE",
"717 669 OFFCURVE",
"711 678 CURVE",
"702 694 OFFCURVE",
"613 697 OFFCURVE",
"532 685 CURVE"
);
}
);
width = 800;
}
);
leftKerningGroup = N;
rightKerningGroup = N;
unicode = 004E;
},
{
glyphname = O;
layers = (
{
layerId = "87410FD4-54DA-4328-9944-625314575885";
paths = (
{
closed = 1;
nodes = (
"242 720 OFFCURVE",
"153 646 OFFCURVE",
"128 605 CURVE",
"35 446 OFFCURVE",
"68 161 OFFCURVE",
"192 62 CURVE",
"256 12 OFFCURVE",
"313 -6 OFFCURVE",
"407 -6 CURVE",
"499 -6 OFFCURVE",
"579 32 OFFCURVE",
"641 104 CURVE",
"722 199 OFFCURVE",
"745 368 OFFCURVE",
"699 525 CURVE",
"670 624 OFFCURVE",
"571 725 OFFCURVE",
"490 738 CURVE",
"425 749 OFFCURVE",
"318 748 OFFCURVE",
"289 737 CURVE"
);
},
{
closed = 1;
nodes = (
"590 585 OFFCURVE",
"603 532 OFFCURVE",
"602 335 CURVE",
"600 134 OFFCURVE",
"537 42 OFFCURVE",
"400 42 CURVE",
"271 42 OFFCURVE",
"206 129 OFFCURVE",
"195 319 CURVE",
"186 462 OFFCURVE",
"209 580 OFFCURVE",
"257 637 CURVE",
"301 689 OFFCURVE",
"333 704 OFFCURVE",
"408 705 CURVE",
"465 706 LINE",
"522 650 LINE"
);
}
);
width = 800;
},
{
anchors = (
{
name = tail;
position = "{400, 40}";
}
);
background = {
paths = (
{
closed = 1;
nodes = (
"242 709 OFFCURVE",
"153 635 OFFCURVE",
"128 594 CURVE",
"35 435 OFFCURVE",
"68 150 OFFCURVE",
"192 51 CURVE",
"256 1 OFFCURVE",
"313 -17 OFFCURVE",
"407 -17 CURVE",
"499 -17 OFFCURVE",
"579 21 OFFCURVE",
"641 93 CURVE",
"722 188 OFFCURVE",
"745 357 OFFCURVE",
"699 514 CURVE",
"670 613 OFFCURVE",
"571 714 OFFCURVE",
"490 727 CURVE",
"425 738 OFFCURVE",
"318 737 OFFCURVE",
"289 726 CURVE"
);
},
{
closed = 1;
nodes = (
"590 574 OFFCURVE",
"603 521 OFFCURVE",
"602 324 CURVE",
"600 123 OFFCURVE",
"537 31 OFFCURVE",
"400 31 CURVE",
"271 31 OFFCURVE",
"206 118 OFFCURVE",
"195 308 CURVE",
"186 451 OFFCURVE",
"209 569 OFFCURVE",
"257 626 CURVE",
"301 678 OFFCURVE",
"333 693 OFFCURVE",
"408 694 CURVE",
"465 695 LINE",
"522 639 LINE"
);
}
);
};
color = 4;
layerId = "2EA6C462-E43A-4553-9036-03D60599BBF6";
paths = (
{
closed = 1;
nodes = (
"599 -12 OFFCURVE",
"730 148 OFFCURVE",
"730 360 CURVE SMOOTH",
"730 572 OFFCURVE",
"603 732 OFFCURVE",
"400 732 CURVE SMOOTH",
"185 732 OFFCURVE",
"70 572 OFFCURVE",
"70 360 CURVE SMOOTH",
"70 148 OFFCURVE",
"201 -12 OFFCURVE",
"400 -12 CURVE SMOOTH"
);
},
{
closed = 1;
nodes = (
"253 40 OFFCURVE",
"198 170 OFFCURVE",
"198 360 CURVE SMOOTH",
"198 550 OFFCURVE",
"253 680 OFFCURVE",
"400 680 CURVE SMOOTH",
"547 680 OFFCURVE",
"602 550 OFFCURVE",
"602 360 CURVE SMOOTH",
"602 170 OFFCURVE",
"547 40 OFFCURVE",
"400 40 CURVE SMOOTH"
);
}
);
width = 800;
},
{
layerId = "F6C816F3-9BC2-4509-B825-E49BED503D7A";
paths = (
{
closed = 1;
nodes = (
"105 582 OFFCURVE",
"48 465 OFFCURVE",
"61 312 CURVE",
"74 172 OFFCURVE",
"135 77 OFFCURVE",
"250 20 CURVE",
"423 -68 OFFCURVE",
"666 45 OFFCURVE",
"709 232 CURVE",
"731 330 OFFCURVE",
"730 399 OFFCURVE",
"705 470 CURVE",
"656 610 OFFCURVE",
"535 695 OFFCURVE",
"385 694 CURVE",
"300 694 LINE",
"228 653 LINE"
);
},
{
closed = 1;
nodes = (
"571 588 OFFCURVE",
"605 508 OFFCURVE",
"598 322 CURVE",
"591 164 OFFCURVE",
"570 114 OFFCURVE",
"488 68 CURVE",
"294 -41 OFFCURVE",
"129 158 OFFCURVE",
"182 437 CURVE",
"214 607 OFFCURVE",
"331 688 OFFCURVE",
"462 633 CURVE"
);
}
);
width = 800;
},
{
layerId = "8BBD64F6-C2DD-426A-A806-28AAAAE0677A";
paths = (
{
closed = 1;
nodes = (
"105 582 OFFCURVE",
"48 465 OFFCURVE",
"61 312 CURVE",
"74 172 OFFCURVE",
"135 77 OFFCURVE",
"250 20 CURVE",
"423 -68 OFFCURVE",
"666 45 OFFCURVE",
"709 232 CURVE",
"731 330 OFFCURVE",
"730 399 OFFCURVE",
"705 470 CURVE",
"656 610 OFFCURVE",
"535 695 OFFCURVE",
"385 694 CURVE",
"300 694 LINE",
"228 653 LINE"
);
},
{
closed = 1;
nodes = (
"571 588 OFFCURVE",
"605 508 OFFCURVE",
"598 322 CURVE",
"591 164 OFFCURVE",
"570 114 OFFCURVE",
"488 68 CURVE",
"294 -41 OFFCURVE",
"129 158 OFFCURVE",
"182 437 CURVE",
"214 607 OFFCURVE",
"331 688 OFFCURVE",
"462 633 CURVE"
);
}
);
width = 800;
},
{
layerId = "664CC791-0498-4EB7-B1D0-E1FFFC98853E";
paths = (
{
closed = 1;
nodes = (
"242 720 OFFCURVE",
"153 646 OFFCURVE",
"128 605 CURVE",
"35 446 OFFCURVE",
"68 161 OFFCURVE",
"192 62 CURVE",
"256 12 OFFCURVE",
"313 -6 OFFCURVE",
"407 -6 CURVE",
"499 -6 OFFCURVE",
"579 32 OFFCURVE",
"641 104 CURVE",
"722 199 OFFCURVE",
"745 368 OFFCURVE",
"699 525 CURVE",
"670 624 OFFCURVE",
"571 725 OFFCURVE",
"490 738 CURVE",
"425 749 OFFCURVE",
"318 748 OFFCURVE",
"289 737 CURVE"
);
},
{
closed = 1;
nodes = (
"590 585 OFFCURVE",
"603 532 OFFCURVE",
"602 335 CURVE",
"600 134 OFFCURVE",
"537 42 OFFCURVE",
"400 42 CURVE",
"271 42 OFFCURVE",
"206 129 OFFCURVE",
"195 319 CURVE",
"186 462 OFFCURVE",
"209 580 OFFCURVE",
"257 637 CURVE",
"301 689 OFFCURVE",
"333 704 OFFCURVE",
"408 705 CURVE",
"465 706 LINE",
"522 650 LINE"
);
}
);
width = 800;
},
{
layerId = "9F6891F3-FE19-4DFC-8FDB-D5777C380353";
paths = (
{
closed = 1;
nodes = (
"105 582 OFFCURVE",
"48 465 OFFCURVE",
"61 312 CURVE",
"74 172 OFFCURVE",
"135 77 OFFCURVE",
"250 20 CURVE",
"423 -68 OFFCURVE",
"666 45 OFFCURVE",
"709 232 CURVE",
"731 330 OFFCURVE",
"730 399 OFFCURVE",
"705 470 CURVE",
"656 610 OFFCURVE",
"535 695 OFFCURVE",
"385 694 CURVE",
"300 694 LINE",
"228 653 LINE"
);
},
{
closed = 1;
nodes = (
"571 588 OFFCURVE",
"605 508 OFFCURVE",
"598 322 CURVE",
"591 164 OFFCURVE",
"570 114 OFFCURVE",
"488 68 CURVE",
"294 -41 OFFCURVE",
"129 158 OFFCURVE",
"182 437 CURVE",
"214 607 OFFCURVE",
"331 688 OFFCURVE",
"462 633 CURVE"
);
}
);
width = 800;
}
);
leftKerningGroup = O;
rightKerningGroup = O;
unicode = 004F;
},
{
glyphname = P;
layers = (
{
layerId = "87410FD4-54DA-4328-9944-625314575885";
paths = (
{
closed = 1;
nodes = (
"-7 716 OFFCURVE",
"3 689 OFFCURVE",
"59 674 CURVE",
"103 663 LINE",
"103 373 LINE",
"103 74 OFFCURVE",
"99 49 OFFCURVE",
"46 49 CURVE",
"33 49 OFFCURVE",
"19 40 OFFCURVE",
"14 29 CURVE",
"5 4 OFFCURVE",
"45 -21 OFFCURVE",
"83 -14 CURVE",
"98 -11 OFFCURVE",
"152 -8 OFFCURVE",
"204 -7 CURVE",
"298 -6 LINE",
"298 22 LINE",
"298 42 OFFCURVE",
"289 49 OFFCURVE",
"264 49 CURVE",
"220 49 OFFCURVE",
"212 80 OFFCURVE",
"217 210 CURVE",
"222 308 LINE",
"291 319 LINE",
"330 326 OFFCURVE",
"388 343 OFFCURVE",
"421 358 CURVE",
"481 385 LINE",
"509 451 LINE",
"558 564 OFFCURVE",
"523 662 OFFCURVE",
"415 717 CURVE",
"377 737 OFFCURVE",
"78 749 OFFCURVE",
"35 732 CURVE"
);
},
{
closed = 1;
nodes = (
"420 590 OFFCURVE",
"413 452 OFFCURVE",
"352 403 CURVE",
"324 380 OFFCURVE",
"252 369 OFFCURVE",
"230 383 CURVE",
"216 392 OFFCURVE",
"211 428 OFFCURVE",
"213 526 CURVE",
"216 657 LINE",
"240 675 LINE",
"270 698 OFFCURVE",
"324 685 OFFCURVE",
"364 645 CURVE"
);
}
);
width = 600;
},
{
background = {
paths = (
{
closed = 1;
nodes = (
"13 709 OFFCURVE",
"23 682 OFFCURVE",
"79 667 CURVE",
"123 656 LINE",
"123 366 LINE",
"123 67 OFFCURVE",
"119 42 OFFCURVE",
"66 42 CURVE",
"53 42 OFFCURVE",
"39 33 OFFCURVE",
"34 22 CURVE",
"25 -3 OFFCURVE",
"65 -28 OFFCURVE",
"103 -21 CURVE",
"118 -18 OFFCURVE",
"172 -15 OFFCURVE",
"224 -14 CURVE",
"318 -13 LINE",
"318 15 LINE",
"318 35 OFFCURVE",
"309 42 OFFCURVE",
"284 42 CURVE",
"240 42 OFFCURVE",
"232 73 OFFCURVE",
"237 203 CURVE",
"242 301 LINE",
"311 312 LINE",
"350 319 OFFCURVE",
"408 336 OFFCURVE",
"441 351 CURVE",
"501 378 LINE",
"529 444 LINE",
"578 557 OFFCURVE",
"543 655 OFFCURVE",
"435 710 CURVE",
"397 730 OFFCURVE",
"98 742 OFFCURVE",
"55 725 CURVE"
);
},
{
closed = 1;
nodes = (
"440 583 OFFCURVE",
"433 445 OFFCURVE",
"372 396 CURVE",
"344 373 OFFCURVE",
"272 362 OFFCURVE",
"250 376 CURVE",
"236 385 OFFCURVE",
"231 421 OFFCURVE",
"233 519 CURVE",
"236 650 LINE",
"260 668 LINE",
"290 691 OFFCURVE",
"344 678 OFFCURVE",
"384 638 CURVE"
);
}
);
};
color = 4;
hints = (
{
origin = "{0, 18}";
scale = "{1.44, -1.08}";
type = Corner;
name = _corner.serif.lc.foot;
},
{
origin = "{0, 19}";
scale = "{1.44, 1.08}";
type = Corner;
name = _corner.serif.lc.foot;
},
{
origin = "{0, 1}";
type = Corner;
name = _corner.uc.inside;
},
{
origin = "{0, 0}";
scale = "{-1.6, 1.08}";
type = Corner;
name = _corner.serif.lc.foot;
}
);
layerId = "2EA6C462-E43A-4553-9036-03D60599BBF6";
paths = (
{
closed = 1;
nodes = (
"234 0 LINE",
"234 672 LINE",
"304 672 LINE SMOOTH",
"381 672 OFFCURVE",
"426 627 OFFCURVE",
"426 521 CURVE SMOOTH",
"426 419 OFFCURVE",
"381 367 OFFCURVE",
"304 367 CURVE SMOOTH",
"203 367 LINE",
"203 317 LINE",
"297 317 LINE SMOOTH",
"456 317 OFFCURVE",
"548 403 OFFCURVE",
"548 521 CURVE SMOOTH",
"548 637 OFFCURVE",
"456 720 OFFCURVE",
"297 720 CURVE SMOOTH",
"126 720 LINE",
"126 0 LINE"
);
}
);
width = 600;
},
{
layerId = "F6C816F3-9BC2-4509-B825-E49BED503D7A";
paths = (
{
closed = 1;
nodes = (
"23 673 LINE",
"23 662 OFFCURVE",
"38 646 OFFCURVE",
"57 639 CURVE",
"75 632 OFFCURVE",
"95 619 OFFCURVE",
"101 610 CURVE",
"118 582 OFFCURVE",
"121 105 OFFCURVE",
"105 85 CURVE",
"96 75 OFFCURVE",
"75 67 OFFCURVE",
"56 67 CURVE",
"32 67 OFFCURVE",
"23 59 OFFCURVE",
"23 39 CURVE",
"23 10 LINE",
"309 18 LINE",
"309 39 LINE",
"309 50 OFFCURVE",
"297 62 OFFCURVE",
"281 65 CURVE",
"228 75 OFFCURVE",
"218 95 OFFCURVE",
"218 195 CURVE",
"218 291 LINE",
"254 304 LINE",
"274 312 OFFCURVE",
"310 318 OFFCURVE",
"334 318 CURVE",
"403 319 OFFCURVE",
"493 366 OFFCURVE",
"517 414 CURVE",
"550 476 OFFCURVE",
"546 571 OFFCURVE",
"509 618 CURVE",
"459 681 OFFCURVE",
"406 694 OFFCURVE",
"205 694 CURVE",
"23 694 LINE"
);
},
{
closed = 1;
nodes = (
"418 574 OFFCURVE",
"431 479 OFFCURVE",
"405 428 CURVE",
"378 374 OFFCURVE",
"249 336 OFFCURVE",
"225 375 CURVE",
"211 398 OFFCURVE",
"208 542 OFFCURVE",
"221 589 CURVE",
"227 611 OFFCURVE",
"240 635 OFFCURVE",
"250 641 CURVE",
"275 658 OFFCURVE",
"346 640 OFFCURVE",
"381 608 CURVE"
);
}
);
width = 600;
},
{
layerId = "8BBD64F6-C2DD-426A-A806-28AAAAE0677A";
paths = (
{
closed = 1;
nodes = (
"23 673 LINE",
"23 662 OFFCURVE",
"38 646 OFFCURVE",
"57 639 CURVE",
"75 632 OFFCURVE",
"95 619 OFFCURVE",
"101 610 CURVE",
"118 582 OFFCURVE",
"121 105 OFFCURVE",
"105 85 CURVE",
"96 75 OFFCURVE",
"75 67 OFFCURVE",
"56 67 CURVE",
"32 67 OFFCURVE",
"23 59 OFFCURVE",
"23 39 CURVE",
"23 10 LINE",
"309 18 LINE",
"309 39 LINE",
"309 50 OFFCURVE",
"297 62 OFFCURVE",
"281 65 CURVE",
"228 75 OFFCURVE",
"218 95 OFFCURVE",
"218 195 CURVE",
"218 291 LINE",
"254 304 LINE",
"274 312 OFFCURVE",
"310 318 OFFCURVE",
"334 318 CURVE",
"403 319 OFFCURVE",
"493 366 OFFCURVE",
"517 414 CURVE",
"550 476 OFFCURVE",
"546 571 OFFCURVE",
"509 618 CURVE",
"459 681 OFFCURVE",
"406 694 OFFCURVE",
"205 694 CURVE",
"23 694 LINE"
);
},
{
closed = 1;
nodes = (
"418 574 OFFCURVE",
"431 479 OFFCURVE",
"405 428 CURVE",
"378 374 OFFCURVE",
"249 336 OFFCURVE",
"225 375 CURVE",
"211 398 OFFCURVE",
"208 542 OFFCURVE",
"221 589 CURVE",
"227 611 OFFCURVE",
"240 635 OFFCURVE",
"250 641 CURVE",
"275 658 OFFCURVE",
"346 640 OFFCURVE",
"381 608 CURVE"
);
}
);
width = 600;
},
{
layerId = "664CC791-0498-4EB7-B1D0-E1FFFC98853E";
paths = (
{
closed = 1;
nodes = (
"-7 716 OFFCURVE",
"3 689 OFFCURVE",
"59 674 CURVE",
"103 663 LINE",
"103 373 LINE",
"103 74 OFFCURVE",
"99 49 OFFCURVE",
"46 49 CURVE",
"33 49 OFFCURVE",
"19 40 OFFCURVE",
"14 29 CURVE",
"5 4 OFFCURVE",
"45 -21 OFFCURVE",
"83 -14 CURVE",
"98 -11 OFFCURVE",
"152 -8 OFFCURVE",
"204 -7 CURVE",
"298 -6 LINE",
"298 22 LINE",
"298 42 OFFCURVE",
"289 49 OFFCURVE",
"264 49 CURVE",
"220 49 OFFCURVE",
"212 80 OFFCURVE",
"217 210 CURVE",
"222 308 LINE",
"291 319 LINE",
"330 326 OFFCURVE",
"388 343 OFFCURVE",
"421 358 CURVE",
"481 385 LINE",
"509 451 LINE",
"558 564 OFFCURVE",
"523 662 OFFCURVE",
"415 717 CURVE",
"377 737 OFFCURVE",
"78 749 OFFCURVE",
"35 732 CURVE"
);
},
{
closed = 1;
nodes = (
"420 590 OFFCURVE",
"413 452 OFFCURVE",
"352 403 CURVE",
"324 380 OFFCURVE",
"252 369 OFFCURVE",
"230 383 CURVE",
"216 392 OFFCURVE",
"211 428 OFFCURVE",
"213 526 CURVE",
"216 657 LINE",
"240 675 LINE",
"270 698 OFFCURVE",
"324 685 OFFCURVE",
"364 645 CURVE"
);
}
);
width = 600;
},
{
layerId = "9F6891F3-FE19-4DFC-8FDB-D5777C380353";
paths = (
{
closed = 1;
nodes = (
"23 673 LINE",
"23 662 OFFCURVE",
"38 646 OFFCURVE",
"57 639 CURVE",
"75 632 OFFCURVE",
"95 619 OFFCURVE",
"101 610 CURVE",
"118 582 OFFCURVE",
"121 105 OFFCURVE",
"105 85 CURVE",
"96 75 OFFCURVE",
"75 67 OFFCURVE",
"56 67 CURVE",
"32 67 OFFCURVE",
"23 59 OFFCURVE",
"23 39 CURVE",
"23 10 LINE",
"309 18 LINE",
"309 39 LINE",
"309 50 OFFCURVE",
"297 62 OFFCURVE",
"281 65 CURVE",
"228 75 OFFCURVE",
"218 95 OFFCURVE",
"218 195 CURVE",
"218 291 LINE",
"254 304 LINE",
"274 312 OFFCURVE",
"310 318 OFFCURVE",
"334 318 CURVE",
"403 319 OFFCURVE",
"493 366 OFFCURVE",
"517 414 CURVE",
"550 476 OFFCURVE",
"546 571 OFFCURVE",
"509 618 CURVE",
"459 681 OFFCURVE",
"406 694 OFFCURVE",
"205 694 CURVE",
"23 694 LINE"
);
},
{
closed = 1;
nodes = (
"418 574 OFFCURVE",
"431 479 OFFCURVE",
"405 428 CURVE",
"378 374 OFFCURVE",
"249 336 OFFCURVE",
"225 375 CURVE",
"211 398 OFFCURVE",
"208 542 OFFCURVE",
"221 589 CURVE",
"227 611 OFFCURVE",
"240 635 OFFCURVE",
"250 641 CURVE",
"275 658 OFFCURVE",
"346 640 OFFCURVE",
"381 608 CURVE"
);
}
);
width = 600;
}
);
leftKerningGroup = H;
rightKerningGroup = P;
unicode = 0050;
},
{
color = 6;
glyphname = Q;
layers = (
{
layerId = "87410FD4-54DA-4328-9944-625314575885";
paths = (
{
closed = 1;
nodes = (
"232 712 OFFCURVE",
"162 654 OFFCURVE",
"130 591 CURVE",
"74 482 OFFCURVE",
"72 282 OFFCURVE",
"124 157 CURVE",
"164 60 OFFCURVE",
"306 -20 OFFCURVE",
"434 -20 CURVE",
"480 -20 LINE",
"480 -70 LINE",
"480 -127 OFFCURVE",
"531 -188 OFFCURVE",
"579 -188 CURVE",
"629 -188 OFFCURVE",
"700 -136 OFFCURVE",
"708 -93 CURVE",
"718 -42 OFFCURVE",
"710 -38 OFFCURVE",
"671 -74 CURVE",
"630 -112 OFFCURVE",
"613 -112 OFFCURVE",
"586 -73 CURVE",
"552 -25 OFFCURVE",
"559 5 OFFCURVE",
"621 75 CURVE",
"652 111 OFFCURVE",
"688 162 OFFCURVE",
"699 189 CURVE",
"726 249 OFFCURVE",
"729 471 OFFCURVE",
"705 531 CURVE",
"635 705 OFFCURVE",
"478 782 OFFCURVE",
"300 731 CURVE"
);
},
{
closed = 1;
nodes = (
"569 615 OFFCURVE",
"592 550 OFFCURVE",
"607 414 CURVE",
"632 197 OFFCURVE",
"565 38 OFFCURVE",
"501 162 CURVE",
"488 187 OFFCURVE",
"458 214 OFFCURVE",
"430 225 CURVE",
"382 245 LINE",
"335 225 LINE",
"308 214 OFFCURVE",
"280 192 OFFCURVE",
"271 176 CURVE",
"247 131 OFFCURVE",
"232 141 OFFCURVE",
"209 219 CURVE",
"185 300 OFFCURVE",
"188 491 OFFCURVE",
"214 559 CURVE",
"266 691 OFFCURVE",
"428 744 OFFCURVE",
"520 660 CURVE"
);
},
{
closed = 1;
nodes = (
"513 106 OFFCURVE",
"493 35 OFFCURVE",
"406 36 CURVE",
"331 36 OFFCURVE",
"299 51 OFFCURVE",
"289 88 CURVE",
"282 116 OFFCURVE",
"289 131 OFFCURVE",
"318 157 CURVE",
"364 196 OFFCURVE",
"396 198 OFFCURVE",
"442 161 CURVE"
);
}
);
width = 800;
},
{
background = {
hints = (
{
origin = "{0, 2}";
type = Corner;
name = _corner.round;
},
{
origin = "{0, 3}";
type = Corner;
name = _corner.round;
}
);
paths = (
{
closed = 1;
nodes = (
"655 -198 OFFCURVE",
"699 -152 OFFCURVE",
"723 -66 CURVE",
"690 -53 LINE",
"665 -100 OFFCURVE",
"645 -113 OFFCURVE",
"619 -113 CURVE SMOOTH",
"599 -113 OFFCURVE",
"582 -95 OFFCURVE",
"573 -66 CURVE SMOOTH",
"564 -36 OFFCURVE",
"557 20 OFFCURVE",
"540 84 CURVE SMOOTH",
"522 153 OFFCURVE",
"484 230 OFFCURVE",
"382 230 CURVE SMOOTH",
"306 230 OFFCURVE",
"245 180 OFFCURVE",
"245 117 CURVE SMOOTH",
"245 53 OFFCURVE",
"312 17 OFFCURVE",
"400 17 CURVE",
"400 40 LINE",
"336 40 OFFCURVE",
"299 67 OFFCURVE",
"299 110 CURVE SMOOTH",
"299 142 OFFCURVE",
"328 178 OFFCURVE",
"380 178 CURVE SMOOTH",
"436 178 OFFCURVE",
"479 131 OFFCURVE",
"479 76 CURVE SMOOTH",
"479 36 OFFCURVE",
"473 -21 OFFCURVE",
"473 -60 CURVE SMOOTH",
"473 -160 OFFCURVE",
"532 -198 OFFCURVE",
"589 -198 CURVE SMOOTH"
);
}
);
};
components = (
{
name = O;
},
{
alignment = 1;
name = _part.Q.tail;
}
);
layerId = "2EA6C462-E43A-4553-9036-03D60599BBF6";
width = 800;
},
{
layerId = "F6C816F3-9BC2-4509-B825-E49BED503D7A";
paths = (
{
closed = 1;
nodes = (
"233 664 OFFCURVE",
"151 599 OFFCURVE",
"98 499 CURVE",
"59 426 OFFCURVE",
"62 248 OFFCURVE",
"102 163 CURVE",
"157 47 OFFCURVE",
"248 -12 OFFCURVE",
"390 -24 CURVE",
"452 -29 LINE",
"461 -30 OFFCURVE",
"473 -57 OFFCURVE",
"478 -89 CURVE",
"490 -163 OFFCURVE",
"525 -198 OFFCURVE",
"588 -198 CURVE",
"636 -198 LINE",
"677 -141 LINE",
"700 -110 OFFCURVE",
"715 -76 OFFCURVE",
"711 -65 CURVE",
"700 -37 OFFCURVE",
"696 -39 OFFCURVE",
"658 -83 CURVE",
"626 -120 LINE",
"604 -103 LINE",
"593 -93 OFFCURVE",
"576 -66 OFFCURVE",
"568 -43 CURVE",
"554 -1 LINE",
"617 64 LINE",
"653 100 OFFCURVE",
"691 148 OFFCURVE",
"702 170 CURVE",
"732 227 OFFCURVE",
"741 358 OFFCURVE",
"721 439 CURVE",
"703 516 OFFCURVE",
"628 614 OFFCURVE",
"561 649 CURVE",
"510 676 OFFCURVE",
"397 691 OFFCURVE",
"330 680 CURVE"
);
},
{
closed = 1;
nodes = (
"594 523 OFFCURVE",
"613 446 OFFCURVE",
"606 291 CURVE",
"601 194 OFFCURVE",
"594 159 OFFCURVE",
"574 137 CURVE",
"548 108 LINE",
"498 165 LINE",
"459 209 OFFCURVE",
"436 224 OFFCURVE",
"392 230 CURVE",
"337 237 LINE",
"302 203 LINE",
"283 185 OFFCURVE",
"259 158 OFFCURVE",
"250 143 CURVE",
"233 116 LINE",
"213 141 LINE",
"163 204 OFFCURVE",
"169 450 OFFCURVE",
"223 530 CURVE",
"240 555 OFFCURVE",
"275 590 OFFCURVE",
"302 608 CURVE",
"351 641 LINE",
"418 635 LINE",
"469 630 OFFCURVE",
"495 618 OFFCURVE",
"531 584 CURVE"
);
},
{
closed = 1;
nodes = (
"441 157 OFFCURVE",
"459 132 OFFCURVE",
"467 109 CURVE",
"481 67 LINE",
"460 46 LINE",
"411 -3 OFFCURVE",
"288 37 OFFCURVE",
"288 102 CURVE",
"288 166 OFFCURVE",
"362 200 OFFCURVE",
"427 165 CURVE"
);
}
);
width = 800;
},
{
layerId = "8BBD64F6-C2DD-426A-A806-28AAAAE0677A";
paths = (
{
closed = 1;
nodes = (
"233 664 OFFCURVE",
"151 599 OFFCURVE",
"98 499 CURVE",
"59 426 OFFCURVE",
"62 248 OFFCURVE",
"102 163 CURVE",
"157 47 OFFCURVE",
"248 -12 OFFCURVE",
"390 -24 CURVE",
"452 -29 LINE",
"461 -30 OFFCURVE",
"473 -57 OFFCURVE",
"478 -89 CURVE",
"490 -163 OFFCURVE",
"525 -198 OFFCURVE",
"588 -198 CURVE",
"636 -198 LINE",
"677 -141 LINE",
"700 -110 OFFCURVE",
"715 -76 OFFCURVE",
"711 -65 CURVE",
"700 -37 OFFCURVE",
"696 -39 OFFCURVE",
"658 -83 CURVE",
"626 -120 LINE",
"604 -103 LINE",
"593 -93 OFFCURVE",
"576 -66 OFFCURVE",
"568 -43 CURVE",
"554 -1 LINE",
"617 64 LINE",
"653 100 OFFCURVE",
"691 148 OFFCURVE",
"702 170 CURVE",
"732 227 OFFCURVE",
"741 358 OFFCURVE",
"721 439 CURVE",
"703 516 OFFCURVE",
"628 614 OFFCURVE",
"561 649 CURVE",
"510 676 OFFCURVE",
"397 691 OFFCURVE",
"330 680 CURVE"
);
},
{
closed = 1;
nodes = (
"594 523 OFFCURVE",
"613 446 OFFCURVE",
"606 291 CURVE",
"601 194 OFFCURVE",
"594 159 OFFCURVE",
"574 137 CURVE",
"548 108 LINE",
"498 165 LINE",
"459 209 OFFCURVE",
"436 224 OFFCURVE",
"392 230 CURVE",
"337 237 LINE",
"302 203 LINE",
"283 185 OFFCURVE",
"259 158 OFFCURVE",
"250 143 CURVE",
"233 116 LINE",
"213 141 LINE",
"163 204 OFFCURVE",
"169 450 OFFCURVE",
"223 530 CURVE",
"240 555 OFFCURVE",
"275 590 OFFCURVE",
"302 608 CURVE",
"351 641 LINE",
"418 635 LINE",
"469 630 OFFCURVE",
"495 618 OFFCURVE",
"531 584 CURVE"
);
},
{
closed = 1;
nodes = (
"441 157 OFFCURVE",
"459 132 OFFCURVE",
"467 109 CURVE",
"481 67 LINE",
"460 46 LINE",
"411 -3 OFFCURVE",
"288 37 OFFCURVE",
"288 102 CURVE",
"288 166 OFFCURVE",
"362 200 OFFCURVE",
"427 165 CURVE"
);
}
);
width = 800;
},
{
layerId = "664CC791-0498-4EB7-B1D0-E1FFFC98853E";
paths = (
{
closed = 1;
nodes = (
"232 712 OFFCURVE",
"162 654 OFFCURVE",
"130 591 CURVE",
"74 482 OFFCURVE",
"72 282 OFFCURVE",
"124 157 CURVE",
"164 60 OFFCURVE",
"306 -20 OFFCURVE",
"434 -20 CURVE",
"480 -20 LINE",
"480 -70 LINE",
"480 -127 OFFCURVE",
"531 -188 OFFCURVE",
"579 -188 CURVE",
"629 -188 OFFCURVE",
"700 -136 OFFCURVE",
"708 -93 CURVE",
"718 -42 OFFCURVE",
"710 -38 OFFCURVE",
"671 -74 CURVE",
"630 -112 OFFCURVE",
"613 -112 OFFCURVE",
"586 -73 CURVE",
"552 -25 OFFCURVE",
"559 5 OFFCURVE",
"621 75 CURVE",
"652 111 OFFCURVE",
"688 162 OFFCURVE",
"699 189 CURVE",
"726 249 OFFCURVE",
"729 471 OFFCURVE",
"705 531 CURVE",
"635 705 OFFCURVE",
"478 782 OFFCURVE",
"300 731 CURVE"
);
},
{
closed = 1;
nodes = (
"569 615 OFFCURVE",
"592 550 OFFCURVE",
"607 414 CURVE",
"632 197 OFFCURVE",
"565 38 OFFCURVE",
"501 162 CURVE",
"488 187 OFFCURVE",
"458 214 OFFCURVE",
"430 225 CURVE",
"382 245 LINE",
"335 225 LINE",
"308 214 OFFCURVE",
"280 192 OFFCURVE",
"271 176 CURVE",
"247 131 OFFCURVE",
"232 141 OFFCURVE",
"209 219 CURVE",
"185 300 OFFCURVE",
"188 491 OFFCURVE",
"214 559 CURVE",
"266 691 OFFCURVE",
"428 744 OFFCURVE",
"520 660 CURVE"
);
},
{
closed = 1;
nodes = (
"513 106 OFFCURVE",
"493 35 OFFCURVE",
"406 36 CURVE",
"331 36 OFFCURVE",
"299 51 OFFCURVE",
"289 88 CURVE",
"282 116 OFFCURVE",
"289 131 OFFCURVE",
"318 157 CURVE",
"364 196 OFFCURVE",
"396 198 OFFCURVE",
"442 161 CURVE"
);
}
);
width = 800;
},
{
layerId = "9F6891F3-FE19-4DFC-8FDB-D5777C380353";
paths = (
{
closed = 1;
nodes = (
"233 664 OFFCURVE",
"151 599 OFFCURVE",
"98 499 CURVE",
"59 426 OFFCURVE",
"62 248 OFFCURVE",
"102 163 CURVE",
"157 47 OFFCURVE",
"248 -12 OFFCURVE",
"390 -24 CURVE",
"452 -29 LINE",
"461 -30 OFFCURVE",
"473 -57 OFFCURVE",
"478 -89 CURVE",
"490 -163 OFFCURVE",
"525 -198 OFFCURVE",
"588 -198 CURVE",
"636 -198 LINE",
"677 -141 LINE",
"700 -110 OFFCURVE",
"715 -76 OFFCURVE",
"711 -65 CURVE",
"700 -37 OFFCURVE",
"696 -39 OFFCURVE",
"658 -83 CURVE",
"626 -120 LINE",
"604 -103 LINE",
"593 -93 OFFCURVE",
"576 -66 OFFCURVE",
"568 -43 CURVE",
"554 -1 LINE",
"617 64 LINE",
"653 100 OFFCURVE",
"691 148 OFFCURVE",
"702 170 CURVE",
"732 227 OFFCURVE",
"741 358 OFFCURVE",
"721 439 CURVE",
"703 516 OFFCURVE",
"628 614 OFFCURVE",
"561 649 CURVE",
"510 676 OFFCURVE",
"397 691 OFFCURVE",
"330 680 CURVE"
);
},
{
closed = 1;
nodes = (
"594 523 OFFCURVE",
"613 446 OFFCURVE",
"606 291 CURVE",
"601 194 OFFCURVE",
"594 159 OFFCURVE",
"574 137 CURVE",
"548 108 LINE",
"498 165 LINE",
"459 209 OFFCURVE",
"436 224 OFFCURVE",
"392 230 CURVE",
"337 237 LINE",
"302 203 LINE",
"283 185 OFFCURVE",
"259 158 OFFCURVE",
"250 143 CURVE",
"233 116 LINE",
"213 141 LINE",
"163 204 OFFCURVE",
"169 450 OFFCURVE",
"223 530 CURVE",
"240 555 OFFCURVE",
"275 590 OFFCURVE",
"302 608 CURVE",
"351 641 LINE",
"418 635 LINE",
"469 630 OFFCURVE",
"495 618 OFFCURVE",
"531 584 CURVE"
);
},
{
closed = 1;
nodes = (
"441 157 OFFCURVE",
"459 132 OFFCURVE",
"467 109 CURVE",
"481 67 LINE",
"460 46 LINE",
"411 -3 OFFCURVE",
"288 37 OFFCURVE",
"288 102 CURVE",
"288 166 OFFCURVE",
"362 200 OFFCURVE",
"427 165 CURVE"
);
}
);
width = 800;
}
);
leftKerningGroup = O;
rightKerningGroup = O;
unicode = 0051;
},
{
color = 5;
glyphname = R;
layers = (
{
layerId = "87410FD4-54DA-4328-9944-625314575885";
paths = (
{
closed = 1;
nodes = (
"64 706 OFFCURVE",
"78 696 OFFCURVE",
"93 694 CURVE",
"108 691 OFFCURVE",
"124 685 OFFCURVE",
"130 680 CURVE",
"135 675 OFFCURVE",
"140 536 OFFCURVE",
"142 372 CURVE",
"144 74 LINE",
"125 62 LINE",
"115 55 OFFCURVE",
"95 50 OFFCURVE",
"82 50 CURVE",
"68 50 OFFCURVE",
"57 40 OFFCURVE",
"57 29 CURVE",
"57 8 LINE",
"179 8 LINE",
"246 8 OFFCURVE",
"311 14 OFFCURVE",
"322 21 CURVE",
"342 34 LINE",
"315 43 LINE",
"247 64 OFFCURVE",
"246 67 OFFCURVE",
"246 212 CURVE",
"246 350 LINE",
"311 354 LINE",
"348 356 OFFCURVE",
"390 351 OFFCURVE",
"406 343 CURVE",
"443 323 OFFCURVE",
"469 258 OFFCURVE",
"481 156 CURVE",
"494 48 OFFCURVE",
"531 -6 OFFCURVE",
"595 -6 CURVE",
"644 -6 OFFCURVE",
"695 30 OFFCURVE",
"725 87 CURVE",
"745 125 OFFCURVE",
"745 133 OFFCURVE",
"726 133 CURVE",
"717 133 OFFCURVE",
"698 118 OFFCURVE",
"683 98 CURVE",
"631 32 OFFCURVE",
"583 69 OFFCURVE",
"568 188 CURVE",
"557 273 OFFCURVE",
"529 335 OFFCURVE",
"497 347 CURVE",
"462 361 OFFCURVE",
"473 382 OFFCURVE",
"531 412 CURVE",
"666 481 OFFCURVE",
"661 657 OFFCURVE",
"523 714 CURVE",
"460 741 OFFCURVE",
"52 742 OFFCURVE",
"61 716 CURVE"
);
},
{
closed = 1;
nodes = (
"462 670 OFFCURVE",
"483 642 OFFCURVE",
"497 613 CURVE",
"521 562 LINE",
"505 508 LINE",
"485 442 OFFCURVE",
"439 410 OFFCURVE",
"350 402 CURVE",
"249 392 OFFCURVE",
"239 406 OFFCURVE",
"239 546 CURVE",
"239 662 LINE",
"269 683 LINE",
"300 705 OFFCURVE",
"401 701 OFFCURVE",
"450 676 CURVE"
);
}
);
width = 800;
},
{
background = {
paths = (
{
closed = 1;
nodes = (
"61 693 OFFCURVE",
"75 683 OFFCURVE",
"90 681 CURVE",
"105 678 OFFCURVE",
"121 672 OFFCURVE",
"127 667 CURVE",
"132 662 OFFCURVE",
"137 523 OFFCURVE",
"139 359 CURVE",
"141 61 LINE",
"122 49 LINE",
"112 42 OFFCURVE",
"92 37 OFFCURVE",
"79 37 CURVE",
"65 37 OFFCURVE",
"54 27 OFFCURVE",
"54 16 CURVE",
"54 -5 LINE",
"176 -5 LINE",
"243 -5 OFFCURVE",
"308 1 OFFCURVE",
"319 8 CURVE",
"339 21 LINE",
"312 30 LINE",
"244 51 OFFCURVE",
"243 54 OFFCURVE",
"243 199 CURVE",
"243 337 LINE",
"308 341 LINE",
"345 343 OFFCURVE",
"387 338 OFFCURVE",
"403 330 CURVE",
"440 310 OFFCURVE",
"466 245 OFFCURVE",
"478 143 CURVE",
"491 35 OFFCURVE",
"528 -19 OFFCURVE",
"592 -19 CURVE",
"641 -19 OFFCURVE",
"692 17 OFFCURVE",
"722 74 CURVE",
"742 112 OFFCURVE",
"742 120 OFFCURVE",
"723 120 CURVE",
"714 120 OFFCURVE",
"695 105 OFFCURVE",
"680 85 CURVE",
"628 19 OFFCURVE",
"580 56 OFFCURVE",
"565 175 CURVE",
"554 260 OFFCURVE",
"526 322 OFFCURVE",
"494 334 CURVE",
"459 348 OFFCURVE",
"470 369 OFFCURVE",
"528 399 CURVE",
"663 468 OFFCURVE",
"658 644 OFFCURVE",
"520 701 CURVE",
"457 728 OFFCURVE",
"49 729 OFFCURVE",
"58 703 CURVE"
);
},
{
closed = 1;
nodes = (
"459 657 OFFCURVE",
"480 629 OFFCURVE",
"494 600 CURVE",
"518 549 LINE",
"502 495 LINE",
"482 429 OFFCURVE",
"436 397 OFFCURVE",
"347 389 CURVE",
"246 379 OFFCURVE",
"236 393 OFFCURVE",
"236 533 CURVE",
"236 649 LINE",
"266 670 LINE",
"297 692 OFFCURVE",
"398 688 OFFCURVE",
"447 663 CURVE"
);
}
);
};
hints = (
{
origin = "{0, 30}";
scale = "{-1.48, 1.08}";
type = Corner;
name = _corner.serif.lc.foot;
},
{
origin = "{0, 31}";
type = Corner;
name = _corner.uc.inside;
},
{
origin = "{0, 28}";
scale = "{1.44, -1.08}";
type = Corner;
name = _corner.serif.lc.foot;
},
{
origin = "{0, 29}";
scale = "{1.44, 1.08}";
type = Corner;
name = _corner.serif.lc.foot;
},
{
origin = "{0, 3}";
type = Corner;
name = _corner.round;
},
{
origin = "{0, 2}";
type = Corner;
name = _corner.round;
}
);
layerId = "2EA6C462-E43A-4553-9036-03D60599BBF6";
paths = (
{
closed = 1;
nodes = (
"663 -12 OFFCURVE",
"705 25 OFFCURVE",
"742 113 CURVE",
"706 132 LINE",
"679 83 OFFCURVE",
"661 64 OFFCURVE",
"636 64 CURVE SMOOTH",
"621 64 OFFCURVE",
"607 71 OFFCURVE",
"598 90 CURVE SMOOTH",
"590 107 OFFCURVE",
"582 136 OFFCURVE",
"572 191 CURVE SMOOTH",
"563 243 OFFCURVE",
"548 285 OFFCURVE",
"518 315 CURVE SMOOTH",
"482 351 OFFCURVE",
"434 370 OFFCURVE",
"353 370 CURVE SMOOTH",
"329 370 LINE",
"329 354 LINE",
"352 354 LINE SMOOTH",
"555 354 OFFCURVE",
"628 437 OFFCURVE",
"628 538 CURVE SMOOTH",
"628 637 OFFCURVE",
"555 720 OFFCURVE",
"372 720 CURVE SMOOTH",
"136 720 LINE",
"136 0 LINE",
"244 0 LINE",
"244 672 LINE",
"363 672 LINE SMOOTH",
"451 672 OFFCURVE",
"506 629 OFFCURVE",
"506 531 CURVE SMOOTH",
"506 433 OFFCURVE",
"451 388 OFFCURVE",
"363 388 CURVE SMOOTH",
"213 388 LINE",
"213 338 LINE",
"337 338 LINE SMOOTH",
"381 338 OFFCURVE",
"412 322 OFFCURVE",
"433 294 CURVE SMOOTH",
"457 262 OFFCURVE",
"462 214 OFFCURVE",
"469 164 CURVE SMOOTH",
"476 113 OFFCURVE",
"480 61 OFFCURVE",
"510 23 CURVE SMOOTH",
"528 0 OFFCURVE",
"558 -12 OFFCURVE",
"595 -12 CURVE SMOOTH"
);
},
{
closed = 1;
nodes = (
"452 346 LINE",
"452 378 LINE",
"413 378 LINE",
"413 346 LINE"
);
}
);
width = 800;
},
{
layerId = "F6C816F3-9BC2-4509-B825-E49BED503D7A";
paths = (
{
closed = 1;
nodes = (
"48 660 OFFCURVE",
"66 644 OFFCURVE",
"93 633 CURVE",
"142 613 LINE",
"146 399 LINE",
"148 282 OFFCURVE",
"147 157 OFFCURVE",
"143 123 CURVE",
"136 61 LINE",
"91 48 LINE",
"66 41 OFFCURVE",
"46 27 OFFCURVE",
"46 16 CURVE",
"46 1 OFFCURVE",
"77 -3 OFFCURVE",
"185 -3 CURVE",
"325 -3 LINE",
"325 25 LINE",
"325 45 OFFCURVE",
"315 53 OFFCURVE",
"291 53 CURVE",
"248 53 OFFCURVE",
"241 75 OFFCURVE",
"241 200 CURVE",
"241 303 LINE",
"268 318 LINE",
"284 326 OFFCURVE",
"313 329 OFFCURVE",
"335 324 CURVE",
"356 320 OFFCURVE",
"386 314 OFFCURVE",
"402 310 CURVE",
"437 304 OFFCURVE",
"468 235 OFFCURVE",
"490 116 CURVE",
"509 16 OFFCURVE",
"528 -6 OFFCURVE",
"600 -8 CURVE",
"664 -9 OFFCURVE",
"686 5 OFFCURVE",
"723 73 CURVE",
"755 133 OFFCURVE",
"737 158 OFFCURVE",
"699 105 CURVE",
"669 64 OFFCURVE",
"630 56 OFFCURVE",
"606 85 CURVE",
"597 95 OFFCURVE",
"583 137 OFFCURVE",
"575 177 CURVE",
"564 228 OFFCURVE",
"545 264 OFFCURVE",
"513 296 CURVE",
"466 343 LINE",
"526 366 LINE",
"572 383 OFFCURVE",
"594 403 OFFCURVE",
"618 449 CURVE",
"650 509 LINE",
"623 563 LINE",
"608 593 OFFCURVE",
"575 632 OFFCURVE",
"549 649 CURVE",
"502 681 LINE",
"281 681 LINE",
"154 681 OFFCURVE",
"58 675 OFFCURVE",
"53 667 CURVE"
);
},
{
closed = 1;
nodes = (
"509 566 OFFCURVE",
"520 536 OFFCURVE",
"520 502 CURVE",
"520 403 OFFCURVE",
"461 364 OFFCURVE",
"318 366 CURVE",
"248 367 LINE",
"240 611 LINE",
"272 623 LINE",
"289 630 OFFCURVE",
"337 634 OFFCURVE",
"379 633 CURVE",
"454 630 LINE",
"487 592 LINE"
);
}
);
width = 800;
},
{
layerId = "8BBD64F6-C2DD-426A-A806-28AAAAE0677A";
paths = (
{
closed = 1;
nodes = (
"48 660 OFFCURVE",
"66 644 OFFCURVE",
"93 633 CURVE",
"142 613 LINE",
"146 399 LINE",
"148 282 OFFCURVE",
"147 157 OFFCURVE",
"143 123 CURVE",
"136 61 LINE",
"91 48 LINE",
"66 41 OFFCURVE",
"46 27 OFFCURVE",
"46 16 CURVE",
"46 1 OFFCURVE",
"77 -3 OFFCURVE",
"185 -3 CURVE",
"325 -3 LINE",
"325 25 LINE",
"325 45 OFFCURVE",
"315 53 OFFCURVE",
"291 53 CURVE",
"248 53 OFFCURVE",
"241 75 OFFCURVE",
"241 200 CURVE",
"241 303 LINE",
"268 318 LINE",
"284 326 OFFCURVE",
"313 329 OFFCURVE",
"335 324 CURVE",
"356 320 OFFCURVE",
"386 314 OFFCURVE",
"402 310 CURVE",
"437 304 OFFCURVE",
"468 235 OFFCURVE",
"490 116 CURVE",
"509 16 OFFCURVE",
"528 -6 OFFCURVE",
"600 -8 CURVE",
"664 -9 OFFCURVE",
"686 5 OFFCURVE",
"723 73 CURVE",
"755 133 OFFCURVE",
"737 158 OFFCURVE",
"699 105 CURVE",
"669 64 OFFCURVE",
"630 56 OFFCURVE",
"606 85 CURVE",
"597 95 OFFCURVE",
"583 137 OFFCURVE",
"575 177 CURVE",
"564 228 OFFCURVE",
"545 264 OFFCURVE",
"513 296 CURVE",
"466 343 LINE",
"526 366 LINE",
"572 383 OFFCURVE",
"594 403 OFFCURVE",
"618 449 CURVE",
"650 509 LINE",
"623 563 LINE",
"608 593 OFFCURVE",
"575 632 OFFCURVE",
"549 649 CURVE",
"502 681 LINE",
"281 681 LINE",
"154 681 OFFCURVE",
"58 675 OFFCURVE",
"53 667 CURVE"
);
},
{
closed = 1;
nodes = (
"509 566 OFFCURVE",
"520 536 OFFCURVE",
"520 502 CURVE",
"520 403 OFFCURVE",
"461 364 OFFCURVE",
"318 366 CURVE",
"248 367 LINE",
"240 611 LINE",
"272 623 LINE",
"289 630 OFFCURVE",
"337 634 OFFCURVE",
"379 633 CURVE",
"454 630 LINE",
"487 592 LINE"
);
}
);
width = 800;
},
{
layerId = "664CC791-0498-4EB7-B1D0-E1FFFC98853E";
paths = (
{
closed = 1;
nodes = (
"64 706 OFFCURVE",
"78 696 OFFCURVE",
"93 694 CURVE",
"108 691 OFFCURVE",
"124 685 OFFCURVE",
"130 680 CURVE",
"135 675 OFFCURVE",
"140 536 OFFCURVE",
"142 372 CURVE",
"144 74 LINE",
"125 62 LINE",
"115 55 OFFCURVE",
"95 50 OFFCURVE",
"82 50 CURVE",
"68 50 OFFCURVE",
"57 40 OFFCURVE",
"57 29 CURVE",
"57 8 LINE",
"179 8 LINE",
"246 8 OFFCURVE",
"311 14 OFFCURVE",
"322 21 CURVE",
"342 34 LINE",
"315 43 LINE",
"247 64 OFFCURVE",
"246 67 OFFCURVE",
"246 212 CURVE",
"246 350 LINE",
"311 354 LINE",
"348 356 OFFCURVE",
"390 351 OFFCURVE",
"406 343 CURVE",
"443 323 OFFCURVE",
"469 258 OFFCURVE",
"481 156 CURVE",
"494 48 OFFCURVE",
"531 -6 OFFCURVE",
"595 -6 CURVE",
"644 -6 OFFCURVE",
"695 30 OFFCURVE",
"725 87 CURVE",
"745 125 OFFCURVE",
"745 133 OFFCURVE",
"726 133 CURVE",
"717 133 OFFCURVE",
"698 118 OFFCURVE",
"683 98 CURVE",
"631 32 OFFCURVE",
"583 69 OFFCURVE",
"568 188 CURVE",
"557 273 OFFCURVE",
"529 335 OFFCURVE",
"497 347 CURVE",
"462 361 OFFCURVE",
"473 382 OFFCURVE",
"531 412 CURVE",
"666 481 OFFCURVE",
"661 657 OFFCURVE",
"523 714 CURVE",
"460 741 OFFCURVE",
"52 742 OFFCURVE",
"61 716 CURVE"
);
},
{
closed = 1;
nodes = (
"462 670 OFFCURVE",
"483 642 OFFCURVE",
"497 613 CURVE",
"521 562 LINE",
"505 508 LINE",
"485 442 OFFCURVE",
"439 410 OFFCURVE",
"350 402 CURVE",
"249 392 OFFCURVE",
"239 406 OFFCURVE",
"239 546 CURVE",
"239 662 LINE",
"269 683 LINE",
"300 705 OFFCURVE",
"401 701 OFFCURVE",
"450 676 CURVE"
);
}
);
width = 800;
},
{
layerId = "9F6891F3-FE19-4DFC-8FDB-D5777C380353";
paths = (
{
closed = 1;
nodes = (
"48 660 OFFCURVE",
"66 644 OFFCURVE",
"93 633 CURVE",
"142 613 LINE",
"146 399 LINE",
"148 282 OFFCURVE",
"147 157 OFFCURVE",
"143 123 CURVE",
"136 61 LINE",
"91 48 LINE",
"66 41 OFFCURVE",
"46 27 OFFCURVE",
"46 16 CURVE",
"46 1 OFFCURVE",
"77 -3 OFFCURVE",
"185 -3 CURVE",
"325 -3 LINE",
"325 25 LINE",
"325 45 OFFCURVE",
"315 53 OFFCURVE",
"291 53 CURVE",
"248 53 OFFCURVE",
"241 75 OFFCURVE",
"241 200 CURVE",
"241 303 LINE",
"268 318 LINE",
"284 326 OFFCURVE",
"313 329 OFFCURVE",
"335 324 CURVE",
"356 320 OFFCURVE",
"386 314 OFFCURVE",
"402 310 CURVE",
"437 304 OFFCURVE",
"468 235 OFFCURVE",
"490 116 CURVE",
"509 16 OFFCURVE",
"528 -6 OFFCURVE",
"600 -8 CURVE",
"664 -9 OFFCURVE",
"686 5 OFFCURVE",
"723 73 CURVE",
"755 133 OFFCURVE",
"737 158 OFFCURVE",
"699 105 CURVE",
"669 64 OFFCURVE",
"630 56 OFFCURVE",
"606 85 CURVE",
"597 95 OFFCURVE",
"583 137 OFFCURVE",
"575 177 CURVE",
"564 228 OFFCURVE",
"545 264 OFFCURVE",
"513 296 CURVE",
"466 343 LINE",
"526 366 LINE",
"572 383 OFFCURVE",
"594 403 OFFCURVE",
"618 449 CURVE",
"650 509 LINE",
"623 563 LINE",
"608 593 OFFCURVE",
"575 632 OFFCURVE",
"549 649 CURVE",
"502 681 LINE",
"281 681 LINE",
"154 681 OFFCURVE",
"58 675 OFFCURVE",
"53 667 CURVE"
);
},
{
closed = 1;
nodes = (
"509 566 OFFCURVE",
"520 536 OFFCURVE",
"520 502 CURVE",
"520 403 OFFCURVE",
"461 364 OFFCURVE",
"318 366 CURVE",
"248 367 LINE",
"240 611 LINE",
"272 623 LINE",
"289 630 OFFCURVE",
"337 634 OFFCURVE",
"379 633 CURVE",
"454 630 LINE",
"487 592 LINE"
);
}
);
width = 800;
}
);
leftKerningGroup = H;
rightKerningGroup = R;
unicode = 0052;
},
{
color = 5;
glyphname = S;
layers = (
{
layerId = "87410FD4-54DA-4328-9944-625314575885";
paths = (
{
closed = 1;
nodes = (
"59 657 OFFCURVE",
"44 467 OFFCURVE",
"156 394 CURVE",
"175 381 OFFCURVE",
"234 357 OFFCURVE",
"286 339 CURVE",
"439 287 OFFCURVE",
"477 247 OFFCURVE",
"462 155 CURVE",
"448 66 OFFCURVE",
"340 25 OFFCURVE",
"228 65 CURVE",
"180 83 OFFCURVE",
"136 140 OFFCURVE",
"110 220 CURVE",
"76 322 OFFCURVE",
"57 279 OFFCURVE",
"64 123 CURVE",
"68 47 OFFCURVE",
"74 22 OFFCURVE",
"89 22 CURVE",
"100 22 OFFCURVE",
"109 28 OFFCURVE",
"109 36 CURVE",
"109 57 OFFCURVE",
"161 52 OFFCURVE",
"211 26 CURVE",
"280 -10 OFFCURVE",
"392 -3 OFFCURVE",
"451 42 CURVE",
"516 91 OFFCURVE",
"541 145 OFFCURVE",
"541 233 CURVE",
"541 306 LINE",
"481 364 LINE",
"440 403 OFFCURVE",
"403 425 OFFCURVE",
"368 431 CURVE",
"274 446 OFFCURVE",
"191 495 OFFCURVE",
"169 550 CURVE",
"148 599 LINE",
"170 646 LINE",
"229 769 OFFCURVE",
"412 726 OFFCURVE",
"456 579 CURVE",
"472 526 OFFCURVE",
"504 506 OFFCURVE",
"517 542 CURVE",
"521 551 OFFCURVE",
"520 600 OFFCURVE",
"515 650 CURVE",
"507 740 LINE",
"444 743 LINE",
"409 744 OFFCURVE",
"346 749 OFFCURVE",
"304 754 CURVE",
"227 763 LINE",
"182 734 LINE"
);
}
);
width = 600;
},
{
background = {
hints = (
{
origin = "{0, 14}";
type = Corner;
name = _corner.round;
},
{
origin = "{0, 15}";
type = Corner;
name = _corner.round;
},
{
origin = "{0, 16}";
type = Corner;
name = _corner.round;
},
{
origin = "{0, 17}";
type = Corner;
name = _corner.round;
},
{
origin = "{0, 37}";
type = Corner;
name = _corner.round;
},
{
origin = "{0, 38}";
type = Corner;
name = _corner.round;
},
{
origin = "{0, 39}";
type = Corner;
name = _corner.round;
},
{
origin = "{0, 40}";
type = Corner;
name = _corner.round;
}
);
paths = (
{
closed = 1;
nodes = (
"453 -9 OFFCURVE",
"542 75 OFFCURVE",
"542 198 CURVE SMOOTH",
"542 313 OFFCURVE",
"487 380 OFFCURVE",
"328 432 CURVE SMOOTH",
"201 474 OFFCURVE",
"162 514 OFFCURVE",
"162 575 CURVE SMOOTH",
"162 636 OFFCURVE",
"210 684 OFFCURVE",
"277 684 CURVE SMOOTH",
"373 684 OFFCURVE",
"430 627 OFFCURVE",
"482 504 CURVE",
"518 509 LINE",
"518 720 LINE",
"478 720 LINE",
"438 622 LINE",
"482 614 LINE",
"436 678 OFFCURVE",
"378 732 OFFCURVE",
"274 732 CURVE SMOOTH",
"156 732 OFFCURVE",
"80 642 OFFCURVE",
"80 536 CURVE SMOOTH",
"80 426 OFFCURVE",
"140 370 OFFCURVE",
"290 319 CURVE SMOOTH",
"416 276 OFFCURVE",
"461 236 OFFCURVE",
"461 169 CURVE SMOOTH",
"461 76 OFFCURVE",
"394 36 OFFCURVE",
"321 36 CURVE SMOOTH",
"218 36 OFFCURVE",
"151 88 OFFCURVE",
"100 236 CURVE",
"65 232 LINE",
"64 0 LINE",
"98 0 LINE",
"152 90 LINE",
"107 99 LINE",
"154 30 OFFCURVE",
"233 -9 OFFCURVE",
"326 -9 CURVE SMOOTH"
);
}
);
};
hints = (
{
origin = "{0, 38}";
type = Corner;
name = _corner.round;
},
{
origin = "{0, 37}";
type = Corner;
name = _corner.round;
},
{
origin = "{0, 39}";
type = Corner;
name = _corner.round;
},
{
origin = "{0, 40}";
type = Corner;
name = _corner.round;
},
{
origin = "{0, 17}";
type = Corner;
name = _corner.round;
},
{
origin = "{0, 16}";
type = Corner;
name = _corner.round;
},
{
origin = "{0, 15}";
type = Corner;
name = _corner.round;
},
{
origin = "{0, 14}";
type = Corner;
name = _corner.round;
}
);
layerId = "2EA6C462-E43A-4553-9036-03D60599BBF6";
paths = (
{
closed = 1;
nodes = (
"453 -9 OFFCURVE",
"542 75 OFFCURVE",
"542 198 CURVE SMOOTH",
"542 314 OFFCURVE",
"487 383 OFFCURVE",
"328 436 CURVE SMOOTH",
"205 477 OFFCURVE",
"166 516 OFFCURVE",
"166 575 CURVE SMOOTH",
"166 633 OFFCURVE",
"212 679 OFFCURVE",
"279 679 CURVE SMOOTH",
"371 679 OFFCURVE",
"426 624 OFFCURVE",
"477 505 CURVE",
"518 509 LINE",
"518 720 LINE",
"476 720 LINE",
"438 639 LINE",
"485 617 LINE",
"439 679 OFFCURVE",
"380 732 OFFCURVE",
"276 732 CURVE SMOOTH",
"154 732 OFFCURVE",
"80 642 OFFCURVE",
"80 538 CURVE SMOOTH",
"80 425 OFFCURVE",
"140 367 OFFCURVE",
"290 315 CURVE SMOOTH",
"412 273 OFFCURVE",
"455 234 OFFCURVE",
"455 169 CURVE SMOOTH",
"455 79 OFFCURVE",
"391 41 OFFCURVE",
"319 41 CURVE SMOOTH",
"222 41 OFFCURVE",
"154 92 OFFCURVE",
"104 235 CURVE",
"65 232 LINE",
"64 0 LINE",
"104 0 LINE",
"148 76 LINE",
"105 97 LINE",
"152 29 OFFCURVE",
"232 -9 OFFCURVE",
"324 -9 CURVE SMOOTH"
);
}
);
width = 600;
},
{
layerId = "F6C816F3-9BC2-4509-B825-E49BED503D7A";
paths = (
{
closed = 1;
nodes = (
"117 646 OFFCURVE",
"82 589 OFFCURVE",
"80 509 CURVE",
"78 394 OFFCURVE",
"145 330 OFFCURVE",
"306 297 CURVE",
"454 266 OFFCURVE",
"502 177 OFFCURVE",
"416 92 CURVE",
"374 49 LINE",
"296 57 LINE",
"201 67 OFFCURVE",
"146 113 OFFCURVE",
"119 206 CURVE",
"88 311 OFFCURVE",
"62 288 OFFCURVE",
"57 152 CURVE",
"53 27 OFFCURVE",
"69 -17 OFFCURVE",
"102 29 CURVE",
"125 60 OFFCURVE",
"134 59 OFFCURVE",
"214 24 CURVE",
"280 -5 LINE",
"424 15 LINE",
"475 66 LINE",
"534 125 OFFCURVE",
"550 171 OFFCURVE",
"536 243 CURVE",
"522 316 OFFCURVE",
"467 364 OFFCURVE",
"355 399 CURVE",
"302 416 OFFCURVE",
"251 430 OFFCURVE",
"242 430 CURVE",
"232 430 OFFCURVE",
"208 449 OFFCURVE",
"187 474 CURVE",
"158 509 OFFCURVE",
"151 528 OFFCURVE",
"158 561 CURVE",
"170 624 OFFCURVE",
"213 653 OFFCURVE",
"295 653 CURVE",
"365 653 LINE",
"411 603 LINE",
"437 576 OFFCURVE",
"462 532 OFFCURVE",
"467 505 CURVE",
"474 470 OFFCURVE",
"483 457 OFFCURVE",
"499 460 CURVE",
"522 465 LINE",
"522 574 LINE",
"523 688 OFFCURVE",
"508 716 OFFCURVE",
"466 680 CURVE",
"445 663 LINE",
"376 686 LINE",
"287 715 OFFCURVE",
"255 714 OFFCURVE",
"187 681 CURVE"
);
}
);
width = 600;
},
{
layerId = "8BBD64F6-C2DD-426A-A806-28AAAAE0677A";
paths = (
{
closed = 1;
nodes = (
"117 646 OFFCURVE",
"82 589 OFFCURVE",
"80 509 CURVE",
"78 394 OFFCURVE",
"145 330 OFFCURVE",
"306 297 CURVE",
"454 266 OFFCURVE",
"502 177 OFFCURVE",
"416 92 CURVE",
"374 49 LINE",
"296 57 LINE",
"201 67 OFFCURVE",
"146 113 OFFCURVE",
"119 206 CURVE",
"88 311 OFFCURVE",
"62 288 OFFCURVE",
"57 152 CURVE",
"53 27 OFFCURVE",
"69 -17 OFFCURVE",
"102 29 CURVE",
"125 60 OFFCURVE",
"134 59 OFFCURVE",
"214 24 CURVE",
"280 -5 LINE",
"424 15 LINE",
"475 66 LINE",
"534 125 OFFCURVE",
"550 171 OFFCURVE",
"536 243 CURVE",
"522 316 OFFCURVE",
"467 364 OFFCURVE",
"355 399 CURVE",
"302 416 OFFCURVE",
"251 430 OFFCURVE",
"242 430 CURVE",
"232 430 OFFCURVE",
"208 449 OFFCURVE",
"187 474 CURVE",
"158 509 OFFCURVE",
"151 528 OFFCURVE",
"158 561 CURVE",
"170 624 OFFCURVE",
"213 653 OFFCURVE",
"295 653 CURVE",
"365 653 LINE",
"411 603 LINE",
"437 576 OFFCURVE",
"462 532 OFFCURVE",
"467 505 CURVE",
"474 470 OFFCURVE",
"483 457 OFFCURVE",
"499 460 CURVE",
"522 465 LINE",
"522 574 LINE",
"523 688 OFFCURVE",
"508 716 OFFCURVE",
"466 680 CURVE",
"445 663 LINE",
"376 686 LINE",
"287 715 OFFCURVE",
"255 714 OFFCURVE",
"187 681 CURVE"
);
}
);
width = 600;
},
{
layerId = "664CC791-0498-4EB7-B1D0-E1FFFC98853E";
paths = (
{
closed = 1;
nodes = (
"59 657 OFFCURVE",
"44 467 OFFCURVE",
"156 394 CURVE",
"175 381 OFFCURVE",
"234 357 OFFCURVE",
"286 339 CURVE",
"439 287 OFFCURVE",
"477 247 OFFCURVE",
"462 155 CURVE",
"448 66 OFFCURVE",
"340 25 OFFCURVE",
"228 65 CURVE",
"180 83 OFFCURVE",
"136 140 OFFCURVE",
"110 220 CURVE",
"76 322 OFFCURVE",
"57 279 OFFCURVE",
"64 123 CURVE",
"68 47 OFFCURVE",
"74 22 OFFCURVE",
"89 22 CURVE",
"100 22 OFFCURVE",
"109 28 OFFCURVE",
"109 36 CURVE",
"109 57 OFFCURVE",
"161 52 OFFCURVE",
"211 26 CURVE",
"280 -10 OFFCURVE",
"392 -3 OFFCURVE",
"451 42 CURVE",
"516 91 OFFCURVE",
"541 145 OFFCURVE",
"541 233 CURVE",
"541 306 LINE",
"481 364 LINE",
"440 403 OFFCURVE",
"403 425 OFFCURVE",
"368 431 CURVE",
"274 446 OFFCURVE",
"191 495 OFFCURVE",
"169 550 CURVE",
"148 599 LINE",
"170 646 LINE",
"229 769 OFFCURVE",
"412 726 OFFCURVE",
"456 579 CURVE",
"472 526 OFFCURVE",
"504 506 OFFCURVE",
"517 542 CURVE",
"521 551 OFFCURVE",
"520 600 OFFCURVE",
"515 650 CURVE",
"507 740 LINE",
"444 743 LINE",
"409 744 OFFCURVE",
"346 749 OFFCURVE",
"304 754 CURVE",
"227 763 LINE",
"182 734 LINE"
);
}
);
width = 600;
},
{
layerId = "9F6891F3-FE19-4DFC-8FDB-D5777C380353";
paths = (
{
closed = 1;
nodes = (
"117 646 OFFCURVE",
"82 589 OFFCURVE",
"80 509 CURVE",
"78 394 OFFCURVE",
"145 330 OFFCURVE",
"306 297 CURVE",
"454 266 OFFCURVE",
"502 177 OFFCURVE",
"416 92 CURVE",
"374 49 LINE",
"296 57 LINE",
"201 67 OFFCURVE",
"146 113 OFFCURVE",
"119 206 CURVE",
"88 311 OFFCURVE",
"62 288 OFFCURVE",
"57 152 CURVE",
"53 27 OFFCURVE",
"69 -17 OFFCURVE",
"102 29 CURVE",
"125 60 OFFCURVE",
"134 59 OFFCURVE",
"214 24 CURVE",
"280 -5 LINE",
"424 15 LINE",
"475 66 LINE",
"534 125 OFFCURVE",
"550 171 OFFCURVE",
"536 243 CURVE",
"522 316 OFFCURVE",
"467 364 OFFCURVE",
"355 399 CURVE",
"302 416 OFFCURVE",
"251 430 OFFCURVE",
"242 430 CURVE",
"232 430 OFFCURVE",
"208 449 OFFCURVE",
"187 474 CURVE",
"158 509 OFFCURVE",
"151 528 OFFCURVE",
"158 561 CURVE",
"170 624 OFFCURVE",
"213 653 OFFCURVE",
"295 653 CURVE",
"365 653 LINE",
"411 603 LINE",
"437 576 OFFCURVE",
"462 532 OFFCURVE",
"467 505 CURVE",
"474 470 OFFCURVE",
"483 457 OFFCURVE",
"499 460 CURVE",
"522 465 LINE",
"522 574 LINE",
"523 688 OFFCURVE",
"508 716 OFFCURVE",
"466 680 CURVE",
"445 663 LINE",
"376 686 LINE",
"287 715 OFFCURVE",
"255 714 OFFCURVE",
"187 681 CURVE"
);
}
);
width = 600;
}
);
leftKerningGroup = S;
rightKerningGroup = S;
unicode = 0053;
},
{
glyphname = T;
layers = (
{
layerId = "87410FD4-54DA-4328-9944-625314575885";
paths = (
{
closed = 1;
nodes = (
"45 728 OFFCURVE",
"34 670 OFFCURVE",
"30 603 CURVE",
"21 482 LINE",
"44 482 LINE",
"61 482 OFFCURVE",
"67 495 OFFCURVE",
"67 531 CURVE",
"67 658 OFFCURVE",
"183 749 OFFCURVE",
"267 688 CURVE",
"291 671 LINE",
"287 371 LINE",
"283 70 LINE",
"249 66 LINE",
"208 60 OFFCURVE",
"176 37 OFFCURVE",
"186 21 CURVE",
"192 12 OFFCURVE",
"373 12 OFFCURVE",
"475 21 CURVE",
"503 23 OFFCURVE",
"481 47 OFFCURVE",
"440 58 CURVE",
"395 71 LINE",
"391 369 LINE",
"389 577 OFFCURVE",
"392 673 OFFCURVE",
"404 686 CURVE",
"412 697 OFFCURVE",
"441 706 OFFCURVE",
"467 706 CURVE",
"534 706 OFFCURVE",
"577 658 OFFCURVE",
"598 561 CURVE",
"625 443 OFFCURVE",
"647 469 OFFCURVE",
"641 609 CURVE",
"639 674 OFFCURVE",
"633 732 OFFCURVE",
"630 738 CURVE",
"622 751 OFFCURVE",
"75 747 OFFCURVE",
"53 734 CURVE"
);
}
);
width = 700;
},
{
background = {
paths = (
{
closed = 1;
nodes = (
"53 703 OFFCURVE",
"42 645 OFFCURVE",
"38 578 CURVE",
"29 457 LINE",
"52 457 LINE",
"69 457 OFFCURVE",
"75 470 OFFCURVE",
"75 506 CURVE",
"75 633 OFFCURVE",
"191 724 OFFCURVE",
"275 663 CURVE",
"299 646 LINE",
"295 346 LINE",
"291 45 LINE",
"257 41 LINE",
"216 35 OFFCURVE",
"184 12 OFFCURVE",
"194 -4 CURVE",
"200 -13 OFFCURVE",
"381 -13 OFFCURVE",
"483 -4 CURVE",
"511 -2 OFFCURVE",
"489 22 OFFCURVE",
"448 33 CURVE",
"403 46 LINE",
"399 344 LINE",
"397 552 OFFCURVE",
"400 648 OFFCURVE",
"412 661 CURVE",
"420 672 OFFCURVE",
"449 681 OFFCURVE",
"475 681 CURVE",
"542 681 OFFCURVE",
"585 633 OFFCURVE",
"606 536 CURVE",
"633 418 OFFCURVE",
"655 444 OFFCURVE",
"649 584 CURVE",
"647 649 OFFCURVE",
"641 707 OFFCURVE",
"638 713 CURVE",
"630 726 OFFCURVE",
"83 722 OFFCURVE",
"61 709 CURVE"
);
}
);
};
color = 4;
hints = (
{
origin = "{0, 0}";
scale = "{-1.66, 1.08}";
type = Corner;
name = _corner.serif.lc.foot;
},
{
origin = "{0, 15}";
scale = "{1.66, 1.08}";
type = Corner;
name = _corner.serif.lc.foot;
},
{
origin = "{0, 7}";
type = Corner;
name = _corner.round;
},
{
origin = "{0, 6}";
type = Corner;
name = _corner.round;
},
{
origin = "{0, 5}";
type = Corner;
name = _corner.round;
},
{
origin = "{0, 10}";
type = Corner;
name = _corner.round;
},
{
origin = "{0, 9}";
type = Corner;
name = _corner.round;
},
{
origin = "{0, 9}";
type = Corner;
name = _corner.round;
},
{
origin = "{0, 14}";
type = Corner;
name = _corner.uc.inside;
},
{
origin = "{0, 1}";
type = Corner;
name = _corner.uc.inside;
},
{
origin = "{0, 8}";
type = Corner;
name = _corner.round;
}
);
layerId = "2EA6C462-E43A-4553-9036-03D60599BBF6";
paths = (
{
closed = 1;
nodes = (
"404 0 LINE",
"404 672 LINE",
"461 672 LINE SMOOTH",
"543 672 OFFCURVE",
"590 613 OFFCURVE",
"619 465 CURVE",
"669 469 LINE",
"651 720 LINE",
"49 720 LINE",
"31 469 LINE",
"81 465 LINE",
"110 613 OFFCURVE",
"157 672 OFFCURVE",
"239 672 CURVE SMOOTH",
"296 672 LINE",
"296 0 LINE"
);
}
);
width = 700;
},
{
layerId = "F6C816F3-9BC2-4509-B825-E49BED503D7A";
paths = (
{
closed = 1;
nodes = (
"26 679 LINE",
"26 635 LINE",
"25 610 OFFCURVE",
"21 554 OFFCURVE",
"17 510 CURVE",
"10 430 LINE",
"30 430 LINE",
"51 430 OFFCURVE",
"68 469 OFFCURVE",
"68 523 CURVE",
"68 539 OFFCURVE",
"84 572 OFFCURVE",
"104 596 CURVE",
"132 629 OFFCURVE",
"151 639 OFFCURVE",
"191 638 CURVE",
"219 638 OFFCURVE",
"251 633 OFFCURVE",
"262 626 CURVE",
"282 613 LINE",
"281 355 LINE",
"280 213 OFFCURVE",
"276 90 OFFCURVE",
"271 82 CURVE",
"266 74 OFFCURVE",
"243 63 OFFCURVE",
"221 57 CURVE",
"198 51 OFFCURVE",
"179 40 OFFCURVE",
"179 32 CURVE",
"178 15 OFFCURVE",
"281 -4 OFFCURVE",
"339 3 CURVE",
"362 6 OFFCURVE",
"405 9 OFFCURVE",
"434 10 CURVE",
"498 12 OFFCURVE",
"506 46 OFFCURVE",
"444 58 CURVE",
"418 63 OFFCURVE",
"398 78 OFFCURVE",
"390 98 CURVE",
"371 149 OFFCURVE",
"371 596 OFFCURVE",
"390 619 CURVE",
"409 642 OFFCURVE",
"490 645 OFFCURVE",
"529 625 CURVE",
"558 609 OFFCURVE",
"594 539 OFFCURVE",
"601 485 CURVE",
"603 465 OFFCURVE",
"616 449 OFFCURVE",
"630 446 CURVE",
"655 441 LINE",
"646 550 LINE",
"640 610 OFFCURVE",
"631 666 OFFCURVE",
"625 674 CURVE",
"613 689 OFFCURVE",
"401 693 OFFCURVE",
"155 684 CURVE"
);
}
);
width = 700;
},
{
layerId = "8BBD64F6-C2DD-426A-A806-28AAAAE0677A";
paths = (
{
closed = 1;
nodes = (
"26 679 LINE",
"26 635 LINE",
"25 610 OFFCURVE",
"21 554 OFFCURVE",
"17 510 CURVE",
"10 430 LINE",
"30 430 LINE",
"51 430 OFFCURVE",
"68 469 OFFCURVE",
"68 523 CURVE",
"68 539 OFFCURVE",
"84 572 OFFCURVE",
"104 596 CURVE",
"132 629 OFFCURVE",
"151 639 OFFCURVE",
"191 638 CURVE",
"219 638 OFFCURVE",
"251 633 OFFCURVE",
"262 626 CURVE",
"282 613 LINE",
"281 355 LINE",
"280 213 OFFCURVE",
"276 90 OFFCURVE",
"271 82 CURVE",
"266 74 OFFCURVE",
"243 63 OFFCURVE",
"221 57 CURVE",
"198 51 OFFCURVE",
"179 40 OFFCURVE",
"179 32 CURVE",
"178 15 OFFCURVE",
"281 -4 OFFCURVE",
"339 3 CURVE",
"362 6 OFFCURVE",
"405 9 OFFCURVE",
"434 10 CURVE",
"498 12 OFFCURVE",
"506 46 OFFCURVE",
"444 58 CURVE",
"418 63 OFFCURVE",
"398 78 OFFCURVE",
"390 98 CURVE",
"371 149 OFFCURVE",
"371 596 OFFCURVE",
"390 619 CURVE",
"409 642 OFFCURVE",
"490 645 OFFCURVE",
"529 625 CURVE",
"558 609 OFFCURVE",
"594 539 OFFCURVE",
"601 485 CURVE",
"603 465 OFFCURVE",
"616 449 OFFCURVE",
"630 446 CURVE",
"655 441 LINE",
"646 550 LINE",
"640 610 OFFCURVE",
"631 666 OFFCURVE",
"625 674 CURVE",
"613 689 OFFCURVE",
"401 693 OFFCURVE",
"155 684 CURVE"
);
}
);
width = 700;
},
{
layerId = "664CC791-0498-4EB7-B1D0-E1FFFC98853E";
paths = (
{
closed = 1;
nodes = (
"45 728 OFFCURVE",
"34 670 OFFCURVE",
"30 603 CURVE",
"21 482 LINE",
"44 482 LINE",
"61 482 OFFCURVE",
"67 495 OFFCURVE",
"67 531 CURVE",
"67 658 OFFCURVE",
"183 749 OFFCURVE",
"267 688 CURVE",
"291 671 LINE",
"287 371 LINE",
"283 70 LINE",
"249 66 LINE",
"208 60 OFFCURVE",
"176 37 OFFCURVE",
"186 21 CURVE",
"192 12 OFFCURVE",
"373 12 OFFCURVE",
"475 21 CURVE",
"503 23 OFFCURVE",
"481 47 OFFCURVE",
"440 58 CURVE",
"395 71 LINE",
"391 369 LINE",
"389 577 OFFCURVE",
"392 673 OFFCURVE",
"404 686 CURVE",
"412 697 OFFCURVE",
"441 706 OFFCURVE",
"467 706 CURVE",
"534 706 OFFCURVE",
"577 658 OFFCURVE",
"598 561 CURVE",
"625 443 OFFCURVE",
"647 469 OFFCURVE",
"641 609 CURVE",
"639 674 OFFCURVE",
"633 732 OFFCURVE",
"630 738 CURVE",
"622 751 OFFCURVE",
"75 747 OFFCURVE",
"53 734 CURVE"
);
}
);
width = 700;
},
{
layerId = "9F6891F3-FE19-4DFC-8FDB-D5777C380353";
paths = (
{
closed = 1;
nodes = (
"26 679 LINE",
"26 635 LINE",
"25 610 OFFCURVE",
"21 554 OFFCURVE",
"17 510 CURVE",
"10 430 LINE",
"30 430 LINE",
"51 430 OFFCURVE",
"68 469 OFFCURVE",
"68 523 CURVE",
"68 539 OFFCURVE",
"84 572 OFFCURVE",
"104 596 CURVE",
"132 629 OFFCURVE",
"151 639 OFFCURVE",
"191 638 CURVE",
"219 638 OFFCURVE",
"251 633 OFFCURVE",
"262 626 CURVE",
"282 613 LINE",
"281 355 LINE",
"280 213 OFFCURVE",
"276 90 OFFCURVE",
"271 82 CURVE",
"266 74 OFFCURVE",
"243 63 OFFCURVE",
"221 57 CURVE",
"198 51 OFFCURVE",
"179 40 OFFCURVE",
"179 32 CURVE",
"178 15 OFFCURVE",
"281 -4 OFFCURVE",
"339 3 CURVE",
"362 6 OFFCURVE",
"405 9 OFFCURVE",
"434 10 CURVE",
"498 12 OFFCURVE",
"506 46 OFFCURVE",
"444 58 CURVE",
"418 63 OFFCURVE",
"398 78 OFFCURVE",
"390 98 CURVE",
"371 149 OFFCURVE",
"371 596 OFFCURVE",
"390 619 CURVE",
"409 642 OFFCURVE",
"490 645 OFFCURVE",
"529 625 CURVE",
"558 609 OFFCURVE",
"594 539 OFFCURVE",
"601 485 CURVE",
"603 465 OFFCURVE",
"616 449 OFFCURVE",
"630 446 CURVE",
"655 441 LINE",
"646 550 LINE",
"640 610 OFFCURVE",
"631 666 OFFCURVE",
"625 674 CURVE",
"613 689 OFFCURVE",
"401 693 OFFCURVE",
"155 684 CURVE"
);
}
);
width = 700;
}
);
leftKerningGroup = T;
rightKerningGroup = T;
unicode = 0054;
},
{
glyphname = U;
layers = (
{
layerId = "87410FD4-54DA-4328-9944-625314575885";
paths = (
{
closed = 1;
nodes = (
"45 701 OFFCURVE",
"63 680 OFFCURVE",
"93 680 CURVE",
"107 680 OFFCURVE",
"124 672 OFFCURVE",
"130 663 CURVE",
"135 654 OFFCURVE",
"141 536 OFFCURVE",
"141 401 CURVE",
"143 156 LINE",
"166 114 LINE",
"245 -34 OFFCURVE",
"448 -63 OFFCURVE",
"579 57 CURVE",
"642 113 OFFCURVE",
"649 146 OFFCURVE",
"652 380 CURVE",
"654 503 OFFCURVE",
"658 617 OFFCURVE",
"662 635 CURVE",
"666 652 OFFCURVE",
"687 676 OFFCURVE",
"709 687 CURVE",
"777 723 OFFCURVE",
"756 735 OFFCURVE",
"630 735 CURVE",
"512 735 LINE",
"512 715 LINE",
"512 703 OFFCURVE",
"521 694 OFFCURVE",
"533 694 CURVE",
"544 694 OFFCURVE",
"566 681 OFFCURVE",
"582 666 CURVE",
"610 638 LINE",
"610 414 LINE",
"610 106 OFFCURVE",
"585 55 OFFCURVE",
"433 42 CURVE",
"351 35 LINE",
"309 77 LINE",
"250 135 OFFCURVE",
"237 188 OFFCURVE",
"241 359 CURVE",
"243 439 OFFCURVE",
"245 542 OFFCURVE",
"245 586 CURVE",
"247 667 LINE",
"289 682 LINE",
"312 690 OFFCURVE",
"329 704 OFFCURVE",
"326 713 CURVE",
"319 733 OFFCURVE",
"71 742 OFFCURVE",
"58 722 CURVE"
);
}
);
width = 800;
},
{
color = 4;
hints = (
{
origin = "{0, 4}";
scale = "{-1.02, 1}";
type = Corner;
name = _corner.serif.uc.thin;
},
{
origin = "{0, 3}";
type = Corner;
name = _corner.serif.uc.thin;
},
{
origin = "{0, 13}";
scale = "{-1.44, 1.08}";
type = Corner;
name = _corner.serif.lc.foot;
},
{
origin = "{0, 12}";
scale = "{1.44, 1.08}";
type = Corner;
name = _corner.serif.lc.foot;
}
);
layerId = "2EA6C462-E43A-4553-9036-03D60599BBF6";
paths = (
{
closed = 1;
nodes = (
"583 -20 OFFCURVE",
"662 87 OFFCURVE",
"662 281 CURVE SMOOTH",
"662 720 LINE",
"602 720 LINE",
"602 279 LINE SMOOTH",
"602 136 OFFCURVE",
"557 55 OFFCURVE",
"424 55 CURVE SMOOTH",
"288 55 OFFCURVE",
"246 136 OFFCURVE",
"246 260 CURVE SMOOTH",
"246 720 LINE",
"138 720 LINE",
"138 267 LINE SMOOTH",
"138 90 OFFCURVE",
"223 -20 OFFCURVE",
"403 -20 CURVE SMOOTH"
);
}
);
width = 800;
},
{
layerId = "F6C816F3-9BC2-4509-B825-E49BED503D7A";
paths = (
{
closed = 1;
nodes = (
"46 670 LINE",
"89 648 LINE",
"112 636 OFFCURVE",
"136 616 OFFCURVE",
"140 603 CURVE",
"145 591 OFFCURVE",
"149 490 OFFCURVE",
"149 379 CURVE",
"149 177 LINE",
"177 122 LINE",
"196 86 OFFCURVE",
"225 57 OFFCURVE",
"263 38 CURVE",
"322 8 LINE",
"422 14 LINE",
"537 22 OFFCURVE",
"581 46 OFFCURVE",
"627 130 CURVE",
"657 185 LINE",
"667 604 LINE",
"689 628 LINE",
"701 642 OFFCURVE",
"720 653 OFFCURVE",
"731 653 CURVE",
"742 653 OFFCURVE",
"749 663 OFFCURVE",
"746 677 CURVE",
"743 690 OFFCURVE",
"734 701 OFFCURVE",
"724 700 CURVE",
"715 699 OFFCURVE",
"663 698 OFFCURVE",
"609 697 CURVE",
"502 694 OFFCURVE",
"486 678 OFFCURVE",
"560 647 CURVE",
"592 633 OFFCURVE",
"611 614 OFFCURVE",
"617 590 CURVE",
"632 530 OFFCURVE",
"609 190 OFFCURVE",
"587 147 CURVE",
"546 70 OFFCURVE",
"423 43 OFFCURVE",
"330 93 CURVE",
"254 133 OFFCURVE",
"247 160 OFFCURVE",
"247 406 CURVE",
"247 627 LINE",
"288 643 LINE",
"357 669 OFFCURVE",
"341 694 OFFCURVE",
"255 694 CURVE",
"214 694 OFFCURVE",
"162 698 OFFCURVE",
"140 702 CURVE",
"116 707 OFFCURVE",
"90 702 OFFCURVE",
"73 690 CURVE"
);
}
);
width = 800;
},
{
layerId = "8BBD64F6-C2DD-426A-A806-28AAAAE0677A";
paths = (
{
closed = 1;
nodes = (
"46 670 LINE",
"89 648 LINE",
"112 636 OFFCURVE",
"136 616 OFFCURVE",
"140 603 CURVE",
"145 591 OFFCURVE",
"149 490 OFFCURVE",
"149 379 CURVE",
"149 177 LINE",
"177 122 LINE",
"196 86 OFFCURVE",
"225 57 OFFCURVE",
"263 38 CURVE",
"322 8 LINE",
"422 14 LINE",
"537 22 OFFCURVE",
"581 46 OFFCURVE",
"627 130 CURVE",
"657 185 LINE",
"667 604 LINE",
"689 628 LINE",
"701 642 OFFCURVE",
"720 653 OFFCURVE",
"731 653 CURVE",
"742 653 OFFCURVE",
"749 663 OFFCURVE",
"746 677 CURVE",
"743 690 OFFCURVE",
"734 701 OFFCURVE",
"724 700 CURVE",
"715 699 OFFCURVE",
"663 698 OFFCURVE",
"609 697 CURVE",
"502 694 OFFCURVE",
"486 678 OFFCURVE",
"560 647 CURVE",
"592 633 OFFCURVE",
"611 614 OFFCURVE",
"617 590 CURVE",
"632 530 OFFCURVE",
"609 190 OFFCURVE",
"587 147 CURVE",
"546 70 OFFCURVE",
"423 43 OFFCURVE",
"330 93 CURVE",
"254 133 OFFCURVE",
"247 160 OFFCURVE",
"247 406 CURVE",
"247 627 LINE",
"288 643 LINE",
"357 669 OFFCURVE",
"341 694 OFFCURVE",
"255 694 CURVE",
"214 694 OFFCURVE",
"162 698 OFFCURVE",
"140 702 CURVE",
"116 707 OFFCURVE",
"90 702 OFFCURVE",
"73 690 CURVE"
);
}
);
width = 800;
},
{
layerId = "664CC791-0498-4EB7-B1D0-E1FFFC98853E";
paths = (
{
closed = 1;
nodes = (
"45 713 OFFCURVE",
"63 692 OFFCURVE",
"93 692 CURVE",
"107 692 OFFCURVE",
"124 684 OFFCURVE",
"130 675 CURVE",
"135 666 OFFCURVE",
"141 548 OFFCURVE",
"141 413 CURVE",
"143 168 LINE",
"166 126 LINE",
"245 -22 OFFCURVE",
"448 -51 OFFCURVE",
"579 69 CURVE",
"642 125 OFFCURVE",
"649 158 OFFCURVE",
"652 392 CURVE",
"654 515 OFFCURVE",
"658 629 OFFCURVE",
"662 647 CURVE",
"666 664 OFFCURVE",
"687 688 OFFCURVE",
"709 699 CURVE",
"777 735 OFFCURVE",
"756 747 OFFCURVE",
"630 747 CURVE",
"512 747 LINE",
"512 727 LINE",
"512 715 OFFCURVE",
"521 706 OFFCURVE",
"533 706 CURVE",
"544 706 OFFCURVE",
"566 693 OFFCURVE",
"582 678 CURVE",
"610 650 LINE",
"610 426 LINE",
"610 118 OFFCURVE",
"585 67 OFFCURVE",
"433 54 CURVE",
"351 47 LINE",
"309 89 LINE",
"250 147 OFFCURVE",
"237 200 OFFCURVE",
"241 371 CURVE",
"243 451 OFFCURVE",
"245 554 OFFCURVE",
"245 598 CURVE",
"247 679 LINE",
"289 694 LINE",
"312 702 OFFCURVE",
"329 716 OFFCURVE",
"326 725 CURVE",
"319 745 OFFCURVE",
"71 754 OFFCURVE",
"58 734 CURVE"
);
}
);
width = 800;
},
{
layerId = "9F6891F3-FE19-4DFC-8FDB-D5777C380353";
paths = (
{
closed = 1;
nodes = (
"46 670 LINE",
"89 648 LINE",
"112 636 OFFCURVE",
"136 616 OFFCURVE",
"140 603 CURVE",
"145 591 OFFCURVE",
"149 490 OFFCURVE",
"149 379 CURVE",
"149 177 LINE",
"177 122 LINE",
"196 86 OFFCURVE",
"225 57 OFFCURVE",
"263 38 CURVE",
"322 8 LINE",
"422 14 LINE",
"537 22 OFFCURVE",
"581 46 OFFCURVE",
"627 130 CURVE",
"657 185 LINE",
"667 604 LINE",
"689 628 LINE",
"701 642 OFFCURVE",
"720 653 OFFCURVE",
"731 653 CURVE",
"742 653 OFFCURVE",
"749 663 OFFCURVE",
"746 677 CURVE",
"743 690 OFFCURVE",
"734 701 OFFCURVE",
"724 700 CURVE",
"715 699 OFFCURVE",
"663 698 OFFCURVE",
"609 697 CURVE",
"502 694 OFFCURVE",
"486 678 OFFCURVE",
"560 647 CURVE",
"592 633 OFFCURVE",
"611 614 OFFCURVE",
"617 590 CURVE",
"632 530 OFFCURVE",
"609 190 OFFCURVE",
"587 147 CURVE",
"546 70 OFFCURVE",
"423 43 OFFCURVE",
"330 93 CURVE",
"254 133 OFFCURVE",
"247 160 OFFCURVE",
"247 406 CURVE",
"247 627 LINE",
"288 643 LINE",
"357 669 OFFCURVE",
"341 694 OFFCURVE",
"255 694 CURVE",
"214 694 OFFCURVE",
"162 698 OFFCURVE",
"140 702 CURVE",
"116 707 OFFCURVE",
"90 702 OFFCURVE",
"73 690 CURVE"
);
}
);
width = 800;
}
);
leftKerningGroup = U;
rightKerningGroup = U;
unicode = 0055;
},
{
glyphname = V;
layers = (
{
layerId = "87410FD4-54DA-4328-9944-625314575885";
paths = (
{
closed = 1;
nodes = (
"54 722 OFFCURVE",
"60 710 OFFCURVE",
"95 695 CURVE",
"134 677 OFFCURVE",
"156 634 OFFCURVE",
"215 456 CURVE",
"256 331 OFFCURVE",
"266 304 OFFCURVE",
"306 210 CURVE",
"315 187 OFFCURVE",
"327 152 OFFCURVE",
"332 133 CURVE",
"351 64 OFFCURVE",
"386 -6 OFFCURVE",
"403 -6 CURVE",
"413 -6 OFFCURVE",
"444 58 OFFCURVE",
"473 137 CURVE",
"502 215 OFFCURVE",
"531 286 OFFCURVE",
"537 294 CURVE",
"543 302 OFFCURVE",
"571 381 OFFCURVE",
"600 469 CURVE",
"651 629 LINE",
"699 674 LINE",
"725 699 OFFCURVE",
"743 726 OFFCURVE",
"738 733 CURVE",
"725 754 OFFCURVE",
"540 751 OFFCURVE",
"527 731 CURVE",
"521 722 OFFCURVE",
"524 712 OFFCURVE",
"533 709 CURVE",
"542 706 OFFCURVE",
"563 692 OFFCURVE",
"580 678 CURVE",
"611 653 LINE",
"572 543 LINE",
"550 483 OFFCURVE",
"513 375 OFFCURVE",
"489 304 CURVE",
"464 234 OFFCURVE",
"438 177 OFFCURVE",
"431 180 CURVE",
"423 182 OFFCURVE",
"399 234 OFFCURVE",
"378 295 CURVE",
"356 356 OFFCURVE",
"318 462 OFFCURVE",
"292 531 CURVE",
"267 600 OFFCURVE",
"249 664 OFFCURVE",
"252 673 CURVE",
"255 681 OFFCURVE",
"276 692 OFFCURVE",
"299 697 CURVE",
"323 701 OFFCURVE",
"340 714 OFFCURVE",
"340 726 CURVE",
"340 747 LINE",
"210 747 LINE",
"138 747 OFFCURVE",
"75 743 OFFCURVE",
"70 738 CURVE"
);
}
);
width = 800;
},
{
background = {
paths = (
{
closed = 1;
nodes = (
"49 703 OFFCURVE",
"55 691 OFFCURVE",
"90 676 CURVE",
"129 658 OFFCURVE",
"151 615 OFFCURVE",
"210 437 CURVE",
"251 312 OFFCURVE",
"261 285 OFFCURVE",
"301 191 CURVE",
"310 168 OFFCURVE",
"322 133 OFFCURVE",
"327 114 CURVE",
"346 45 OFFCURVE",
"381 -25 OFFCURVE",
"398 -25 CURVE",
"408 -25 OFFCURVE",
"439 39 OFFCURVE",
"468 118 CURVE",
"497 196 OFFCURVE",
"526 267 OFFCURVE",
"532 275 CURVE",
"538 283 OFFCURVE",
"566 362 OFFCURVE",
"595 450 CURVE",
"646 610 LINE",
"694 655 LINE",
"720 680 OFFCURVE",
"738 707 OFFCURVE",
"733 714 CURVE",
"720 735 OFFCURVE",
"535 732 OFFCURVE",
"522 712 CURVE",
"516 703 OFFCURVE",
"519 693 OFFCURVE",
"528 690 CURVE",
"537 687 OFFCURVE",
"558 673 OFFCURVE",
"575 659 CURVE",
"606 634 LINE",
"567 524 LINE",
"545 464 OFFCURVE",
"508 356 OFFCURVE",
"484 285 CURVE",
"459 215 OFFCURVE",
"433 158 OFFCURVE",
"426 161 CURVE",
"418 163 OFFCURVE",
"394 215 OFFCURVE",
"373 276 CURVE",
"351 337 OFFCURVE",
"313 443 OFFCURVE",
"287 512 CURVE",
"262 581 OFFCURVE",
"244 645 OFFCURVE",
"247 654 CURVE",
"250 662 OFFCURVE",
"271 673 OFFCURVE",
"294 678 CURVE",
"318 682 OFFCURVE",
"335 695 OFFCURVE",
"335 707 CURVE",
"335 728 LINE",
"205 728 LINE",
"133 728 OFFCURVE",
"70 724 OFFCURVE",
"65 719 CURVE"
);
}
);
};
color = 4;
hints = (
{
origin = "{0, 3}";
scale = "{-1.06, 1.08}";
type = Corner;
name = _corner.serif.lc.foot;
options = 1;
},
{
origin = "{0, 4}";
type = Corner;
name = _corner.round;
},
{
origin = "{0, 2}";
scale = "{1.44, 1.08}";
type = Corner;
name = _corner.serif.lc.foot;
},
{
origin = "{2, 2}";
scale = "{-1.08, 1}";
type = Corner;
name = _corner.serif.uc.thin;
options = 1;
},
{
origin = "{2, 0}";
type = Corner;
name = _corner.round;
},
{
origin = "{2, 1}";
scale = "{0.82, 1}";
type = Corner;
name = _corner.serif.uc.thin;
}
);
layerId = "2EA6C462-E43A-4553-9036-03D60599BBF6";
paths = (
{
closed = 1;
nodes = (
"418 -8 LINE",
"446 85 LINE",
"213 720 LINE",
"99 720 LINE",
"371 -8 LINE"
);
},
{
closed = 1;
nodes = (
"451 119 LINE",
"451 143 LINE",
"411 143 LINE",
"411 119 LINE"
);
},
{
closed = 1;
nodes = (
"435 -8 LINE",
"698 720 LINE",
"634 720 LINE",
"404 73 LINE",
"405 -8 LINE"
);
}
);
width = 800;
},
{
layerId = "F6C816F3-9BC2-4509-B825-E49BED503D7A";
paths = (
{
closed = 1;
nodes = (
"54 660 OFFCURVE",
"72 639 OFFCURVE",
"103 639 CURVE",
"134 639 OFFCURVE",
"147 612 OFFCURVE",
"254 332 CURVE",
"356 67 OFFCURVE",
"370 35 OFFCURVE",
"390 12 CURVE",
"409 -8 LINE",
"429 19 LINE",
"441 34 OFFCURVE",
"460 77 OFFCURVE",
"473 116 CURVE",
"486 154 OFFCURVE",
"517 229 OFFCURVE",
"542 283 CURVE",
"567 337 OFFCURVE",
"604 425 OFFCURVE",
"624 480 CURVE",
"660 577 OFFCURVE",
"680 606 OFFCURVE",
"737 645 CURVE",
"784 679 OFFCURVE",
"745 696 OFFCURVE",
"632 692 CURVE",
"524 687 OFFCURVE",
"486 662 OFFCURVE",
"562 646 CURVE",
"604 636 LINE",
"604 597 LINE",
"604 544 OFFCURVE",
"458 186 OFFCURVE",
"435 182 CURVE",
"422 180 OFFCURVE",
"395 234 OFFCURVE",
"355 342 CURVE",
"322 432 OFFCURVE",
"285 527 OFFCURVE",
"273 553 CURVE",
"247 607 OFFCURVE",
"261 643 OFFCURVE",
"309 650 CURVE",
"326 653 OFFCURVE",
"339 664 OFFCURVE",
"339 675 CURVE",
"339 694 LINE",
"207 694 LINE",
"135 694 OFFCURVE",
"72 688 OFFCURVE",
"67 681 CURVE"
);
}
);
width = 800;
},
{
layerId = "8BBD64F6-C2DD-426A-A806-28AAAAE0677A";
paths = (
{
closed = 1;
nodes = (
"54 660 OFFCURVE",
"72 639 OFFCURVE",
"103 639 CURVE",
"134 639 OFFCURVE",
"147 612 OFFCURVE",
"254 332 CURVE",
"356 67 OFFCURVE",
"370 35 OFFCURVE",
"390 12 CURVE",
"409 -8 LINE",
"429 19 LINE",
"441 34 OFFCURVE",
"460 77 OFFCURVE",
"473 116 CURVE",
"486 154 OFFCURVE",
"517 229 OFFCURVE",
"542 283 CURVE",
"567 337 OFFCURVE",
"604 425 OFFCURVE",
"624 480 CURVE",
"660 577 OFFCURVE",
"680 606 OFFCURVE",
"737 645 CURVE",
"784 679 OFFCURVE",
"745 696 OFFCURVE",
"632 692 CURVE",
"524 687 OFFCURVE",
"486 662 OFFCURVE",
"562 646 CURVE",
"604 636 LINE",
"604 597 LINE",
"604 544 OFFCURVE",
"458 186 OFFCURVE",
"435 182 CURVE",
"422 180 OFFCURVE",
"395 234 OFFCURVE",
"355 342 CURVE",
"322 432 OFFCURVE",
"285 527 OFFCURVE",
"273 553 CURVE",
"247 607 OFFCURVE",
"261 643 OFFCURVE",
"309 650 CURVE",
"326 653 OFFCURVE",
"339 664 OFFCURVE",
"339 675 CURVE",
"339 694 LINE",
"207 694 LINE",
"135 694 OFFCURVE",
"72 688 OFFCURVE",
"67 681 CURVE"
);
}
);
width = 800;
},
{
layerId = "664CC791-0498-4EB7-B1D0-E1FFFC98853E";
paths = (
{
closed = 1;
nodes = (
"54 722 OFFCURVE",
"60 710 OFFCURVE",
"95 695 CURVE",
"134 677 OFFCURVE",
"156 634 OFFCURVE",
"215 456 CURVE",
"256 331 OFFCURVE",
"266 304 OFFCURVE",
"306 210 CURVE",
"315 187 OFFCURVE",
"327 152 OFFCURVE",
"332 133 CURVE",
"351 64 OFFCURVE",
"386 -6 OFFCURVE",
"403 -6 CURVE",
"413 -6 OFFCURVE",
"444 58 OFFCURVE",
"473 137 CURVE",
"502 215 OFFCURVE",
"531 286 OFFCURVE",
"537 294 CURVE",
"543 302 OFFCURVE",
"571 381 OFFCURVE",
"600 469 CURVE",
"651 629 LINE",
"699 674 LINE",
"725 699 OFFCURVE",
"743 726 OFFCURVE",
"738 733 CURVE",
"725 754 OFFCURVE",
"540 751 OFFCURVE",
"527 731 CURVE",
"521 722 OFFCURVE",
"524 712 OFFCURVE",
"533 709 CURVE",
"542 706 OFFCURVE",
"563 692 OFFCURVE",
"580 678 CURVE",
"611 653 LINE",
"572 543 LINE",
"550 483 OFFCURVE",
"513 375 OFFCURVE",
"489 304 CURVE",
"464 234 OFFCURVE",
"438 177 OFFCURVE",
"431 180 CURVE",
"423 182 OFFCURVE",
"399 234 OFFCURVE",
"378 295 CURVE",
"356 356 OFFCURVE",
"318 462 OFFCURVE",
"292 531 CURVE",
"267 600 OFFCURVE",
"249 664 OFFCURVE",
"252 673 CURVE",
"255 681 OFFCURVE",
"276 692 OFFCURVE",
"299 697 CURVE",
"323 701 OFFCURVE",
"340 714 OFFCURVE",
"340 726 CURVE",
"340 747 LINE",
"210 747 LINE",
"138 747 OFFCURVE",
"75 743 OFFCURVE",
"70 738 CURVE"
);
}
);
width = 800;
},
{
layerId = "9F6891F3-FE19-4DFC-8FDB-D5777C380353";
paths = (
{
closed = 1;
nodes = (
"54 660 OFFCURVE",
"72 639 OFFCURVE",
"103 639 CURVE",
"134 639 OFFCURVE",
"147 612 OFFCURVE",
"254 332 CURVE",
"356 67 OFFCURVE",
"370 35 OFFCURVE",
"390 12 CURVE",
"409 -8 LINE",
"429 19 LINE",
"441 34 OFFCURVE",
"460 77 OFFCURVE",
"473 116 CURVE",
"486 154 OFFCURVE",
"517 229 OFFCURVE",
"542 283 CURVE",
"567 337 OFFCURVE",
"604 425 OFFCURVE",
"624 480 CURVE",
"660 577 OFFCURVE",
"680 606 OFFCURVE",
"737 645 CURVE",
"784 679 OFFCURVE",
"745 696 OFFCURVE",
"632 692 CURVE",
"524 687 OFFCURVE",
"486 662 OFFCURVE",
"562 646 CURVE",
"604 636 LINE",
"604 597 LINE",
"604 544 OFFCURVE",
"458 186 OFFCURVE",
"435 182 CURVE",
"422 180 OFFCURVE",
"395 234 OFFCURVE",
"355 342 CURVE",
"322 432 OFFCURVE",
"285 527 OFFCURVE",
"273 553 CURVE",
"247 607 OFFCURVE",
"261 643 OFFCURVE",
"309 650 CURVE",
"326 653 OFFCURVE",
"339 664 OFFCURVE",
"339 675 CURVE",
"339 694 LINE",
"207 694 LINE",
"135 694 OFFCURVE",
"72 688 OFFCURVE",
"67 681 CURVE"
);
}
);
width = 800;
}
);
leftKerningGroup = V;
rightKerningGroup = V;
unicode = 0056;
},
